#N canvas 0 0 1366 684 10;
#X msg -124 43 1;
#X msg -83 31 0;
#X obj -85 793 bng 15 250 50 0 empty empty empty 17 7 0 10 -262144
-1 -1;
#X msg -71 845 1;
#X msg -32 837 0;
#X obj -69 793 bng 15 250 50 0 empty empty empty 17 7 0 10 -262144
-1 -1;
#X floatatom 1533 -201 5 0 0 0 - #_14all -;
#X floatatom 1659 776 5 0 0 0 - - -;
#X obj 1654 802 bng 15 250 50 0 empty empty empty 17 7 0 10 -262144
-1 -1;
#X obj 1628 78 bng 15 250 50 0 empty empty empty 17 7 0 10 -262144
-1 -1;
#X obj 1687 586 r glob;
#X obj -87 -148 r pvrs5ch;
#X obj 398 -12 r step1;
#X obj -166 595 r pglob;
#X obj 212 -135 r p1;
#X obj 125 812 r p4;
#X obj 278 -134 r p2;
#X obj 636 811 r p5;
#X obj 345 -133 r p3;
#X obj 1224 815 r p6;
#X obj 291 809 r vrand4;
#X obj 389 -102 r vrand1;
#X obj 356 811 r vrand5;
#X obj 455 -101 r vrand2;
#X obj 1546 829 r vrand6;
#X obj 522 -101 r vrand3;
#X obj 1262 817 r v6;
#X obj 525 -171 r v3;
#X obj 928 820 r v5;
#X obj 458 -171 r v2;
#X obj 224 804 r v4;
#X obj 392 -172 r v1;
#X obj -194 652 r vglob;
#X obj 624 -151 r rglob;
#X obj 665 -101 r r4;
#X obj 664 -122 r r1;
#X obj 730 -100 r r5;
#X obj 920 -183 r r2;
#X obj 798 -99 r r6;
#X obj 1472 -217 r r3;
#X obj 738 -229 r regdiag6;
#X obj 581 -245 r regdiag5;
#X obj 507 -243 r regdiag4;
#X obj 510 -269 r regdiag1;
#X obj 582 -270 r regdiag2;
#X obj 643 -268 r regdiag3;
#X obj 1668 495 r globactiv;
#X obj -202 483 r glob5;
#X obj -145 485 r globchrome;
#X obj 461 -58 r d51;
#X obj -283 860 r d54;
#X obj 959 -16 r d52;
#X obj 962 811 r d55;
#X obj 1243 -43 r d53;
#X obj 1613 829 r d56;
#X obj 502 -56 r chrome1;
#X obj -201 892 r chrome4;
#X obj 1006 -12 r chrome2;
#X obj 1005 816 r chrome5;
#X obj 1288 -46 r chrome3;
#X obj 1666 905 r chrome6;
#X obj 1427 -21 r metros;
#X obj -209 -113 r met1;
#X obj -164 761 r met4;
#X obj 863 -213 r met2;
#X obj 533 831 r met5;
#X obj 1091 -16 r met3;
#X obj 1120 835 r met6;
#X obj -24 815 s mon1;
#X obj 391 1617 s mon4;
#X obj 1083 1622 s mon5;
#X obj 1012 849 s mon2;
#X obj 1048 847 s mon3;
#X obj 1133 1621 s mon6;
#X obj 128 -44 r step21;
#X obj 255 -103 r tet1;
#X obj 506 810 r tet4;
#X obj 301 -58 r tet2;
#X obj 556 812 r tet5;
#X obj 1157 -45 r tet3;
#X obj 1164 816 r tet6;
#X msg 100 29 0;
#X msg 111 -2 1;
#X obj 276 -268 r moo1;
#X obj -117 743 r moo4;
#X obj 872 -162 r moo2;
#X obj 853 809 r moo5;
#X obj 1336 -63 r moo3;
#X obj 1681 697 r moo6;
#X obj 80 -55 r eset;
#X msg 160 36 21;
#X msg 195 33 1;
#X obj 595 -50 r rdiagglob;
#X msg 332 27 1;
#X obj 731 -55 r rdiaglob2Hi;
#X msg 491 -203 7;
#X msg 731 -27 1;
#X msg 767 -29 2;
#X msg 756 -3 3;
#X msg 706 -175 6;
#X msg 762 -148 5;
#X msg 681 -150 3;
#X msg 768 -171 1;
#X msg 723 -152 2;
#X msg 514 2 4;
#X msg 612 -75 4;
#X msg 650 -74 4;
#X msg 922 -132 4;
#X msg 724 -77 4;
#X msg 1505 -115 4;
#X msg 799 -79 4;
#X msg 553 -207 1;
#X msg 583 -206 1;
#X msg 620 -208 1;
#X msg 650 -207 1;
#X msg 750 -201 1;
#X floatatom 206 -65 5 0 0 0 - #_steps -;
#X msg 840 -5 0;
#X msg 851 -36 1;
#X msg 896 9 21;
#X msg 929 10 1;
#X msg 1300 18 0;
#X msg 1311 -13 1;
#X msg 1356 32 21;
#X msg 1389 33 1;
#X msg 1679 855 0;
#X msg 1243 837 21;
#X msg 1426 822 1;
#X msg -143 868 0;
#X msg -132 837 1;
#X msg -87 882 21;
#X msg -54 883 1;
#X msg 770 814 0;
#X msg 800 808 1;
#X msg 826 828 21;
#X msg 859 829 1;
#X msg 1669 821 21;
#X obj 735 -262 r 21regdiag1;
#X obj 830 -248 r 21regdiag2;
#X obj 1596 -204 r 21regdiag3;
#X obj 410 833 r 21regdiag4;
#X obj 1366 830 r 21regdiag5;
#X obj 1458 827 r 21regdiag6;
#X obj 1689 538 r vlums;
#X obj 1098 871 sequencer9;
#X obj 509 104 sequencer9;
#X obj 1070 106 sequencer9;
#X obj -49 103 sequencer9;
#X obj 538 869 sequencer9;
#X obj -21 875 sequencer9;
#X msg 134 10 9;
#X msg 671 17 18;
#X msg 1166 1 37;
#X msg 168 825 147;
#X msg 697 829 294;
#X msg 1284 845 589;
#X obj -303 943 s 8seq1;
#X obj -258 965 s 8seq2;
#X obj -214 947 s 8seq3;
#X obj -173 958 s 8seq4;
#X obj -120 948 s 8seq5;
#X obj -77 971 s 8seq6;
#X obj 817 1623 s 8seq1;
#X obj 862 1645 s 8seq2;
#X obj 906 1627 s 8seq3;
#X obj 952 1648 s 8seq4;
#X obj 1000 1628 s 8seq5;
#X obj 1048 1650 s 8seq6;
#X connect 0 0 2 0;
#X connect 0 0 145 0;
#X connect 0 0 146 0;
#X connect 0 0 147 0;
#X connect 1 0 5 0;
#X connect 1 0 145 0;
#X connect 1 0 146 0;
#X connect 1 0 147 0;
#X connect 2 0 3 0;
#X connect 3 0 144 0;
#X connect 3 0 148 0;
#X connect 3 0 149 0;
#X connect 4 0 144 0;
#X connect 4 0 148 0;
#X connect 4 0 149 0;
#X connect 5 0 4 0;
#X connect 6 0 7 0;
#X connect 6 0 145 2;
#X connect 6 0 146 2;
#X connect 6 0 147 8;
#X connect 7 0 144 2;
#X connect 7 0 148 2;
#X connect 7 0 149 2;
#X connect 8 0 155 0;
#X connect 8 0 154 0;
#X connect 8 0 153 0;
#X connect 9 0 8 0;
#X connect 9 0 152 0;
#X connect 9 0 151 0;
#X connect 9 0 150 0;
#X connect 10 0 144 4;
#X connect 10 0 144 24;
#X connect 10 0 145 4;
#X connect 10 0 145 24;
#X connect 10 0 146 4;
#X connect 10 0 146 24;
#X connect 10 0 147 4;
#X connect 10 0 147 24;
#X connect 10 0 148 4;
#X connect 10 0 148 24;
#X connect 10 0 149 4;
#X connect 10 0 149 24;
#X connect 11 0 9 0;
#X connect 11 0 144 5;
#X connect 11 0 145 5;
#X connect 11 0 146 5;
#X connect 11 0 147 5;
#X connect 11 0 148 5;
#X connect 11 0 149 5;
#X connect 12 0 91 0;
#X connect 12 0 120 0;
#X connect 12 0 124 0;
#X connect 12 0 131 0;
#X connect 12 0 135 0;
#X connect 12 0 127 0;
#X connect 13 0 144 10;
#X connect 13 0 145 10;
#X connect 13 0 146 10;
#X connect 13 0 147 10;
#X connect 13 0 148 10;
#X connect 13 0 149 10;
#X connect 14 0 147 10;
#X connect 15 0 149 10;
#X connect 16 0 145 10;
#X connect 17 0 148 10;
#X connect 18 0 146 10;
#X connect 19 0 144 10;
#X connect 20 0 149 16;
#X connect 21 0 147 16;
#X connect 22 0 148 16;
#X connect 23 0 145 16;
#X connect 24 0 144 16;
#X connect 25 0 146 16;
#X connect 26 0 144 11;
#X connect 27 0 146 11;
#X connect 28 0 148 11;
#X connect 29 0 145 11;
#X connect 30 0 149 11;
#X connect 31 0 147 11;
#X connect 32 0 144 11;
#X connect 32 0 145 11;
#X connect 32 0 146 11;
#X connect 32 0 147 11;
#X connect 32 0 148 11;
#X connect 32 0 149 11;
#X connect 33 0 104 0;
#X connect 34 0 106 0;
#X connect 35 0 105 0;
#X connect 36 0 108 0;
#X connect 37 0 107 0;
#X connect 38 0 110 0;
#X connect 39 0 109 0;
#X connect 40 0 115 0;
#X connect 40 0 102 0;
#X connect 41 0 114 0;
#X connect 41 0 103 0;
#X connect 42 0 113 0;
#X connect 42 0 101 0;
#X connect 43 0 93 0;
#X connect 43 0 95 0;
#X connect 44 0 111 0;
#X connect 44 0 99 0;
#X connect 45 0 112 0;
#X connect 45 0 100 0;
#X connect 46 0 82 0;
#X connect 46 0 81 0;
#X connect 46 0 117 0;
#X connect 46 0 118 0;
#X connect 46 0 121 0;
#X connect 46 0 122 0;
#X connect 46 0 128 0;
#X connect 46 0 132 0;
#X connect 46 0 133 0;
#X connect 46 0 136 0;
#X connect 46 0 125 0;
#X connect 46 0 129 0;
#X connect 46 0 144 7;
#X connect 46 0 147 7;
#X connect 47 0 144 19;
#X connect 47 0 145 19;
#X connect 47 0 146 19;
#X connect 47 0 147 19;
#X connect 47 0 148 19;
#X connect 47 0 149 19;
#X connect 48 0 144 20;
#X connect 48 0 145 20;
#X connect 48 0 146 20;
#X connect 48 0 147 20;
#X connect 48 0 148 20;
#X connect 48 0 149 20;
#X connect 49 0 147 21;
#X connect 50 0 149 21;
#X connect 51 0 145 21;
#X connect 52 0 148 21;
#X connect 53 0 146 21;
#X connect 54 0 144 21;
#X connect 55 0 147 22;
#X connect 56 0 149 22;
#X connect 57 0 145 22;
#X connect 58 0 148 22;
#X connect 59 0 146 22;
#X connect 60 0 144 22;
#X connect 61 0 9 0;
#X connect 62 0 147 8;
#X connect 63 0 149 1;
#X connect 64 0 145 1;
#X connect 65 0 148 1;
#X connect 66 0 146 1;
#X connect 67 0 144 1;
#X connect 74 0 90 0;
#X connect 74 0 123 0;
#X connect 74 0 119 0;
#X connect 74 0 130 0;
#X connect 74 0 134 0;
#X connect 74 0 126 0;
#X connect 75 0 147 9;
#X connect 76 0 149 9;
#X connect 77 0 145 9;
#X connect 78 0 148 9;
#X connect 79 0 146 9;
#X connect 80 0 144 9;
#X connect 81 0 147 7;
#X connect 82 0 147 7;
#X connect 83 0 147 7;
#X connect 84 0 149 7;
#X connect 85 0 145 7;
#X connect 86 0 148 7;
#X connect 87 0 146 7;
#X connect 88 0 144 7;
#X connect 89 0 144 6;
#X connect 89 0 145 6;
#X connect 89 0 146 6;
#X connect 89 0 147 6;
#X connect 89 0 148 6;
#X connect 89 0 149 6;
#X connect 90 0 145 9;
#X connect 90 0 146 9;
#X connect 90 0 147 9;
#X connect 91 0 145 9;
#X connect 91 0 146 9;
#X connect 91 0 147 9;
#X connect 92 0 93 0;
#X connect 92 0 95 0;
#X connect 92 0 99 0;
#X connect 92 0 100 0;
#X connect 92 0 101 0;
#X connect 92 0 103 0;
#X connect 92 0 102 0;
#X connect 93 0 147 12;
#X connect 94 0 96 0;
#X connect 94 0 97 0;
#X connect 94 0 98 0;
#X connect 95 0 147 18;
#X connect 96 0 147 18;
#X connect 96 0 149 18;
#X connect 97 0 145 18;
#X connect 97 0 148 18;
#X connect 98 0 144 18;
#X connect 98 0 146 18;
#X connect 99 0 145 18;
#X connect 100 0 146 18;
#X connect 101 0 149 18;
#X connect 102 0 144 18;
#X connect 103 0 148 18;
#X connect 104 0 144 18;
#X connect 104 0 145 18;
#X connect 104 0 146 18;
#X connect 104 0 147 18;
#X connect 104 0 148 18;
#X connect 104 0 149 18;
#X connect 105 0 147 18;
#X connect 106 0 149 18;
#X connect 107 0 145 18;
#X connect 108 0 148 18;
#X connect 109 0 146 18;
#X connect 110 0 144 18;
#X connect 111 0 145 12;
#X connect 112 0 146 12;
#X connect 113 0 149 12;
#X connect 114 0 148 12;
#X connect 115 0 144 12;
#X connect 116 0 144 9;
#X connect 116 0 145 9;
#X connect 116 0 146 9;
#X connect 116 0 147 9;
#X connect 116 0 148 9;
#X connect 116 0 149 9;
#X connect 117 0 145 7;
#X connect 118 0 145 7;
#X connect 119 0 145 9;
#X connect 120 0 145 9;
#X connect 121 0 146 7;
#X connect 122 0 146 7;
#X connect 123 0 146 9;
#X connect 124 0 146 9;
#X connect 125 0 144 7;
#X connect 126 0 144 9;
#X connect 127 0 144 9;
#X connect 128 0 149 7;
#X connect 129 0 149 7;
#X connect 130 0 149 9;
#X connect 131 0 149 9;
#X connect 132 0 148 7;
#X connect 133 0 148 7;
#X connect 134 0 148 9;
#X connect 135 0 148 9;
#X connect 136 0 144 9;
#X connect 137 0 147 23;
#X connect 138 0 145 23;
#X connect 139 0 146 23;
#X connect 140 0 149 23;
#X connect 141 0 148 23;
#X connect 142 0 144 23;
#X connect 143 0 144 25;
#X connect 143 0 145 25;
#X connect 143 0 146 25;
#X connect 143 0 147 25;
#X connect 143 0 148 25;
#X connect 143 0 149 25;
#X connect 144 0 166 0;
#X connect 144 1 167 0;
#X connect 144 2 73 0;
#X connect 145 0 158 0;
#X connect 145 1 159 0;
#X connect 145 2 71 0;
#X connect 146 0 160 0;
#X connect 146 1 161 0;
#X connect 146 2 72 0;
#X connect 147 0 156 0;
#X connect 147 1 157 0;
#X connect 147 2 68 0;
#X connect 148 0 164 0;
#X connect 148 1 165 0;
#X connect 148 2 70 0;
#X connect 149 0 162 0;
#X connect 149 1 163 0;
#X connect 149 2 69 0;
#X connect 150 0 147 8;
#X connect 151 0 145 1;
#X connect 152 0 146 1;
#X connect 153 0 149 1;
#X connect 154 0 148 1;
#X connect 155 0 144 1;
