#N canvas 347 57 450 384 10;
#X obj 47 74 random 60000;
#X obj 58 95 random 60000;
#X obj 76 118 random 60000;
#X obj 87 139 random 60000;
#X obj 110 159 random 60000;
#X obj 121 180 random 60000;
#X obj 16 257 delay;
#X obj 46 44 t b b b b b b;
#X obj 156 25 delay 50;
#X obj 156 44 t b b b b b b;
#X obj 60 254 delay;
#X obj 103 255 delay;
#X obj 147 256 delay;
#X obj 191 255 delay;
#X obj 235 256 delay;
#X obj 0 322 outlet;
#X obj 52 322 outlet;
#X obj 109 325 outlet;
#X obj 171 331 outlet;
#X obj 219 329 outlet;
#X obj 274 329 outlet;
#X msg 259 286 1;
#X msg 214 293 1;
#X msg 175 289 1;
#X msg 130 296 1;
#X msg 63 284 1;
#X msg 18 291 1;
#X obj 47 9 r prepoly;
#X connect 0 0 6 1;
#X connect 1 0 10 1;
#X connect 2 0 11 1;
#X connect 3 0 12 1;
#X connect 4 0 13 1;
#X connect 5 0 14 1;
#X connect 6 0 26 0;
#X connect 7 0 0 0;
#X connect 7 1 1 0;
#X connect 7 2 2 0;
#X connect 7 3 3 0;
#X connect 7 4 4 0;
#X connect 7 5 5 0;
#X connect 8 0 9 0;
#X connect 9 0 6 0;
#X connect 9 1 10 0;
#X connect 9 2 11 0;
#X connect 9 3 12 0;
#X connect 9 4 13 0;
#X connect 9 5 14 0;
#X connect 10 0 25 0;
#X connect 11 0 24 0;
#X connect 12 0 23 0;
#X connect 13 0 22 0;
#X connect 14 0 21 0;
#X connect 21 0 20 0;
#X connect 22 0 19 0;
#X connect 23 0 18 0;
#X connect 24 0 17 0;
#X connect 25 0 16 0;
#X connect 26 0 15 0;
#X connect 27 0 8 0;
#X connect 27 0 7 0;
