#N canvas 0 0 814 612 10;
#X obj 148 185 random 75776;
#X obj 72 172 f;
#X obj 99 171 + 1;
#X msg 64 142 0;
#X obj 64 120 bng 15 250 50 0 empty empty empty 17 7 0 10 -262144 -1
-1;
#X obj 23 274 delay;
#X obj 153 269 delay;
#X obj 206 270 delay;
#X obj 313 267 delay;
#X obj 260 272 delay;
#X obj 383 269 delay;
#X obj 90 271 delay;
#X obj 844 197 delay;
#X obj 846 310 delay;
#X obj 844 366 delay;
#X obj 841 477 delay;
#X obj 843 423 delay;
#X obj 842 536 delay;
#X obj 847 252 delay;
#X obj 827 185 delay;
#X obj 829 298 delay;
#X obj 827 354 delay;
#X obj 824 465 delay;
#X obj 826 411 delay;
#X obj 825 524 delay;
#X obj 830 240 delay;
#X obj 1030 184 delay;
#X obj 1032 297 delay;
#X obj 1030 353 delay;
#X obj 1027 464 delay;
#X obj 1029 410 delay;
#X obj 1028 523 delay;
#X obj 1033 239 delay;
#X obj 161 217 gate 7;
#X obj 147 112 uzi 7;
#X obj 20 313 outlet;
#X obj 92 311 outlet;
#X obj 150 308 outlet;
#X obj 222 306 outlet;
#X obj 270 308 outlet;
#X obj 342 306 outlet;
#X obj 394 304 outlet;
#X obj 147 140 t b b b;
#X obj 554 283 outlet;
#X obj 555 211 line 0 500;
#X obj 588 156 random 100000;
#X obj 553 102 t b b;
#X obj 555 234 / 100;
#X msg 554 181 100 \$1;
#X msg 505 132 0;
#X obj 670 40 inlet;
#X obj 145 47 inlet;
#X obj 146 82 t b b;
#X obj 545 41 inlet;
#X connect 0 0 33 1;
#X connect 1 0 2 0;
#X connect 1 0 33 0;
#X connect 2 0 1 1;
#X connect 3 0 1 1;
#X connect 4 0 3 0;
#X connect 5 0 35 0;
#X connect 6 0 37 0;
#X connect 7 0 38 0;
#X connect 8 0 40 0;
#X connect 9 0 39 0;
#X connect 10 0 41 0;
#X connect 11 0 36 0;
#X connect 33 0 5 1;
#X connect 33 1 11 1;
#X connect 33 2 6 1;
#X connect 33 3 7 1;
#X connect 33 4 9 1;
#X connect 33 5 8 1;
#X connect 33 6 10 1;
#X connect 34 0 42 0;
#X connect 42 0 5 0;
#X connect 42 0 11 0;
#X connect 42 0 6 0;
#X connect 42 0 7 0;
#X connect 42 0 9 0;
#X connect 42 0 8 0;
#X connect 42 0 10 0;
#X connect 42 1 0 0;
#X connect 42 2 1 0;
#X connect 44 0 47 0;
#X connect 45 0 48 0;
#X connect 46 0 45 0;
#X connect 46 1 49 0;
#X connect 47 0 43 0;
#X connect 48 0 44 0;
#X connect 49 0 44 0;
#X connect 50 0 45 1;
#X connect 51 0 52 0;
#X connect 52 0 34 0;
#X connect 52 1 4 0;
#X connect 53 0 46 0;
