#N canvas 231 39 1004 530 10;
#X obj 105 105 vradio 15 1 0 12 empty empty empty 0 -8 0 10 -262144
-1 -1 0;
#X obj 161 347 select 0 1 2 3 4 5 6 7 8 9 10 11;
#X obj 111 347 r und;
#X obj 190 445 * 16;
#X obj 190 468 / 15;
#X obj 190 422 f;
#X obj 161 421 f;
#X obj 225 422 f;
#X obj 260 421 f;
#X obj 295 420 f;
#X obj 330 421 f;
#X obj 364 421 f;
#X obj 398 421 f;
#X obj 431 420 f;
#X obj 466 420 f;
#X obj 500 420 f;
#X obj 536 419 f;
#X obj 225 445 * 9;
#X obj 225 468 / 8;
#X obj 260 444 * 6;
#X obj 260 466 / 5;
#X obj 295 442 * 5;
#X obj 295 467 / 4;
#X obj 330 444 * 4;
#X obj 330 467 / 3;
#X obj 364 444 * 45;
#X obj 363 467 / 32;
#X obj 398 444 * 3;
#X obj 398 467 / 2;
#X obj 431 443 * 8;
#X obj 431 466 / 5;
#X obj 466 443 * 5;
#X obj 466 465 / 3;
#X obj 500 444 * 9;
#X obj 500 466 / 5;
#X obj 536 442 * 15;
#X obj 536 465 / 8;
#X obj -19 392 * 2;
#X obj -27 360 f;
#X obj 0 359 f;
#X obj 28 359 f;
#X obj 9 392 * 4;
#X obj 36 391 * 8;
#X obj 64 391 * 16;
#X obj -222 360 f;
#X obj -194 360 f;
#X obj -167 359 f;
#X obj -139 359 f;
#X obj -186 392 / 2;
#X obj -158 392 / 4;
#X obj -130 391 / 8;
#X obj -103 391 / 16;
#X obj -270 195 loadbang;
#X msg -234 239 0;
#X obj -111 359 f;
#X obj 56 358 f;
#X obj 104 289 bng 15 250 50 0 empty empty empty 17 7 0 10 -262144
-1 -1;
#X floatatom 149 289 5 0 0 0 - - -;
#X obj 149 255 bng 15 250 50 0 empty empty empty 17 7 0 10 -262144
-1 -1;
#X text -137 56 recieve inpulse;
#X obj -139 108 t b b;
#X floatatom 228 266 5 0 0 0 - - -;
#X obj 147 105 vradio 15 1 0 9 empty empty empty 0 -8 0 10 -262144
-1 -1 4;
#X obj -163 322 select 0 1 2 3 4 5 6 7 8;
#X obj 120 484 s \$0-octs;
#X obj -207 263 r \$0-octs;
#X obj -158 52 inlet;
#X text 116 288 reset;
#X obj 162 324 outlet;
#X text 122 120 m2;
#X text 121 135 M2;
#X text 121 153 m3;
#X text 121 169 M3;
#X text 121 182 P4;
#X text 121 196 TT;
#X text 123 211 P5;
#X text 123 225 m6;
#X text 123 239 M6;
#X text 123 253 m7;
#X text 123 267 M7;
#X text 410 354 its just not equal;
#X text 162 118 /16;
#X text 162 134 /8;
#X text 162 148 /4;
#X text 161 163 /2;
#X text 162 178 *2;
#X text 162 194 *4;
#X text 162 209 *8;
#X text 162 223 *16;
#X text 148 274 whats;
#X obj 220 297 f;
#X obj 257 145 inlet;
#X connect 0 0 1 0;
#X connect 0 0 61 0;
#X connect 1 0 6 0;
#X connect 1 1 5 0;
#X connect 1 2 7 0;
#X connect 1 3 8 0;
#X connect 1 4 9 0;
#X connect 1 5 10 0;
#X connect 1 6 11 0;
#X connect 1 7 12 0;
#X connect 1 8 13 0;
#X connect 1 9 14 0;
#X connect 1 10 15 0;
#X connect 1 11 16 0;
#X connect 2 0 5 1;
#X connect 2 0 6 1;
#X connect 2 0 7 1;
#X connect 2 0 8 1;
#X connect 2 0 9 1;
#X connect 2 0 10 1;
#X connect 2 0 11 1;
#X connect 2 0 12 1;
#X connect 2 0 13 1;
#X connect 2 0 14 1;
#X connect 2 0 15 1;
#X connect 2 0 16 1;
#X connect 3 0 4 0;
#X connect 4 0 64 0;
#X connect 5 0 3 0;
#X connect 6 0 64 0;
#X connect 7 0 17 0;
#X connect 8 0 19 0;
#X connect 9 0 21 0;
#X connect 10 0 23 0;
#X connect 11 0 25 0;
#X connect 12 0 27 0;
#X connect 13 0 29 0;
#X connect 14 0 31 0;
#X connect 15 0 33 0;
#X connect 16 0 35 0;
#X connect 17 0 18 0;
#X connect 18 0 64 0;
#X connect 19 0 20 0;
#X connect 20 0 64 0;
#X connect 21 0 22 0;
#X connect 22 0 64 0;
#X connect 23 0 24 0;
#X connect 24 0 64 0;
#X connect 25 0 26 0;
#X connect 26 0 64 0;
#X connect 27 0 28 0;
#X connect 28 0 64 0;
#X connect 29 0 30 0;
#X connect 30 0 64 0;
#X connect 31 0 32 0;
#X connect 32 0 64 0;
#X connect 33 0 34 0;
#X connect 34 0 64 0;
#X connect 35 0 36 0;
#X connect 36 0 64 0;
#X connect 37 0 57 0;
#X connect 38 0 37 0;
#X connect 39 0 41 0;
#X connect 40 0 42 0;
#X connect 41 0 57 0;
#X connect 42 0 57 0;
#X connect 43 0 57 0;
#X connect 44 0 57 0;
#X connect 45 0 48 0;
#X connect 46 0 49 0;
#X connect 47 0 50 0;
#X connect 48 0 57 0;
#X connect 49 0 57 0;
#X connect 50 0 57 0;
#X connect 51 0 57 0;
#X connect 52 0 53 0;
#X connect 53 0 0 0;
#X connect 53 0 62 0;
#X connect 54 0 51 0;
#X connect 55 0 43 0;
#X connect 56 0 53 0;
#X connect 57 0 90 1;
#X connect 57 0 90 0;
#X connect 58 0 60 0;
#X connect 58 0 0 0;
#X connect 60 0 62 0;
#X connect 60 1 0 0;
#X connect 62 0 63 0;
#X connect 63 0 44 0;
#X connect 63 1 54 0;
#X connect 63 2 47 0;
#X connect 63 3 46 0;
#X connect 63 4 45 0;
#X connect 63 5 38 0;
#X connect 63 6 39 0;
#X connect 63 7 40 0;
#X connect 63 8 55 0;
#X connect 65 0 44 1;
#X connect 65 0 45 1;
#X connect 65 0 46 1;
#X connect 65 0 47 1;
#X connect 65 0 54 1;
#X connect 65 0 38 1;
#X connect 65 0 39 1;
#X connect 65 0 40 1;
#X connect 65 0 55 1;
#X connect 66 0 58 0;
#X connect 90 0 68 0;
#X connect 91 0 6 1;
#X connect 91 0 5 1;
#X connect 91 0 7 1;
#X connect 91 0 8 1;
#X connect 91 0 9 1;
#X connect 91 0 10 1;
#X connect 91 0 12 1;
#X connect 91 0 13 1;
#X connect 91 0 14 1;
#X connect 91 0 15 1;
#X connect 91 0 16 1;
#X coords 0 -1 1 1 85 210 1 100 100;
