#N canvas 169 118 592 487 10;
#X obj -2664 -3223 select 1;
#X obj -2664 -3196 select 2;
#X obj -2663 -3168 select 3;
#X obj -2663 -3141 select 4;
#X obj -2595 -3221 select 5;
#X obj -2592 -3161 select 7;
#X obj -2594 -3135 select 8;
#X obj -2522 -3216 select 9;
#X obj -2521 -3186 select 10;
#X obj -2521 -3157 select 11;
#X obj -2519 -3134 select 12;
#X obj -2447 -3215 select 13;
#X obj -2446 -3185 select 14;
#X obj -2446 -3156 select 15;
#X obj -2444 -3133 select 0;
#X obj -2592 -3190 select 6;
#X msg -2443 -3104 1;
#X msg -2718 -3224 0.5;
#X msg -2718 -3195 0.333;
#X msg -2716 -3174 0.25;
#X msg -2714 -3142 0.2;
#X msg -2662 -3101 0.166;
#X msg -2661 -3064 0.142;
#X msg -2660 -3030 0.125;
#X msg -2656 -2993 0.111;
#X msg -2579 -3091 0.1;
#X msg -2578 -3055 0.0909;
#X msg -2580 -3025 0.083;
#X msg -2492 -3060 0.066;
#X msg -2576 -2991 0.0769;
#X msg -2499 -3094 0.0714;
#X obj -2595 -3347 inlet;
#X obj -2584 -2921 outlet;
#X msg -2487 -3032 0.0625;
#X connect 0 0 17 0;
#X connect 1 0 18 0;
#X connect 2 0 19 0;
#X connect 3 0 20 0;
#X connect 4 0 21 0;
#X connect 5 0 23 0;
#X connect 6 0 24 0;
#X connect 7 0 25 0;
#X connect 8 0 26 0;
#X connect 9 0 27 0;
#X connect 10 0 29 0;
#X connect 11 0 30 0;
#X connect 12 0 28 0;
#X connect 13 0 33 0;
#X connect 14 0 16 0;
#X connect 15 0 22 0;
#X connect 16 0 32 0;
#X connect 17 0 32 0;
#X connect 18 0 32 0;
#X connect 19 0 32 0;
#X connect 20 0 32 0;
#X connect 21 0 32 0;
#X connect 22 0 32 0;
#X connect 23 0 32 0;
#X connect 24 0 32 0;
#X connect 25 0 32 0;
#X connect 27 0 32 0;
#X connect 28 0 32 0;
#X connect 29 0 32 0;
#X connect 30 0 32 0;
#X connect 31 0 0 0;
#X connect 31 0 1 0;
#X connect 31 0 2 0;
#X connect 31 0 3 0;
#X connect 31 0 4 0;
#X connect 31 0 15 0;
#X connect 31 0 7 0;
#X connect 31 0 11 0;
#X connect 31 0 12 0;
#X connect 31 0 8 0;
#X connect 31 0 5 0;
#X connect 31 0 6 0;
#X connect 31 0 9 0;
#X connect 31 0 10 0;
#X connect 31 0 13 0;
#X connect 31 0 14 0;
#X connect 33 0 32 0;
