#N canvas 0 0 437 300 10;
#X obj 540 45 / 100;
#X obj 419 46 / 100;
#X floatatom 656 80 5 0 0 0 - - -;
#X floatatom 745 49 5 0 0 0 - - -;
#X obj 656 58 * 100;
#X obj 745 24 / 50;
#X floatatom 92 56 5 0 0 0 - - -;
#X obj 92 31 * 39;
#X obj 181 37 / 21;
#X obj 249 40 / 21;
#X obj 327 33 * 10;
#X obj 578 32 spigot;
#X obj 623 31 tgl 15 0 empty $_lockset empty 17 7 0 10 -262144 -1 -1
0 1;
#X obj 92 7 spigot;
#X obj 148 -8 tgl 15 0 empty $_lockset empty 17 7 0 10 -262144 -1 -1
0 1;
#X obj 177 13 spigot;
#X obj 224 12 tgl 15 0 empty $_lockset empty 17 7 0 10 -262144 -1 -1
0 1;
#X obj 252 9 spigot;
#X obj 299 3 tgl 15 0 empty $_lockset empty 17 7 0 10 -262144 -1 -1
0 1;
#X obj 327 10 spigot;
#X obj 383 1 tgl 15 0 empty $_lockset empty 17 7 0 10 -262144 -1 -1
0 1;
#X obj 427 15 spigot;
#X obj 474 14 tgl 15 0 empty $_lockset empty 17 7 0 10 -262144 -1 -1
0 1;
#X obj 679 39 spigot;
#X obj 724 19 tgl 15 0 empty $_lockset empty 17 7 0 10 -262144 -1 -1
0 1;
#X obj 769 4 spigot;
#X obj 814 3 tgl 15 0 empty $_lockset empty 17 7 0 10 -262144 -1 -1
0 1;
#X obj 420 -20 ctlin 5;
#X obj 92 -17 ctlin 1;
#X obj 177 -11 ctlin 2;
#X obj 251 -14 ctlin 3;
#X obj 326 -10 ctlin 4;
#X obj 547 9 ctlin 6;
#X obj 745 -15 ctlin 8;
#X obj 656 15 ctlin 7;
#X obj 249 64 outlet;
#X obj 181 60 outlet;
#X obj 92 81 outlet;
#X obj 417 74 outlet;
#X obj 327 56 outlet;
#X obj 542 76 outlet;
#X obj 656 99 outlet;
#X obj 745 73 outlet;
#X connect 0 0 40 0;
#X connect 1 0 38 0;
#X connect 2 0 41 0;
#X connect 3 0 42 0;
#X connect 4 0 2 0;
#X connect 5 0 3 0;
#X connect 6 0 37 0;
#X connect 7 0 6 0;
#X connect 8 0 36 0;
#X connect 9 0 35 0;
#X connect 10 0 39 0;
#X connect 11 0 0 0;
#X connect 12 0 11 1;
#X connect 13 0 7 0;
#X connect 14 0 13 1;
#X connect 15 0 8 0;
#X connect 16 0 15 1;
#X connect 17 0 9 0;
#X connect 18 0 17 1;
#X connect 19 0 10 0;
#X connect 20 0 19 1;
#X connect 21 0 1 0;
#X connect 22 0 21 1;
#X connect 23 0 4 0;
#X connect 24 0 23 1;
#X connect 25 0 5 0;
#X connect 26 0 25 1;
#X connect 27 0 21 0;
#X connect 28 0 13 0;
#X connect 29 0 15 0;
#X connect 30 0 17 0;
#X connect 31 0 19 0;
#X connect 32 0 11 0;
#X connect 33 0 25 0;
#X connect 34 0 23 0;
