#N canvas 29 179 1262 593 10;
#X floatatom 83 68 5 0 0 0 - - -;
#X obj 85 98 osc~;
#X obj 91 149 *~;
#X obj 140 50 vsl 15 128 0 1 0 0 empty empty empty 0 -9 0 10 -262144
-1 -1 0 1;
#X floatatom 238 69 5 0 0 0 - - -;
#X obj 240 99 osc~;
#X obj 246 152 *~;
#X obj 288 56 vsl 15 128 0 1 0 0 empty empty empty 0 -9 0 10 -262144
-1 -1 2200 1;
#X obj 675 299 dac~;
#X floatatom 334 73 5 0 0 0 - - -;
#X obj 336 103 osc~;
#X obj 342 156 *~;
#X obj 384 60 vsl 15 128 0 1 0 0 empty empty empty 0 -9 0 10 -262144
-1 -1 3700 1;
#X floatatom 432 73 5 0 0 0 - - -;
#X obj 434 103 osc~;
#X obj 440 156 *~;
#X obj 482 60 vsl 15 128 0 1 0 0 empty empty empty 0 -9 0 10 -262144
-1 -1 2700 1;
#X floatatom 513 73 5 0 0 0 - - -;
#X obj 515 103 osc~;
#X obj 521 156 *~;
#X obj 563 60 vsl 15 128 0 1 0 0 empty empty empty 0 -9 0 10 -262144
-1 -1 1000 1;
#X floatatom 609 77 5 0 0 0 - - -;
#X obj 611 107 osc~;
#X obj 617 160 *~;
#X obj 659 64 vsl 15 128 0 1 0 0 empty empty empty 0 -9 0 10 -262144
-1 -1 800 1;
#X floatatom 707 77 5 0 0 0 - - -;
#X obj 709 107 osc~;
#X obj 715 160 *~;
#X obj 757 64 vsl 15 128 0 1 0 0 empty empty empty 0 -9 0 10 -262144
-1 -1 3100 1;
#X floatatom 797 76 5 0 0 0 - - -;
#X obj 799 106 osc~;
#X obj 805 159 *~;
#X obj 847 63 vsl 15 128 0 1 0 0 empty empty empty 0 -9 0 10 -262144
-1 -1 2000 1;
#X floatatom 892 79 5 0 0 0 - - -;
#X obj 894 109 osc~;
#X obj 900 162 *~;
#X obj 942 66 vsl 15 128 0 1 0 0 empty empty empty 0 -9 0 10 -262144
-1 -1 4100 1;
#X floatatom 982 78 5 0 0 0 - - -;
#X obj 984 108 osc~;
#X obj 990 161 *~;
#X obj 1032 65 vsl 15 128 0 1 0 0 empty empty empty 0 -9 0 10 -262144
-1 -1 1000 1;
#X floatatom 1074 81 5 0 0 0 - - -;
#X obj 1076 111 osc~;
#X obj 1082 164 *~;
#X obj 1124 68 vsl 15 128 0 1 0 0 empty empty empty 0 -9 0 10 -262144
-1 -1 1100 1;
#X msg 100 31 1174;
#X msg 226 31 1046;
#X msg 346 28 987.8;
#X msg 427 26 932.3;
#X msg 511 27 880;
#X msg 614 31 784;
#X msg 707 29 523;
#X msg 798 32 493.9;
#X msg 888 33 392;
#X msg 971 33 196;
#X msg 700 2 523;
#X msg 791 5 493.9;
#X msg 881 6 392;
#X msg 964 6 196;
#X msg 219 4 392;
#X msg 339 1 440;
#X msg 420 -4 493.9;
#X msg 504 0 987.8;
#X msg 607 2 261.6;
#X msg 1069 13 98;
#X msg 93 4 196;
#X msg 556 11 269.9;
#X connect 0 0 1 0;
#X connect 1 0 2 0;
#X connect 2 0 8 1;
#X connect 2 0 8 0;
#X connect 3 0 2 1;
#X connect 4 0 5 0;
#X connect 5 0 6 0;
#X connect 6 0 8 1;
#X connect 6 0 8 0;
#X connect 7 0 6 1;
#X connect 9 0 10 0;
#X connect 10 0 11 0;
#X connect 11 0 8 1;
#X connect 11 0 8 0;
#X connect 12 0 11 1;
#X connect 13 0 14 0;
#X connect 14 0 15 0;
#X connect 15 0 8 1;
#X connect 15 0 8 0;
#X connect 16 0 15 1;
#X connect 17 0 18 0;
#X connect 18 0 19 0;
#X connect 19 0 8 0;
#X connect 19 0 8 1;
#X connect 20 0 19 1;
#X connect 21 0 22 0;
#X connect 22 0 23 0;
#X connect 23 0 8 1;
#X connect 23 0 8 0;
#X connect 24 0 23 1;
#X connect 25 0 26 0;
#X connect 26 0 27 0;
#X connect 27 0 8 0;
#X connect 27 0 8 1;
#X connect 28 0 27 1;
#X connect 29 0 30 0;
#X connect 30 0 31 0;
#X connect 31 0 8 0;
#X connect 31 0 8 1;
#X connect 32 0 31 1;
#X connect 33 0 34 0;
#X connect 34 0 35 0;
#X connect 35 0 8 0;
#X connect 35 0 8 1;
#X connect 36 0 35 1;
#X connect 37 0 38 0;
#X connect 38 0 39 0;
#X connect 39 0 8 0;
#X connect 39 0 8 1;
#X connect 40 0 39 1;
#X connect 41 0 42 0;
#X connect 42 0 43 0;
#X connect 43 0 8 0;
#X connect 43 0 8 1;
#X connect 44 0 43 1;
#X connect 45 0 0 0;
#X connect 46 0 4 0;
#X connect 47 0 9 0;
#X connect 48 0 13 0;
#X connect 49 0 17 0;
#X connect 50 0 21 0;
#X connect 51 0 25 0;
#X connect 52 0 29 0;
#X connect 53 0 33 0;
#X connect 54 0 37 0;
#X connect 55 0 25 0;
#X connect 56 0 29 0;
#X connect 57 0 33 0;
#X connect 58 0 37 0;
#X connect 59 0 4 0;
#X connect 60 0 9 0;
#X connect 61 0 13 0;
#X connect 62 0 17 0;
#X connect 63 0 21 0;
#X connect 64 0 41 0;
#X connect 65 0 0 0;
#X connect 66 0 17 0;
