#N canvas -1 2 1366 685 10;
#X obj 192 11 cnv 15 1450 1100 empty empty empty 20 12 0 14 -13381
-66577 0;
#N canvas -167 55 1366 684 onouts 0;
#X obj 99 487 dac~;
#X obj 15 445 *~;
#X obj 216 442 *~;
#X obj 36 119 r $_master;
#X obj -309 340 *~;
#X obj -276 339 *~;
#X obj -212 345 r $_sieks;
#X obj -341 263 r~ synth3L;
#X obj -270 263 r~ synth3R;
#X obj -342 241 r~ synth4L;
#X obj -341 216 r~ synth5L;
#X obj -343 193 r~ synth6L;
#X obj -344 173 r~ synth7L;
#X obj -273 173 r~ synth7R;
#X obj -272 193 r~ synth6R;
#X obj -270 216 r~ synth5R;
#X obj -269 240 r~ synth4R;
#X obj -346 152 r~ synth8L;
#X obj -275 152 r~ synth8R;
#X connect 1 0 0 0;
#X connect 2 0 0 1;
#X connect 3 0 1 1;
#X connect 3 0 2 1;
#X connect 4 0 1 0;
#X connect 5 0 2 0;
#X connect 6 0 5 1;
#X connect 6 0 4 1;
#X connect 7 0 4 0;
#X connect 8 0 5 0;
#X connect 9 0 4 0;
#X connect 10 0 4 0;
#X connect 11 0 4 0;
#X connect 12 0 4 0;
#X connect 13 0 5 0;
#X connect 14 0 5 0;
#X connect 15 0 5 0;
#X connect 16 0 5 0;
#X connect 17 0 4 0;
#X connect 18 0 5 0;
#X restore 1037 317 pd onouts;
#X obj 206 28 hsl 210 40 0 1 0 0 $_master empty master -2 -8 0 10 -4034
-1 -1 0 1;
#X obj 205 84 vsl 40 195 0 1 0 0 $_sieks empty Seqs 0 -9 0 10 -260097
-1 -1 0 1;
#X text 797 801 F;
#X obj 271 873 s~ synth3L;
#X obj 340 874 s~ synth3R;
#X obj 211 533 polywavesynth 32 1;
#X obj 502 880 s~ synth4L;
#X obj 571 881 s~ synth4R;
#X obj 745 878 s~ synth5L;
#X obj 814 879 s~ synth5R;
#X obj 976 876 s~ synth6L;
#X obj 1045 877 s~ synth6R;
#X obj 1216 874 s~ synth7L;
#X obj 1284 872 s~ synth7R;
#X obj 1457 874 s~ synth8L;
#X obj 1527 874 s~ synth8R;
#X obj 210 838 r tempre;
#X obj 445 848 r tempre;
#X obj 680 842 r tempre;
#X obj 922 841 r tempre;
#X obj 1159 841 r tempre;
#X msg 1158 820 18.4;
#X obj 1391 846 r tempre;
#X msg 1389 827 9.2;
#X msg 921 820 73.6;
#X msg 680 820 147.2;
#X msg 444 827 294.4;
#X msg 209 817 588.8;
#X obj 977 815 trem;
#X obj 909 387 seqCtl2;
#X obj 909 371 dlygenlongernamesame;
#N canvas 251 269 450 300 cleanwhitebox 0;
#N canvas 378 188 854 434 polycontrol 0;
#X obj 591 135 notein;
#X obj 495 195 mtof;
#X obj 583 243 / 127;
#X obj 696 226 r \$0-OSC;
#X obj 442 192 s slope;
#X obj 412 210 r slide;
#X obj 461 213 mtof;
#X obj 495 218 spigot;
#X obj 539 218 r thru;
#X obj 583 194 r div;
#X obj 538 238 tgl 15 0 empty empty empty 17 7 0 10 -262144 -1 -1 0
-1;
#X obj 429 286 outlet;
#X obj 545 295 outlet;
#X obj 606 297 outlet;
#X obj 496 142 r fakenote1;
#X obj 495 112 r fakevel1;
#X obj 489 47 r fakenoteoff1;
#X obj 295 237 r panicc;
#X obj 218 151 r trigsynthon;
#X obj 301 117 r trigsynthoff;
#X obj 425 60 r durr;
#X obj 246 28 inlet;
#X floatatom 410 327 5 0 0 0 - - -, f 5;
#X obj 491 338 outlet;
#X obj 630 48 inlet;
#X obj 366 31 inlet;
#X obj 327 82 makenote 127 150;
#X connect 1 0 7 0;
#X connect 2 0 12 0;
#X connect 3 0 13 0;
#X connect 5 0 6 0;
#X connect 6 0 11 0;
#X connect 7 0 11 0;
#X connect 8 0 10 0;
#X connect 9 0 2 0;
#X connect 10 0 7 1;
#X connect 14 0 1 0;
#X connect 15 0 2 0;
#X connect 16 0 1 0;
#X connect 17 0 11 0;
#X connect 17 0 12 0;
#X connect 18 0 1 0;
#X connect 19 0 2 0;
#X connect 20 0 26 2;
#X connect 21 0 26 0;
#X connect 24 0 26 2;
#X connect 25 0 26 1;
#X connect 26 0 11 0;
#X connect 26 0 22 0;
#X connect 26 1 2 0;
#X connect 26 1 23 0;
#X restore 35 203 pd polycontrol;
#X obj 36 182 mtof;
#X obj 77 180 r durc1;
#X obj 6 153 r 8seq1;
#X obj 62 153 r 8seq2;
#X obj 190 200 r $_qqq;
#X obj 190 222 outlet;
#X obj 134 201 r $_rogo;
#X obj 134 223 outlet;
#X obj 90 224 outlet;
#X obj 34 225 outlet;
#X connect 0 0 10 0;
#X connect 0 1 9 0;
#X connect 1 0 0 0;
#X connect 2 0 0 2;
#X connect 3 0 1 0;
#X connect 4 0 0 1;
#X connect 5 0 6 0;
#X connect 7 0 8 0;
#X restore 200 355 pd cleanwhitebox;
#X obj 1102 317 6Sequencers_June_Individual_Revision;
#N canvas 251 269 450 300 cleanwhitebox 0;
#N canvas 378 188 854 434 polycontrol 0;
#X obj 591 135 notein;
#X obj 495 195 mtof;
#X obj 583 243 / 127;
#X obj 696 226 r \$0-OSC;
#X obj 442 192 s slope;
#X obj 412 210 r slide;
#X obj 461 213 mtof;
#X obj 495 218 spigot;
#X obj 539 218 r thru;
#X obj 583 194 r div;
#X obj 538 238 tgl 15 0 empty empty empty 17 7 0 10 -262144 -1 -1 0
-1;
#X obj 429 286 outlet;
#X obj 545 295 outlet;
#X obj 606 297 outlet;
#X obj 496 142 r fakenote1;
#X obj 495 112 r fakevel1;
#X obj 489 47 r fakenoteoff1;
#X obj 295 237 r panicc;
#X obj 218 151 r trigsynthon;
#X obj 301 117 r trigsynthoff;
#X obj 425 60 r durr;
#X obj 246 28 inlet;
#X floatatom 410 327 5 0 0 0 - - -, f 5;
#X obj 491 338 outlet;
#X obj 630 48 inlet;
#X obj 366 31 inlet;
#X obj 327 82 makenote 127 150;
#X connect 1 0 7 0;
#X connect 2 0 12 0;
#X connect 3 0 13 0;
#X connect 5 0 6 0;
#X connect 6 0 11 0;
#X connect 7 0 11 0;
#X connect 8 0 10 0;
#X connect 9 0 2 0;
#X connect 10 0 7 1;
#X connect 14 0 1 0;
#X connect 15 0 2 0;
#X connect 16 0 1 0;
#X connect 17 0 11 0;
#X connect 17 0 12 0;
#X connect 18 0 1 0;
#X connect 19 0 2 0;
#X connect 20 0 26 2;
#X connect 21 0 26 0;
#X connect 24 0 26 2;
#X connect 25 0 26 1;
#X connect 26 0 11 0;
#X connect 26 0 22 0;
#X connect 26 1 2 0;
#X connect 26 1 23 0;
#X restore 35 203 pd polycontrol;
#X obj 36 182 mtof;
#X obj 190 200 r $_qqq;
#X obj 190 222 outlet;
#X obj 134 201 r $_rogo;
#X obj 134 223 outlet;
#X obj 90 224 outlet;
#X obj 34 225 outlet;
#X obj 6 153 r 8seq3;
#X obj 62 153 r 8seq4;
#X obj 77 180 r durc2;
#X connect 0 0 7 0;
#X connect 0 1 6 0;
#X connect 1 0 0 0;
#X connect 2 0 3 0;
#X connect 4 0 5 0;
#X connect 8 0 1 0;
#X connect 9 0 0 1;
#X connect 10 0 0 2;
#X restore 434 357 pd cleanwhitebox;
#N canvas 251 269 450 300 cleanwhitebox 0;
#N canvas 378 188 854 434 polycontrol 0;
#X obj 591 135 notein;
#X obj 495 195 mtof;
#X obj 583 243 / 127;
#X obj 696 226 r \$0-OSC;
#X obj 442 192 s slope;
#X obj 412 210 r slide;
#X obj 461 213 mtof;
#X obj 495 218 spigot;
#X obj 539 218 r thru;
#X obj 583 194 r div;
#X obj 538 238 tgl 15 0 empty empty empty 17 7 0 10 -262144 -1 -1 0
-1;
#X obj 429 286 outlet;
#X obj 545 295 outlet;
#X obj 606 297 outlet;
#X obj 496 142 r fakenote1;
#X obj 495 112 r fakevel1;
#X obj 489 47 r fakenoteoff1;
#X obj 295 237 r panicc;
#X obj 218 151 r trigsynthon;
#X obj 301 117 r trigsynthoff;
#X obj 425 60 r durr;
#X obj 246 28 inlet;
#X floatatom 410 327 5 0 0 0 - - -, f 5;
#X obj 491 338 outlet;
#X obj 630 48 inlet;
#X obj 366 31 inlet;
#X obj 327 82 makenote 127 150;
#X connect 1 0 7 0;
#X connect 2 0 12 0;
#X connect 3 0 13 0;
#X connect 5 0 6 0;
#X connect 6 0 11 0;
#X connect 7 0 11 0;
#X connect 8 0 10 0;
#X connect 9 0 2 0;
#X connect 10 0 7 1;
#X connect 14 0 1 0;
#X connect 15 0 2 0;
#X connect 16 0 1 0;
#X connect 17 0 11 0;
#X connect 17 0 12 0;
#X connect 18 0 1 0;
#X connect 19 0 2 0;
#X connect 20 0 26 2;
#X connect 21 0 26 0;
#X connect 24 0 26 2;
#X connect 25 0 26 1;
#X connect 26 0 11 0;
#X connect 26 0 22 0;
#X connect 26 1 2 0;
#X connect 26 1 23 0;
#X restore 35 203 pd polycontrol;
#X obj 36 182 mtof;
#X obj 190 200 r $_qqq;
#X obj 190 222 outlet;
#X obj 134 201 r $_rogo;
#X obj 134 223 outlet;
#X obj 90 224 outlet;
#X obj 34 225 outlet;
#X obj 6 153 r 8seq9;
#X obj 62 153 r 8seq10;
#X obj 77 180 r durc5;
#X connect 0 0 7 0;
#X connect 0 1 6 0;
#X connect 1 0 0 0;
#X connect 2 0 3 0;
#X connect 4 0 5 0;
#X connect 8 0 1 0;
#X connect 9 0 0 1;
#X connect 10 0 0 2;
#X restore 1148 352 pd cleanwhitebox;
#N canvas 251 269 450 300 cleanwhitebox 0;
#N canvas 378 188 854 434 polycontrol 0;
#X obj 591 135 notein;
#X obj 495 195 mtof;
#X obj 583 243 / 127;
#X obj 696 226 r \$0-OSC;
#X obj 442 192 s slope;
#X obj 412 210 r slide;
#X obj 461 213 mtof;
#X obj 495 218 spigot;
#X obj 539 218 r thru;
#X obj 583 194 r div;
#X obj 538 238 tgl 15 0 empty empty empty 17 7 0 10 -262144 -1 -1 0
-1;
#X obj 429 286 outlet;
#X obj 545 295 outlet;
#X obj 606 297 outlet;
#X obj 496 142 r fakenote1;
#X obj 495 112 r fakevel1;
#X obj 489 47 r fakenoteoff1;
#X obj 295 237 r panicc;
#X obj 218 151 r trigsynthon;
#X obj 301 117 r trigsynthoff;
#X obj 425 60 r durr;
#X obj 246 28 inlet;
#X floatatom 410 327 5 0 0 0 - - -, f 5;
#X obj 491 338 outlet;
#X obj 630 48 inlet;
#X obj 366 31 inlet;
#X obj 327 82 makenote 127 150;
#X connect 1 0 7 0;
#X connect 2 0 12 0;
#X connect 3 0 13 0;
#X connect 5 0 6 0;
#X connect 6 0 11 0;
#X connect 7 0 11 0;
#X connect 8 0 10 0;
#X connect 9 0 2 0;
#X connect 10 0 7 1;
#X connect 14 0 1 0;
#X connect 15 0 2 0;
#X connect 16 0 1 0;
#X connect 17 0 11 0;
#X connect 17 0 12 0;
#X connect 18 0 1 0;
#X connect 19 0 2 0;
#X connect 20 0 26 2;
#X connect 21 0 26 0;
#X connect 24 0 26 2;
#X connect 25 0 26 1;
#X connect 26 0 11 0;
#X connect 26 0 22 0;
#X connect 26 1 2 0;
#X connect 26 1 23 0;
#X restore 35 203 pd polycontrol;
#X obj 36 182 mtof;
#X obj 190 200 r $_qqq;
#X obj 190 222 outlet;
#X obj 134 201 r $_rogo;
#X obj 134 223 outlet;
#X obj 90 224 outlet;
#X obj 34 225 outlet;
#X obj 6 153 r 8seq11;
#X obj 62 153 r 8seq12;
#X obj 77 180 r durc6;
#X connect 0 0 7 0;
#X connect 0 1 6 0;
#X connect 1 0 0 0;
#X connect 2 0 3 0;
#X connect 4 0 5 0;
#X connect 8 0 1 0;
#X connect 9 0 0 1;
#X connect 10 0 0 2;
#X restore 1382 352 pd cleanwhitebox;
#N canvas 251 269 450 300 cleanwhitebox 0;
#N canvas 378 188 854 434 polycontrol 0;
#X obj 591 135 notein;
#X obj 495 195 mtof;
#X obj 583 243 / 127;
#X obj 696 226 r \$0-OSC;
#X obj 442 192 s slope;
#X obj 412 210 r slide;
#X obj 461 213 mtof;
#X obj 495 218 spigot;
#X obj 539 218 r thru;
#X obj 583 194 r div;
#X obj 538 238 tgl 15 0 empty empty empty 17 7 0 10 -262144 -1 -1 0
-1;
#X obj 429 286 outlet;
#X obj 545 295 outlet;
#X obj 606 297 outlet;
#X obj 496 142 r fakenote1;
#X obj 495 112 r fakevel1;
#X obj 489 47 r fakenoteoff1;
#X obj 295 237 r panicc;
#X obj 218 151 r trigsynthon;
#X obj 301 117 r trigsynthoff;
#X obj 425 60 r durr;
#X obj 246 28 inlet;
#X floatatom 410 327 5 0 0 0 - - -, f 5;
#X obj 491 338 outlet;
#X obj 630 48 inlet;
#X obj 366 31 inlet;
#X obj 327 82 makenote 127 150;
#X connect 1 0 7 0;
#X connect 2 0 12 0;
#X connect 3 0 13 0;
#X connect 5 0 6 0;
#X connect 6 0 11 0;
#X connect 7 0 11 0;
#X connect 8 0 10 0;
#X connect 9 0 2 0;
#X connect 10 0 7 1;
#X connect 14 0 1 0;
#X connect 15 0 2 0;
#X connect 16 0 1 0;
#X connect 17 0 11 0;
#X connect 17 0 12 0;
#X connect 18 0 1 0;
#X connect 19 0 2 0;
#X connect 20 0 26 2;
#X connect 21 0 26 0;
#X connect 24 0 26 2;
#X connect 25 0 26 1;
#X connect 26 0 11 0;
#X connect 26 0 22 0;
#X connect 26 1 2 0;
#X connect 26 1 23 0;
#X restore 35 203 pd polycontrol;
#X obj 36 182 mtof;
#X obj 190 200 r $_qqq;
#X obj 190 222 outlet;
#X obj 134 201 r $_rogo;
#X obj 134 223 outlet;
#X obj 90 224 outlet;
#X obj 34 225 outlet;
#X obj 6 153 r 8seq5;
#X obj 62 153 r 8seq6;
#X obj 77 180 r durc3;
#X connect 0 0 7 0;
#X connect 0 1 6 0;
#X connect 1 0 0 0;
#X connect 2 0 3 0;
#X connect 4 0 5 0;
#X connect 8 0 1 0;
#X connect 9 0 0 1;
#X connect 10 0 0 2;
#X restore 673 358 pd cleanwhitebox;
#N canvas 331 160 450 300 cleanwhitebox 0;
#N canvas 378 188 854 434 polycontrol 0;
#X obj 591 135 notein;
#X obj 495 195 mtof;
#X obj 583 243 / 127;
#X obj 696 226 r \$0-OSC;
#X obj 442 192 s slope;
#X obj 412 210 r slide;
#X obj 461 213 mtof;
#X obj 495 218 spigot;
#X obj 539 218 r thru;
#X obj 583 194 r div;
#X obj 538 238 tgl 15 0 empty empty empty 17 7 0 10 -262144 -1 -1 0
-1;
#X obj 429 286 outlet;
#X obj 545 295 outlet;
#X obj 606 297 outlet;
#X obj 496 142 r fakenote1;
#X obj 495 112 r fakevel1;
#X obj 489 47 r fakenoteoff1;
#X obj 295 237 r panicc;
#X obj 218 151 r trigsynthon;
#X obj 301 117 r trigsynthoff;
#X obj 425 60 r durr;
#X obj 246 28 inlet;
#X floatatom 410 327 5 0 0 0 - - -, f 5;
#X obj 491 338 outlet;
#X obj 630 48 inlet;
#X obj 366 31 inlet;
#X obj 327 82 makenote 127 150;
#X connect 1 0 7 0;
#X connect 2 0 12 0;
#X connect 3 0 13 0;
#X connect 5 0 6 0;
#X connect 6 0 11 0;
#X connect 7 0 11 0;
#X connect 8 0 10 0;
#X connect 9 0 2 0;
#X connect 10 0 7 1;
#X connect 14 0 1 0;
#X connect 15 0 2 0;
#X connect 16 0 1 0;
#X connect 17 0 11 0;
#X connect 17 0 12 0;
#X connect 18 0 1 0;
#X connect 19 0 2 0;
#X connect 20 0 26 2;
#X connect 21 0 26 0;
#X connect 24 0 26 2;
#X connect 25 0 26 1;
#X connect 26 0 11 0;
#X connect 26 0 22 0;
#X connect 26 1 2 0;
#X connect 26 1 23 0;
#X restore 35 203 pd polycontrol;
#X obj 36 182 mtof;
#X obj 190 200 r $_qqq;
#X obj 190 222 outlet;
#X obj 134 201 r $_rogo;
#X obj 134 223 outlet;
#X obj 90 224 outlet;
#X obj 34 225 outlet;
#X obj 6 153 r 8seq7;
#X obj 62 153 r 8seq8;
#X obj 77 180 r durc4;
#X connect 0 0 7 0;
#X connect 0 1 6 0;
#X connect 1 0 0 0;
#X connect 2 0 3 0;
#X connect 4 0 5 0;
#X connect 8 0 1 0;
#X connect 9 0 0 1;
#X connect 10 0 0 2;
#X restore 909 354 pd cleanwhitebox;
#X obj 1382 369 dlygenlongernamesame;
#X obj 434 374 dlygenlongernamesame;
#X obj 200 371 dlygenlongernamesame;
#X obj 673 374 dlygenlongernamesame;
#X obj 1148 369 dlygenlongernamesame;
#X obj 434 391 seqCtl2;
#X obj 200 388 seqCtl2;
#X obj 673 390 seqCtl2;
#X obj 1148 386 seqCtl2;
#X obj 1382 385 seqCtl2;
#X obj 420 -50 r prehabitat;
#X obj 420 -28 delay 50;
#X obj 420 -7 s prepoly;
#X msg 256 8 0.6;
#X obj 1302 370 6xrandodelay;
#X obj 354 372 6xrandodelay;
#X obj 588 375 6xrandodelay;
#X obj 827 374 6xrandodelay;
#X obj 1063 371 6xrandodelay;
#X obj 1536 369 6xrandodelay;
#X obj 267 814 trem;
#X obj 501 821 trem;
#X obj 744 817 trem;
#X obj 1215 812 trem;
#X obj 1456 814 trem;
#X obj 453 537 polywavesynth 32 1;
#X obj 679 530 polywavesynth 32 1;
#X obj 911 529 polywavesynth 32 1;
#X obj 1150 528 polywavesynth 32 1;
#X obj 1390 529 polywavesynth 32 1;
#X obj 421 14 controlMonitoringmoduleinnit;
#X obj 589 359 stratifier;
#X obj 355 355 stratifier;
#X obj 828 358 stratifier;
#X obj 1302 353 stratifier;
#X obj 1063 354 stratifier;
#X obj 1537 352 stratifier;
#X obj 256 -8 r ding;
#X connect 7 0 60 0;
#X connect 7 1 60 1;
#X connect 18 0 29 0;
#X connect 19 0 28 0;
#X connect 20 0 27 0;
#X connect 21 0 26 0;
#X connect 22 0 23 0;
#X connect 23 0 63 2;
#X connect 24 0 25 0;
#X connect 25 0 64 2;
#X connect 26 0 30 2;
#X connect 27 0 62 2;
#X connect 28 0 61 2;
#X connect 29 0 60 2;
#X connect 30 0 12 0;
#X connect 30 1 13 0;
#X connect 31 0 67 5;
#X connect 31 1 67 6;
#X connect 31 2 67 12;
#X connect 31 3 67 13;
#X connect 31 4 67 14;
#X connect 31 5 67 15;
#X connect 31 6 67 15;
#X connect 32 0 31 0;
#X connect 32 1 31 2;
#X connect 32 2 31 3;
#X connect 32 3 31 5;
#X connect 32 4 31 6;
#X connect 32 5 31 8;
#X connect 32 7 67 14;
#X connect 32 8 67 15;
#X connect 33 0 7 0;
#X connect 33 1 7 1;
#X connect 33 2 42 0;
#X connect 33 3 42 1;
#X connect 35 0 65 0;
#X connect 35 1 65 1;
#X connect 35 2 41 0;
#X connect 35 3 41 1;
#X connect 36 0 68 0;
#X connect 36 1 68 1;
#X connect 36 2 44 0;
#X connect 36 3 44 1;
#X connect 37 0 69 0;
#X connect 37 1 69 1;
#X connect 37 2 40 0;
#X connect 37 3 40 1;
#X connect 38 0 66 0;
#X connect 38 1 66 1;
#X connect 38 2 43 0;
#X connect 38 3 43 1;
#X connect 39 0 67 0;
#X connect 39 1 67 1;
#X connect 39 2 32 0;
#X connect 39 3 32 1;
#X connect 40 0 49 0;
#X connect 40 1 49 2;
#X connect 40 2 49 3;
#X connect 40 3 49 5;
#X connect 40 4 49 6;
#X connect 40 5 49 8;
#X connect 40 7 69 14;
#X connect 40 8 69 15;
#X connect 41 0 45 0;
#X connect 41 1 45 2;
#X connect 41 2 45 3;
#X connect 41 3 45 5;
#X connect 41 4 45 6;
#X connect 41 5 45 8;
#X connect 41 7 65 14;
#X connect 41 8 65 15;
#X connect 42 0 46 0;
#X connect 42 1 46 2;
#X connect 42 2 46 3;
#X connect 42 3 46 5;
#X connect 42 4 46 6;
#X connect 42 5 46 8;
#X connect 42 7 7 14;
#X connect 42 8 7 15;
#X connect 43 0 47 0;
#X connect 43 1 47 2;
#X connect 43 2 47 3;
#X connect 43 3 47 5;
#X connect 43 4 47 6;
#X connect 43 5 47 8;
#X connect 43 7 66 14;
#X connect 43 8 66 15;
#X connect 44 0 48 0;
#X connect 44 1 48 2;
#X connect 44 2 48 3;
#X connect 44 3 48 5;
#X connect 44 4 48 6;
#X connect 44 5 48 8;
#X connect 44 7 68 14;
#X connect 44 8 68 15;
#X connect 45 0 65 5;
#X connect 45 1 65 6;
#X connect 45 2 65 12;
#X connect 45 3 65 13;
#X connect 45 4 65 14;
#X connect 45 5 65 15;
#X connect 45 6 65 15;
#X connect 46 0 7 5;
#X connect 46 1 7 6;
#X connect 46 2 7 12;
#X connect 46 3 7 13;
#X connect 46 4 7 14;
#X connect 46 5 7 15;
#X connect 46 6 7 15;
#X connect 47 0 66 5;
#X connect 47 1 66 6;
#X connect 47 2 66 12;
#X connect 47 3 66 13;
#X connect 47 4 66 14;
#X connect 47 5 66 15;
#X connect 47 6 66 15;
#X connect 48 0 68 5;
#X connect 48 1 68 6;
#X connect 48 2 68 12;
#X connect 48 3 68 13;
#X connect 48 4 68 14;
#X connect 48 5 68 15;
#X connect 48 6 68 15;
#X connect 49 0 69 5;
#X connect 49 1 69 6;
#X connect 49 2 69 12;
#X connect 49 3 69 13;
#X connect 49 4 69 14;
#X connect 49 5 69 15;
#X connect 49 6 69 15;
#X connect 50 0 51 0;
#X connect 50 0 53 0;
#X connect 50 0 70 0;
#X connect 51 0 52 0;
#X connect 53 0 2 0;
#X connect 54 0 48 0;
#X connect 54 1 48 2;
#X connect 54 2 48 3;
#X connect 54 3 48 5;
#X connect 54 4 48 6;
#X connect 54 5 48 8;
#X connect 55 0 46 0;
#X connect 55 1 46 2;
#X connect 55 2 46 3;
#X connect 55 3 46 5;
#X connect 55 4 46 6;
#X connect 55 5 46 8;
#X connect 56 0 45 0;
#X connect 56 1 45 2;
#X connect 56 2 45 3;
#X connect 56 3 45 5;
#X connect 56 4 45 6;
#X connect 56 5 45 8;
#X connect 57 0 47 0;
#X connect 57 1 47 2;
#X connect 57 2 47 3;
#X connect 57 3 47 5;
#X connect 57 4 47 6;
#X connect 57 5 47 8;
#X connect 58 0 31 0;
#X connect 58 1 31 2;
#X connect 58 2 31 3;
#X connect 58 3 31 5;
#X connect 58 4 31 6;
#X connect 58 5 31 8;
#X connect 59 0 49 0;
#X connect 59 1 49 2;
#X connect 59 2 49 3;
#X connect 59 3 49 5;
#X connect 59 4 49 6;
#X connect 59 5 49 8;
#X connect 60 0 5 0;
#X connect 60 1 6 0;
#X connect 61 0 8 0;
#X connect 61 1 9 0;
#X connect 62 0 10 0;
#X connect 62 1 11 0;
#X connect 63 0 14 0;
#X connect 63 1 15 0;
#X connect 64 0 16 0;
#X connect 64 1 17 0;
#X connect 65 0 61 0;
#X connect 65 1 61 1;
#X connect 66 0 62 0;
#X connect 66 1 62 1;
#X connect 67 0 30 0;
#X connect 67 1 30 1;
#X connect 68 0 63 0;
#X connect 68 1 63 1;
#X connect 69 0 64 0;
#X connect 69 1 64 1;
#X connect 71 0 45 6;
#X connect 71 1 45 8;
#X connect 72 0 46 6;
#X connect 72 1 46 8;
#X connect 73 0 47 6;
#X connect 73 1 47 8;
#X connect 73 2 47 10;
#X connect 74 0 48 6;
#X connect 74 1 48 8;
#X connect 74 2 48 10;
#X connect 75 0 31 6;
#X connect 75 1 31 8;
#X connect 75 2 31 10;
#X connect 76 0 49 6;
#X connect 76 1 49 8;
#X connect 77 0 53 0;
