#N canvas 0 0 450 300 10;
#X declare -lib mrpeach;
#X obj 73 59 Polywavesynthnomidi;
#X obj 336 268 dac~;
#X floatatom 327 73 5 0 0 0 - - -;
#X obj 330 98 ftom;
#X floatatom 355 164 5 0 0 0 - - -;
#X obj 340 36 makenote 3.2 100;
#X obj 349 185 osc~;
#N canvas 310 14 854 434 polycontrol 0;
#X obj 591 135 notein;
#X obj 495 195 mtof;
#X obj 583 243 / 127;
#X obj 696 226 r \$0-OSC;
#X obj 442 192 s slope;
#X obj 412 210 r slide;
#X obj 461 213 mtof;
#X obj 495 218 spigot;
#X obj 539 218 r thru;
#X obj 583 194 r div;
#X obj 538 238 tgl 15 0 empty empty empty 17 7 0 10 -262144 -1 -1 0
-1;
#X obj 429 286 outlet;
#X obj 504 288 outlet;
#X obj 606 297 outlet;
#X obj 496 142 r fakenote1;
#X obj 495 112 r fakevel1;
#X obj 489 47 r fakenoteoff1;
#X obj 295 237 r panicc;
#X obj 218 151 r trigsynthon;
#X obj 301 117 r trigsynthoff;
#X floatatom 270 83 5 0 0 0 - - -;
#X obj 327 82 makenote 127 500;
#X obj 425 60 r durr;
#X obj 363 23 inlet;
#X connect 0 0 1 0;
#X connect 0 1 2 0;
#X connect 1 0 7 0;
#X connect 2 0 12 0;
#X connect 3 0 13 0;
#X connect 5 0 6 0;
#X connect 6 0 11 0;
#X connect 7 0 11 0;
#X connect 8 0 10 0;
#X connect 9 0 2 0;
#X connect 10 0 7 1;
#X connect 14 0 1 0;
#X connect 15 0 2 0;
#X connect 16 0 1 0;
#X connect 17 0 11 0;
#X connect 17 0 12 0;
#X connect 18 0 1 0;
#X connect 19 0 2 0;
#X connect 21 0 11 0;
#X connect 21 1 2 0;
#X connect 22 0 21 2;
#X connect 23 0 21 0;
#X restore 142 28 pd polycontrol;
#X connect 0 0 1 0;
#X connect 0 1 1 1;
#X connect 2 0 3 0;
#X connect 2 0 7 0;
#X connect 3 0 5 0;
#X connect 4 0 6 0;
#X connect 5 0 4 0;
#X connect 7 0 0 0;
#X connect 7 1 0 1;
#X connect 7 2 0 3;
