#N canvas 580 -8 886 681 10;
#X declare -lib mrpeach;
#X declare -lib cyclone;
#X declare -lib cyclone;
#X declare -lib cyclone;
#X declare -lib cyclone;
#X declare -lib cyclone;
#X declare -lib cyclone;
#X declare -lib cyclone;
#X declare -lib cyclone;
#X declare -lib cyclone;
#X declare -lib cyclone;
#X declare -lib cyclone;
#X declare -lib cyclone;
#X declare -lib cyclone;
#X declare -lib cyclone;
#X declare -lib cyclone;
#X declare -lib cyclone;
#X declare -lib cyclone;
#X declare -lib cyclone;
#X declare -lib cyclone;
#X declare -lib cyclone;
#X declare -lib cyclone;
#X declare -lib cyclone;
#X declare -lib cyclone;
#X declare -lib cyclone;
#X declare -lib cyclone;
#X declare -lib cyclone;
#X declare -lib cyclone;
#X declare -lib cyclone;
#X declare -lib cyclone;
#X declare -lib cyclone;
#X declare -lib cyclone;
#X declare -lib cyclone;
#X obj 4 524 lib/lb_singleton ETABLES erbe_tables;
#X obj 8 8 cnv 15 74 77 empty empty empty 20 12 0 14 -187454 -66577
0;
#X obj 12 8 vradio 11 1 1 6 \$0-cWavetype \$0-r-cWavetype Carrier 8
72 0 9 -355 -241291 -1 3;
#X text 24 5 sine;
#X text 23 16 square;
#X text 23 27 ramp;
#X text 23 38 pulse;
#X text 22 50 triangle;
#X obj 47 204 vsl 10 40 1 5000 1 1 \$0-rel \$0-r-rel R 4 48 0 8 -258113
-1 -1 2500 1;
#X obj 8 204 vsl 10 40 1 2000 0 1 \$0-atk \$0-r-atk A 4 48 0 8 -258113
-1 -1 455 1;
#X obj 11 106 hsl 128 15 0 1 0 1 \$0-modAmp \$0-r-modAmp modAmp 4 9
0 8 -190976 -1 -1 5400 0;
#X obj 11 142 hsl 128 15 0 2 0 1 \$0-fltQ \$0-r-fltQ Q 4 9 0 8 -138752
-1 -1 2540 1;
#X obj 11 124 hsl 128 15 1 10000 0 1 \$0-fltFreq \$0-r-fltFreq filter_freq.
4 9 0 8 -138752 -1 -1 6469 0;
#X text 23 61 noise;
#X floatatom 149 124 6 0 0 0 - - -;
#X floatatom 149 141 5 0 0 0 - - -;
#X obj 47 447 random 100;
#X obj 47 468 / 100;
#X obj 323 167 r \$0-amp;
#X obj 372 340 r \$0-rel;
#X obj 238 590 outlet~;
#X obj 451 589 outlet~;
#X obj 238 443 pack f f;
#X obj 372 320 r \$0-sus;
#X obj 372 300 r \$0-dec;
#X obj 34 204 vsl 10 40 1 100 0 1 \$0-sus \$0-r-sus S 4 48 0 8 -258113
-1 -1 2400 1;
#X obj 21 204 vsl 10 40 1 9999 0 1 \$0-dec \$0-r-dec D 4 48 0 8 -258113
-1 -1 2100 1;
#X obj 380 253 r \$0-atk;
#X obj 47 404 spigot;
#X obj 153 207 nbx 4 14 2 9999 0 1 \$0-panRate \$0-r-panRate pan_rate
0 -6 0 9 -204786 -1 -1 85 256;
#X obj 451 476 bng 15 250 50 0 \$0-reset empty reset 18 4 0 8 -262144
-1 -1;
#X obj 451 500 f \$2;
#X obj 229 106 r \$0-freq;
#X obj 365 279 f;
#X obj 93 8 cnv 15 74 77 empty empty empty 20 12 0 14 -187454 -66577
0;
#X obj 95 8 vradio 11 1 1 6 \$0-mWavetype \$0-r-mWavetype Modulator
8 72 0 9 -355 -241291 -1 3;
#X text 109 5 sine;
#X text 108 16 square;
#X text 108 27 ramp;
#X text 108 38 pulse;
#X text 107 50 triangle;
#X text 108 61 noise;
#X obj 178 17 vsl 15 64 1e-005 24 1 1 \$0-gain \$0-r-gain gain 0 -8
0 8 -35665 -1 -1 4400 1;
#X obj 8 185 nbx 1 14 0 9 0 1 \$0-envExp \$0-r-envExp curve 21 6 0
10 -261630 -1 -1 0 256;
#X obj 105 204 vsl 10 40 1 5000 0 1 \$0-fltRel \$0-r-fltRel R 4 48
0 8 -258113 -1 -1 3510 1;
#X obj 66 204 vsl 10 40 1 5000 0 1 \$0-fltAtk \$0-r-fltAtk A 4 48 0
8 -258113 -1 -1 389 1;
#X obj 92 204 vsl 10 40 0 100 0 1 \$0-fltSus \$0-r-fltSus S 4 48 0
8 -258113 -1 -1 3315 1;
#X obj 79 204 vsl 10 40 1 9999 0 1 \$0-fltDec \$0-r-fltDec D 4 48 0
8 -258113 -1 -1 2730 1;
#X obj 66 185 nbx 1 14 0 9 0 1 \$0-fltEnvExp \$0-r-fltEnvExp curve
21 6 0 10 -261630 -1 -1 0 256;
#X text 2 171 amp. env.;
#X obj 373 362 r \$0-envExp;
#X obj 446 303 r \$0-fltAtk;
#X obj 446 324 r \$0-fltDec;
#X obj 446 345 r \$0-fltSus;
#X obj 446 366 r \$0-fltRel;
#X obj 447 386 r \$0-fltEnvExp;
#X obj 149 106 tgl 15 1 \$0-ratio \$0-r-ratio ratio 18 6 0 10 -190976
-1 -1 1 1;
#X obj 139 259 nbx 5 14 -9999 9999 0 1 \$0-detune \$0-r-detune detune
0 -6 0 10 -232576 -1 -1 0 256;
#X floatatom 149 88 6 0 0 0 - #0-modFreq -;
#X floatatom 53 256 5 0 0 1 lastKnob - -;
#X obj 139 214 vradio 10 1 1 2 \$0-panMode \$0-r-panMode empty 0 -6
0 10 -204786 -1 -1 0;
#X obj 58 348 r \$0-panMode;
#X obj 58 373 == 0;
#X obj 155 232 hsl 40 12 0 1 0 1 \$0-position \$0-r-position position
-2 -6 0 9 -204786 -1 -1 1900 1;
#X obj 47 425 b;
#X text 92 374 random;
#X obj 47 495 s \$0-position;
#X msg 244 519 clear;
#X text 118 221 fix;
#X obj 218 82 inlet freq;
#X obj 316 146 inlet amp;
#X text 2 542 Phil Stone - http://pkstonemusic.com;
#N canvas 405 80 421 274 osc_in 0;
#X msg 259 88 set \$1;
#X obj 259 65 makefilename /%s;
#X obj 259 42 symbol;
#X obj 8 22 import mrpeach;
#X obj 137 122 routeOSC /nothing;
#X obj 115 214 spigot 0;
#X obj 197 214 spigot 1;
#X obj 137 21 inlet;
#X text 175 21 OSC inlet;
#X obj 259 20 inlet;
#X text 298 20 synth name;
#X obj 188 156 inlet;
#X text 225 148 OSC passes;
#X text 226 162 thru GUI?;
#X obj 137 187 == 0;
#X text 248 114 only take msgs. preceded;
#X text 250 129 by this synth's name;
#N canvas 0 22 708 558 oscNoGUI 0;
#X obj 80 474 s \$0-atk;
#X obj 103 451 s \$0-dec;
#X obj 158 475 s \$0-sus;
#X obj 216 475 s \$0-rel;
#X obj 26 525 s \$0-cWavetype;
#X obj 236 453 s \$0-envExp;
#X text 90 280 oscillator;
#X text 266 209 enveloped filter;
#X text 308 143 panning;
#X obj 77 139 s \$0-amp;
#X obj 16 115 routeOSC /freq /amp;
#X obj 296 162 routeOSC /position /speed;
#X obj 26 299 routeOSC /carrier /env /mod;
#X obj 250 272 routeOSC /atk /dec /sus /rel /exp /fampscale;
#X obj 250 229 routeOSC /env /freq /q;
#X obj 26 503 routeOSC /wave /detune;
#X obj 122 526 s \$0-detune;
#X obj 463 109 s \$0-GLOBAL-alloff;
#X obj 579 109 s \$0-GLOBAL-pbend;
#X obj 464 87 routeOSC /allnotesoff /pitchbend;
#X text 475 72 global (all voices always) parameters;
#X obj 16 139 s \$0-freq;
#X obj 338 127 s \$0-r-gain;
#X obj 296 185 s \$0-r-position;
#X obj 393 185 s \$0-r-panRate;
#X obj 168 11 inlet;
#X obj 264 250 s \$0-fltFreq;
#X obj 357 250 s \$0-fltQ;
#X obj 259 296 s \$0-fltDec;
#X obj 250 317 s \$0-fltAtk;
#X obj 351 296 s \$0-fltRel;
#X obj 337 317 s \$0-fltSus;
#X obj 425 317 s \$0-fltEnvExp;
#X obj 467 296 s \$0-fampscale;
#X obj 306 369 s \$0-ratio;
#X obj 249 392 s \$0-modFreqFrac;
#X obj 133 393 s \$0-mWavetype;
#X obj 160 369 s \$0-modAmp;
#X obj 133 344 routeOSC /wave /amount /freq /ratorfreq;
#X obj 80 429 routeOSC /atk /dec /sus /rel /exp;
#X obj 349 105 s \$0-r-ctrlmode;
#X obj 168 42 routeOSC /note /osc /filt /pan /gain /controlmode /enable
/global;
#X obj 388 84 s \$0-r-ena;
#X connect 10 0 21 0;
#X connect 10 1 9 0;
#X connect 11 0 23 0;
#X connect 11 1 24 0;
#X connect 12 0 15 0;
#X connect 12 1 39 0;
#X connect 12 2 38 0;
#X connect 13 0 29 0;
#X connect 13 1 28 0;
#X connect 13 2 31 0;
#X connect 13 3 30 0;
#X connect 13 4 32 0;
#X connect 13 5 33 0;
#X connect 14 0 13 0;
#X connect 14 1 26 0;
#X connect 14 2 27 0;
#X connect 15 0 4 0;
#X connect 15 1 16 0;
#X connect 19 0 17 0;
#X connect 19 1 18 0;
#X connect 25 0 41 0;
#X connect 38 0 36 0;
#X connect 38 1 37 0;
#X connect 38 2 35 0;
#X connect 38 3 34 0;
#X connect 39 0 0 0;
#X connect 39 1 1 0;
#X connect 39 2 2 0;
#X connect 39 3 3 0;
#X connect 39 4 5 0;
#X connect 41 0 10 0;
#X connect 41 1 12 0;
#X connect 41 2 14 0;
#X connect 41 3 11 0;
#X connect 41 4 22 0;
#X connect 41 5 40 0;
#X connect 41 6 42 0;
#X connect 41 7 19 0;
#X restore 115 245 pd oscNoGUI;
#N canvas 408 185 703 544 oscUpdateGUI 0;
#X text 92 270 oscillator;
#X text 265 202 enveloped filter;
#X text 307 136 panning;
#X obj 79 129 s \$0-amp;
#X obj 18 105 routeOSC /freq /amp;
#X obj 298 155 routeOSC /position /speed;
#X obj 28 289 routeOSC /carrier /env /mod;
#X obj 255 264 routeOSC /atk /dec /sus /rel /exp /fampscale;
#X obj 255 221 routeOSC /env /freq /q;
#X obj 28 493 routeOSC /wave /detune;
#X obj 466 106 s \$0-GLOBAL-alloff;
#X obj 582 106 s \$0-GLOBAL-pbend;
#X obj 466 84 routeOSC /allnotesoff /pitchbend;
#X text 473 67 global (all voices always) parameters;
#X obj 18 129 s \$0-freq;
#X obj 311 111 s \$0-r-gain;
#X obj 298 178 s \$0-r-position;
#X obj 397 178 s \$0-r-panRate;
#X obj 269 242 s \$0-r-fltFreq;
#X obj 362 242 s \$0-r-fltQ;
#X obj 264 288 s \$0-r-fltDec;
#X obj 356 288 s \$0-r-fltRel;
#X obj 472 288 s \$0-r-fampscale;
#X obj 255 309 s \$0-r-fltAtk;
#X obj 353 309 s \$0-r-fltSus;
#X obj 447 309 s \$0-r-fltEnvExp;
#X obj 162 365 s \$0-r-modAmp;
#X obj 135 389 s \$0-r-mWavetype;
#X obj 308 365 s \$0-r-ratio;
#X obj 251 388 s \$0-r-modFreqFrac;
#X obj 91 441 s \$0-r-dec;
#X obj 82 464 s \$0-r-atk;
#X obj 238 441 s \$0-r-envExp;
#X obj 200 462 s \$0-r-rel;
#X obj 173 482 s \$0-r-sus;
#X obj 28 515 s \$0-r-cWavetype;
#X obj 132 516 s \$0-r-detune;
#X obj 170 3 inlet;
#X obj 82 419 routeOSC /atk /dec /sus /rel /exp;
#X obj 135 340 routeOSC /wave /amount /freq /ratorfreq;
#X obj 342 91 s \$0-r-ctrlmode;
#X obj 170 28 routeOSC /note /osc /filt /pan /gain /controlmode /enable
/global;
#X obj 393 68 s \$0-r-ena;
#X connect 4 0 14 0;
#X connect 4 1 3 0;
#X connect 5 0 16 0;
#X connect 5 1 17 0;
#X connect 6 0 9 0;
#X connect 6 1 38 0;
#X connect 6 2 39 0;
#X connect 7 0 23 0;
#X connect 7 1 20 0;
#X connect 7 2 24 0;
#X connect 7 3 21 0;
#X connect 7 4 25 0;
#X connect 7 5 22 0;
#X connect 8 0 7 0;
#X connect 8 1 18 0;
#X connect 8 2 19 0;
#X connect 9 0 35 0;
#X connect 9 1 36 0;
#X connect 12 0 10 0;
#X connect 12 1 11 0;
#X connect 37 0 41 0;
#X connect 38 0 31 0;
#X connect 38 1 30 0;
#X connect 38 2 34 0;
#X connect 38 3 33 0;
#X connect 38 4 32 0;
#X connect 39 0 27 0;
#X connect 39 1 26 0;
#X connect 39 2 29 0;
#X connect 39 3 28 0;
#X connect 41 0 4 0;
#X connect 41 1 6 0;
#X connect 41 2 8 0;
#X connect 41 3 5 0;
#X connect 41 4 15 0;
#X connect 41 5 40 0;
#X connect 41 6 42 0;
#X connect 41 7 12 0;
#X restore 197 244 pd oscUpdateGUI;
#X connect 0 0 4 0;
#X connect 1 0 0 0;
#X connect 2 0 1 0;
#X connect 4 0 5 0;
#X connect 4 0 6 0;
#X connect 5 0 17 0;
#X connect 6 0 18 0;
#X connect 7 0 4 0;
#X connect 9 0 2 0;
#X connect 11 0 14 0;
#X connect 11 0 6 1;
#X connect 14 0 5 1;
#X restore 495 165 pd osc_in;
#X text 230 29 Messages sent to these parameters will only be sent
to [polyWaveVoice~]s on the next attack.;
#X obj 546 120 loadbang;
#X obj 546 142 symbol \$1;
#N canvas 411 70 807 647 sssadStuff 0;
#X obj 322 273 s \$0-r-fltFreq;
#X obj 322 225 r \$0-fltFreq;
#X obj 322 297 r \$0-fltQ;
#X obj 322 345 s \$0-r-fltQ;
#X obj 12 4 r \$0-atk;
#X obj 13 53 s \$0-r-atk;
#X obj 484 233 r \$0-modFreq;
#X obj 484 287 s \$0-r-modFreq;
#X obj 425 338 r \$0-modAmp;
#X obj 425 386 s \$0-r-modAmp;
#X obj 14 223 r \$0-rel;
#X obj 14 271 s \$0-r-rel;
#X obj 13 76 r \$0-dec;
#X obj 13 125 s \$0-r-dec;
#X obj 13 148 r \$0-sus;
#X obj 14 195 s \$0-r-sus;
#X obj 326 77 r \$0-mWavetype;
#X obj 327 126 s \$0-r-mWavetype;
#X obj 524 31 r \$0-gain;
#X obj 525 80 s \$0-r-gain;
#X obj 15 346 s \$0-r-envExp;
#X obj 14 297 r \$0-envExp;
#X obj 152 4 r \$0-fltAtk;
#X obj 153 53 s \$0-r-fltAtk;
#X obj 153 76 r \$0-fltDec;
#X obj 153 125 s \$0-r-fltDec;
#X obj 153 148 r \$0-fltSus;
#X obj 154 195 s \$0-r-fltSus;
#X obj 154 223 r \$0-fltRel;
#X obj 154 271 s \$0-r-fltRel;
#X obj 154 297 r \$0-fltEnvExp;
#X obj 155 346 s \$0-r-fltEnvExp;
#X obj 615 233 r \$0-ratio;
#X obj 615 286 s \$0-r-ratio;
#X obj 294 513 s \$0-modFreq;
#X obj 294 452 r \$0-modFreqFrac;
#X obj 441 453 r \$0-ratio;
#X obj 551 513 s \$0-r-modFreqFrac;
#X obj 551 452 r \$0-r-modFreq;
#X obj 698 451 r \$0-r-ratio;
#N canvas 751 419 301 242 sliderToModFreqOrRatio 0;
#X obj 133 58 == 0;
#X obj 10 123 * 4000;
#X obj 118 86 spigot 0;
#X obj 10 100 spigot 1;
#X obj 133 4 inlet ratioOn;
#X text 113 152 freq. is ratio of carrier;
#X text 14 139 freq. is 'free';
#X obj 10 196 outlet;
#X obj 9 4 inlet modFreqFrac;
#X obj 133 27 t f f;
#X obj 118 112 * 19;
#X text 149 112 tablesize - 1;
#X obj 118 136 tabread \$0-modRatios;
#X connect 0 0 3 1;
#X connect 1 0 7 0;
#X connect 2 0 10 0;
#X connect 3 0 1 0;
#X connect 4 0 9 0;
#X connect 8 0 3 0;
#X connect 8 0 2 0;
#X connect 9 0 0 0;
#X connect 9 1 2 1;
#X connect 10 0 12 0;
#X connect 12 0 7 0;
#X restore 294 483 pd sliderToModFreqOrRatio;
#X text 298 416 Convert slider (0.0 - 1.0) to freq. \,;
#X text 299 431 either a ratio \, or a literal freq. value;
#X text 549 431 to slider value (0.0 - 1.0);
#X text 547 416 Convert saved freq. (ratio or absolute);
#X obj 8 448 r \$0-panMode;
#X obj 8 496 s \$0-r-panMode;
#X obj 136 456 r \$0-detune;
#X obj 136 504 s \$0-r-detune;
#X text 431 145 Because of the way modFreq is overloaded \, the ratio
switch must be set before modFreq changes \, therefore it has to occur
later in this subpatch - so don't change the order of these objects
if you can help it (or if you do \, make sure the ratio stuff ends
up later in the patch file than modFreq -- sorry I can't think of a
less kludgey way to do this):;
#X obj 325 4 r \$0-cWavetype;
#X obj 325 53 s \$0-r-cWavetype;
#X obj 484 257 lib/sssad \$1/modFreq;
#X obj 327 102 lib/sssad \$1/mWaveType;
#X obj 13 29 lib/sssad \$1/attack;
#X obj 13 101 lib/sssad \$1/decay;
#X obj 14 171 lib/sssad \$1/sustain;
#X obj 14 247 lib/sssad \$1/release;
#X obj 15 322 lib/sssad \$1/envExp;
#X obj 9 397 lib/sssad \$1/panPosition;
#X obj 8 472 lib/sssad \$1/panMode;
#X obj 153 29 lib/sssad \$1/filtAttack;
#X obj 153 101 lib/sssad \$1/filtDecay;
#X obj 154 171 lib/sssad \$1/filtSustain;
#X obj 154 247 lib/sssad \$1/filtRelease;
#X obj 155 322 lib/sssad \$1/filtEnvExp;
#X obj 171 397 lib/sssad \$1/panPortamento;
#X obj 136 480 lib/sssad \$1/detune;
#X obj 325 29 lib/sssad \$1/cWaveType;
#X obj 322 249 lib/sssad \$1/filtFreq;
#X obj 322 321 lib/sssad \$1/filtQ;
#X obj 425 362 lib/sssad \$1/modAmpl;
#X obj 525 56 lib/sssad \$1/gain;
#X obj 615 257 lib/sssad \$1/ratioMod;
#X obj 171 373 r \$0-panRate;
#X obj 171 421 s \$0-r-panRate;
#X obj 9 373 r \$0-position;
#X obj 9 421 s \$0-r-position;
#X obj 211 538 loadbang;
#X obj 292 553 table \$0-modRatios 20;
#X msg 211 584 \; \$1-modRatios 0 0 0.125 0.25 0.375 0.5 0.75 1 1.5
2 3 4 5 6 7 8 11 12 16 24 32;
#X obj 211 560 f \$0;
#X text 425 554 Tablesize: 20;
#N canvas 672 123 550 535 modFreqOrRatioToSlider 0;
#X obj 147 81 == 0;
#X obj 145 116 spigot 0;
#X obj 147 35 inlet ratioOn;
#X text 26 159 freq. is 'free';
#X obj 18 513 outlet;
#X obj 18 140 / 4000;
#X obj 18 117 spigot 0;
#X obj 17 35 inlet modSaved;
#X obj 18 59 t f f;
#X obj 147 58 t f f;
#X obj 199 178 until;
#X obj 259 206 + 1;
#X obj 155 202 f;
#X obj 145 440 f 0;
#X obj 161 396 f;
#X obj 155 225 t f f f;
#X obj 211 314 sel 1;
#X obj 211 338 t b b;
#X msg 155 178 0;
#X obj 259 228 sel 20;
#X obj 246 257 tabread \$0-modRatios;
#X obj 211 289 >;
#X obj 145 465 / 20;
#X obj 384 256 tabread \$0-modRatios;
#X msg 384 234 19;
#X text 36 2 lots of hard-coded array-size derivatives in here \, which
would be nice to fix.;
#X text 383 276 last element \, by default;
#X text 231 64 CURRENT ARRAY SIZE: 20;
#X obj 145 141 t b b f b b;
#X connect 0 0 6 1;
#X connect 1 0 28 0;
#X connect 2 0 9 0;
#X connect 5 0 4 0;
#X connect 6 0 5 0;
#X connect 7 0 8 0;
#X connect 8 0 6 0;
#X connect 8 1 1 0;
#X connect 9 0 0 0;
#X connect 9 1 1 1;
#X connect 10 0 12 0;
#X connect 11 0 12 1;
#X connect 11 0 19 0;
#X connect 12 0 15 0;
#X connect 13 0 22 0;
#X connect 14 0 13 1;
#X connect 15 0 11 0;
#X connect 15 1 20 0;
#X connect 15 2 14 1;
#X connect 16 0 17 0;
#X connect 17 0 14 0;
#X connect 17 1 10 1;
#X connect 18 0 12 1;
#X connect 19 0 10 1;
#X connect 20 0 21 0;
#X connect 21 0 16 0;
#X connect 22 0 4 0;
#X connect 23 0 13 1;
#X connect 24 0 23 0;
#X connect 28 0 13 0;
#X connect 28 1 10 0;
#X connect 28 2 21 1;
#X connect 28 3 18 0;
#X connect 28 4 24 0;
#X restore 551 481 pd modFreqOrRatioToSlider;
#X obj 595 347 lib/sssad \$1/enable;
#X obj 10 530 r \$0-fampscale;
#X obj 10 554 lib/sssad \$1/fampscale;
#X obj 10 578 s \$0-r-fampscale;
#X obj 595 323 r \$0-ena;
#X obj 595 376 s \$0-r-ena;
#X connect 1 0 69 1;
#X connect 2 0 70 1;
#X connect 4 0 54 1;
#X connect 6 0 52 1;
#X connect 8 0 71 1;
#X connect 10 0 57 1;
#X connect 12 0 55 1;
#X connect 14 0 56 1;
#X connect 16 0 53 1;
#X connect 18 0 72 1;
#X connect 21 0 58 1;
#X connect 22 0 61 1;
#X connect 24 0 62 1;
#X connect 26 0 63 1;
#X connect 28 0 64 1;
#X connect 30 0 65 1;
#X connect 32 0 73 1;
#X connect 35 0 40 0;
#X connect 36 0 40 1;
#X connect 38 0 83 0;
#X connect 39 0 83 1;
#X connect 40 0 34 0;
#X connect 45 0 60 1;
#X connect 47 0 67 1;
#X connect 50 0 68 1;
#X connect 52 0 7 0;
#X connect 53 0 17 0;
#X connect 54 0 5 0;
#X connect 55 0 13 0;
#X connect 56 0 15 0;
#X connect 57 0 11 0;
#X connect 58 0 20 0;
#X connect 59 0 77 0;
#X connect 60 0 46 0;
#X connect 61 0 23 0;
#X connect 62 0 25 0;
#X connect 63 0 27 0;
#X connect 64 0 29 0;
#X connect 65 0 31 0;
#X connect 66 0 75 0;
#X connect 67 0 48 0;
#X connect 68 0 51 0;
#X connect 69 0 0 0;
#X connect 70 0 3 0;
#X connect 71 0 9 0;
#X connect 72 0 19 0;
#X connect 73 0 33 0;
#X connect 74 0 66 1;
#X connect 76 0 59 1;
#X connect 78 0 81 0;
#X connect 81 0 80 0;
#X connect 83 0 37 0;
#X connect 84 0 89 0;
#X connect 85 0 86 1;
#X connect 86 0 87 0;
#X connect 88 0 84 1;
#X restore 493 53 pd sssadStuff;
#X msg 451 522 \$1 polyWaveVoice~;
#X text 46 306 Random panning;
#X obj 46 326 r \$0-preNote;
#X text 298 69 amp > 0 = attack;
#X text 298 83 amp = 0 = release;
#X obj 238 306 t f b;
#X obj 367 212 s \$0-preNote;
#X obj 318 253 spigot;
#X obj 6 262 tgl 12 1 \$0-ena \$0-r-ena empty 17 7 0 10 -262144 -1
-1 1 1;
#X obj 316 189 t f f f b;
#X obj 325 105 inlet pause;
#N canvas 412 77 357 289 onoff 0;
#X obj 21 28 inlet freq;
#X obj 21 248 outlet freq;
#X obj 154 28 inlet enable;
#X obj 91 28 inlet amp;
#X obj 236 28 inlet pause1;
#X obj 21 225 spigot;
#X obj 91 53 > 0;
#X obj 154 51 f;
#X obj 154 76 == 0;
#X obj 91 162 &&;
#X obj 91 186 == 0;
#X obj 154 107 ||;
#X obj 236 58 t b f;
#X obj 154 131 t b f;
#X connect 0 0 5 0;
#X connect 2 0 7 0;
#X connect 3 0 6 0;
#X connect 4 0 12 0;
#X connect 5 0 1 0;
#X connect 6 0 9 0;
#X connect 7 0 8 0;
#X connect 8 0 11 0;
#X connect 9 0 10 0;
#X connect 10 0 5 1;
#X connect 11 0 13 0;
#X connect 12 0 11 0;
#X connect 12 1 11 1;
#X connect 13 0 9 0;
#X connect 13 1 9 1;
#X restore 218 237 pd onoff;
#X text 61 171 flt. env.;
#X obj 102 162 tgl 12 1 \$0-fampscale \$0-r-fampscale scale_to_amp
-74 4 0 10 -261234 -1 -1 0 1;
#X obj 447 407 r \$0-fampscale;
#X obj 11 87 hsl 128 15 0 1 0 1 \$0-modFreqFrac \$0-r-modFreqFrac modFreq
4 9 0 8 -195008 -1 -1 9391 1;
#X obj 579 398 r \$0-gain;
#N canvas 774 179 417 418 globals 0;
#X obj 14 96 spigot 0;
#X obj 59 74 r \$0-glena;
#X obj 14 52 r \$0-fltFreq;
#X obj 13 6 inlet;
#X text 50 4 global enable;
#X obj 13 28 s \$0-glena;
#X obj 14 186 spigot 0;
#X obj 59 164 r \$0-glena;
#X obj 14 142 r \$0-fltQ;
#X obj 14 276 spigot 0;
#X obj 59 254 r \$0-glena;
#X obj 14 232 r \$0-modAmp;
#X obj 144 96 spigot 0;
#X obj 189 74 r \$0-glena;
#X obj 144 52 r \$0-modFreq;
#X obj 144 186 spigot 0;
#X obj 189 164 r \$0-glena;
#X obj 144 142 r \$0-ratio;
#X obj 144 208 s \$0-GLOBAL-ratio;
#X obj 274 186 spigot 0;
#X obj 319 164 r \$0-glena;
#X obj 274 142 r \$0-detune;
#X obj 274 208 s \$0-GLOBAL-detune;
#X obj 14 298 s \$0-GLOBAL-modamp;
#X obj 14 208 s \$0-GLOBAL-fltq;
#X obj 14 118 s \$0-GLOBAL-filtfreq;
#X obj 144 118 s \$0-GLOBAL-modfreq;
#X obj 144 276 spigot 0;
#X obj 274 276 spigot 0;
#X obj 144 232 r \$0-position;
#X obj 144 298 s \$0-GLOBAL-panpos;
#X obj 189 254 r \$0-glena;
#X obj 319 254 r \$0-glena;
#X obj 274 298 s \$0-GLOBAL-panrate;
#X obj 274 232 r \$0-panRate;
#X obj 274 96 spigot 0;
#X obj 319 74 r \$0-glena;
#X obj 274 52 r \$0-gain;
#X obj 274 118 s \$0-GLOBAL-gain;
#X obj 14 366 spigot 0;
#X obj 59 344 r \$0-glena;
#X obj 144 366 spigot 0;
#X obj 189 344 r \$0-glena;
#X obj 14 322 r \$0-cWavetype;
#X obj 14 388 s \$0-GLOBAL-cwave;
#X obj 144 388 s \$0-GLOBAL-mwave;
#X obj 144 322 r \$0-mWavetype;
#X connect 0 0 25 0;
#X connect 1 0 0 1;
#X connect 2 0 0 0;
#X connect 3 0 5 0;
#X connect 6 0 24 0;
#X connect 7 0 6 1;
#X connect 8 0 6 0;
#X connect 9 0 23 0;
#X connect 10 0 9 1;
#X connect 11 0 9 0;
#X connect 12 0 26 0;
#X connect 13 0 12 1;
#X connect 14 0 12 0;
#X connect 15 0 18 0;
#X connect 16 0 15 1;
#X connect 17 0 15 0;
#X connect 19 0 22 0;
#X connect 20 0 19 1;
#X connect 21 0 19 0;
#X connect 27 0 30 0;
#X connect 28 0 33 0;
#X connect 29 0 27 0;
#X connect 31 0 27 1;
#X connect 32 0 28 1;
#X connect 34 0 28 0;
#X connect 35 0 38 0;
#X connect 36 0 35 1;
#X connect 37 0 35 0;
#X connect 39 0 44 0;
#X connect 40 0 39 1;
#X connect 41 0 45 0;
#X connect 42 0 41 1;
#X connect 43 0 39 0;
#X connect 46 0 41 0;
#X restore 495 221 pd globals;
#X obj 238 554 lib/polypoly \$2 \$3 polywavevoice~ \$0;
#X text 417 280 attack-only parameters:;
#X text 235 2 Version 4;
#X text 19 259 v4.0;
#X obj 579 316 r \$0-cWavetype;
#X obj 579 337 r \$0-mWavetype;
#X obj 578 356 r \$0-position;
#X obj 584 376 r \$0-panRate;
#X obj 136 179 tgl 12 1 \$0-ctrlmode \$0-r-ctrlmode global 16 7 0 9
-4034 -1 -1 1 1;
#X obj 674 315 r \$0-fltFreq;
#X obj 674 336 r \$0-fltQ;
#X obj 674 357 r \$0-modAmp;
#X obj 674 378 r \$0-modFreq;
#X obj 674 399 r \$0-ratio;
#X obj 674 420 r \$0-detune;
#X text 606 282 These parameters can be;
#X text 623 296 local OR global;
#X obj 244 477 r \$0-GLOBAL-alloff;
#X obj 365 445 pack f f f f f f f f f f f f f f f f f f f f f f;
#X obj 136 162 tgl 12 1 \$0-oscgui \$0-r-oscgui OSC-UI 16 7 0 9 -262144
-1 -1 1 1;
#X obj 519 98 r \$0-oscgui;
#X obj 494 76 inlet;
#X text 533 75 OSC;
#X obj 495 198 r \$0-ctrlmode;
#X obj 249 128 r \$0-ena;
#X obj 186 180 tgl 10 0 \$0-GLOBAL-alloff empty empty 17 7 0 10 -260097
-1 -1 1 1;
#X floatatom 611 32 5 0 0 0 - - -;
#X floatatom 608 137 5 0 0 0 - - -;
#X obj 608 161 s \$0-r-modAmp;
#X obj 611 56 s \$0-r-modFreqFrac;
#X obj 609 112 / 100;
#X obj 611 8 / 100;
#X floatatom 638 246 5 0 0 0 - - -;
#X obj 638 265 s \$0-r-fltFreq;
#X floatatom 742 238 5 0 0 0 - - -;
#X obj 742 262 s \$0-r-fltQ;
#X obj 638 224 * 100;
#X obj 742 213 / 50;
#X obj 600 469 tgl 15 0 empty \$0-pnoff empty 17 7 0 10 -262144 -1
-1 1 1;
#X obj 564 502 spigot;
#X obj 139 196 tgl 10 0 \$0-pnoff empty empty 17 7 0 10 -262144 -1
-1 1 1;
#X obj 227 -21 r clt1;
#X obj 277 -23 r clt3;
#X obj 324 -22 r clt4;
#X obj 344 9 r clt5;
#X obj 375 -22 r clt6;
#X obj 391 6 r clt7;
#X obj 426 -17 r clt8;
#X obj 298 7 r clt2;
#X obj 436 9 r clt9;
#X floatatom 242 268 5 0 0 0 - - -;
#X obj 188 345 bng 15 250 50 0 empty $_shutupgladys empty 17 7 0 10
-262144 -1 -1;
#X floatatom 746 15 5 0 0 0 - - -;
#X obj 746 -13 * 39;
#X obj 871 30 / 21;
#X obj 961 97 / 21;
#X text 56 316 comment;
#X obj 761 129 * 10;
#X obj 761 152 s $_splurg;
#X obj 138 437 r randfiltstep;
#X obj 107 -48 r seqfilt;
#X obj 124 -22 r qtip;
#X obj 32 -42 r randmod;
#X obj 18 -21 r randmodf;
#X obj 647 99 spigot;
#X obj 692 98 tgl 15 0 empty $_lockset empty 17 7 0 10 -262144 -1 -1
0 1;
#X obj 790 -15 spigot;
#X obj 837 -16 tgl 15 0 empty $_lockset empty 17 7 0 10 -262144 -1
-1 0 1;
#X obj 867 6 spigot;
#X obj 914 5 tgl 15 0 empty $_lockset empty 17 7 0 10 -262144 -1 -1
0 1;
#X obj 964 66 spigot;
#X obj 1011 60 tgl 15 0 empty $_lockset empty 17 7 0 10 -262144 -1
-1 0 1;
#X obj 761 106 spigot;
#X obj 808 105 tgl 15 0 empty $_lockset empty 17 7 0 10 -262144 -1
-1 0 1;
#X obj 619 -23 spigot;
#X obj 666 -24 tgl 15 0 empty $_lockset empty 17 7 0 10 -262144 -1
-1 0 1;
#X obj 661 205 spigot;
#X obj 706 204 tgl 15 0 empty $_lockset empty 17 7 0 10 -262144 -1
-1 0 1;
#X obj 766 193 spigot;
#X obj 811 192 tgl 15 0 empty $_lockset empty 17 7 0 10 -262144 -1
-1 0 1;
#X msg 153 316 500;
#X msg 148 297 0;
#X obj 199 324 loadbang;
#X msg 188 306 7000;
#X msg 173 288 85;
#X msg 209 282 4500;
#X msg 202 254 1;
#X obj 612 -58 ctlin 5;
#X obj 744 -43 ctlin 1;
#X obj 867 -18 ctlin 2;
#X obj 922 34 ctlin 3;
#X obj 760 86 ctlin 4;
#X obj 616 76 ctlin 6;
#X obj 742 174 ctlin 8;
#X obj 638 181 ctlin 7;
#X floatatom 198 -42 5 0 0 0 - - -;
#N canvas 263 106 854 434 polycontrol 0;
#X obj 591 135 notein;
#X obj 495 195 mtof;
#X obj 583 243 / 127;
#X obj 696 226 r \$0-OSC;
#X obj 442 192 s slope;
#X obj 412 210 r slide;
#X obj 461 213 mtof;
#X obj 495 218 spigot;
#X obj 539 218 r thru;
#X obj 583 194 r div;
#X obj 538 238 tgl 15 0 empty empty empty 17 7 0 10 -262144 -1 -1 0
-1;
#X obj 429 286 outlet;
#X obj 504 288 outlet;
#X obj 606 297 outlet;
#X obj 496 142 r fakenote1;
#X obj 495 112 r fakevel1;
#X obj 489 47 r fakenoteoff1;
#X obj 295 237 r panicc;
#X obj 218 151 r trigsynthon;
#X obj 301 117 r trigsynthoff;
#X floatatom 270 83 5 0 0 0 - - -;
#X obj 327 82 makenote 127 500;
#X obj 425 60 r durr;
#X obj 363 23 inlet;
#X connect 0 0 1 0;
#X connect 0 1 2 0;
#X connect 1 0 7 0;
#X connect 2 0 12 0;
#X connect 3 0 13 0;
#X connect 5 0 6 0;
#X connect 6 0 11 0;
#X connect 7 0 11 0;
#X connect 8 0 10 0;
#X connect 9 0 2 0;
#X connect 10 0 7 1;
#X connect 14 0 1 0;
#X connect 15 0 2 0;
#X connect 16 0 1 0;
#X connect 17 0 11 0;
#X connect 17 0 12 0;
#X connect 18 0 1 0;
#X connect 19 0 2 0;
#X connect 21 0 11 0;
#X connect 21 1 2 0;
#X connect 22 0 21 2;
#X connect 23 0 21 0;
#X restore 270 -44 pd polycontrol;
#X obj 314 581 dac~;
#X connect 8 0 59 0;
#X connect 9 0 59 0;
#X connect 11 0 15 0;
#X connect 12 0 14 0;
#X connect 16 0 17 0;
#X connect 17 0 66 0;
#X connect 18 0 86 0;
#X connect 19 0 113 3;
#X connect 22 0 95 0;
#X connect 23 0 113 2;
#X connect 24 0 113 1;
#X connect 25 0 59 0;
#X connect 26 0 59 0;
#X connect 27 0 33 1;
#X connect 28 0 64 0;
#X connect 30 0 31 0;
#X connect 30 0 67 0;
#X connect 31 0 77 0;
#X connect 32 0 88 0;
#X connect 33 0 113 0;
#X connect 44 0 59 0;
#X connect 45 0 59 0;
#X connect 46 0 59 0;
#X connect 47 0 59 0;
#X connect 50 0 113 4;
#X connect 51 0 113 5;
#X connect 52 0 113 6;
#X connect 53 0 113 7;
#X connect 54 0 113 8;
#X connect 55 0 113 9;
#X connect 61 0 62 0;
#X connect 62 0 28 1;
#X connect 64 0 16 0;
#X connect 67 0 95 0;
#X connect 69 0 88 0;
#X connect 70 0 86 0;
#X connect 74 0 75 0;
#X connect 75 0 72 2;
#X connect 77 0 95 2;
#X connect 79 0 28 0;
#X connect 82 0 22 0;
#X connect 82 1 84 0;
#X connect 84 0 33 0;
#X connect 86 0 22 1;
#X connect 86 1 88 1;
#X connect 86 2 84 1;
#X connect 86 3 83 0;
#X connect 87 0 88 3;
#X connect 88 0 82 0;
#X connect 91 0 113 10;
#X connect 93 0 113 15;
#X connect 95 0 20 0;
#X connect 95 0 192 0;
#X connect 95 1 21 0;
#X connect 95 1 192 1;
#X connect 99 0 113 11;
#X connect 100 0 113 12;
#X connect 101 0 134 0;
#X connect 102 0 113 14;
#X connect 104 0 113 16;
#X connect 105 0 113 17;
#X connect 106 0 113 18;
#X connect 107 0 113 19;
#X connect 108 0 113 20;
#X connect 109 0 113 21;
#X connect 112 0 67 0;
#X connect 113 0 95 1;
#X connect 115 0 72 1;
#X connect 116 0 72 0;
#X connect 118 0 94 0;
#X connect 119 0 88 2;
#X connect 121 0 124 0;
#X connect 122 0 123 0;
#X connect 125 0 122 0;
#X connect 126 0 121 0;
#X connect 127 0 128 0;
#X connect 129 0 130 0;
#X connect 131 0 127 0;
#X connect 132 0 129 0;
#X connect 133 0 134 1;
#X connect 134 0 113 13;
#X connect 136 0 88 0;
#X connect 137 0 88 0;
#X connect 138 0 88 0;
#X connect 139 0 88 0;
#X connect 140 0 88 0;
#X connect 141 0 88 0;
#X connect 142 0 88 0;
#X connect 143 0 88 0;
#X connect 144 0 88 0;
#X connect 146 0 67 0;
#X connect 147 0 9 0;
#X connect 148 0 147 0;
#X connect 149 0 2 0;
#X connect 150 0 35 0;
#X connect 152 0 153 0;
#X connect 154 0 12 0;
#X connect 155 0 12 0;
#X connect 156 0 11 0;
#X connect 157 0 10 0;
#X connect 158 0 92 0;
#X connect 159 0 125 0;
#X connect 160 0 159 1;
#X connect 161 0 148 0;
#X connect 162 0 161 1;
#X connect 163 0 149 0;
#X connect 164 0 163 1;
#X connect 165 0 150 0;
#X connect 166 0 165 1;
#X connect 167 0 152 0;
#X connect 168 0 167 1;
#X connect 169 0 126 0;
#X connect 170 0 169 1;
#X connect 171 0 131 0;
#X connect 172 0 171 1;
#X connect 173 0 132 0;
#X connect 174 0 173 1;
#X connect 175 0 45 0;
#X connect 176 0 48 0;
#X connect 177 0 178 0;
#X connect 177 0 176 0;
#X connect 177 0 175 0;
#X connect 177 0 179 0;
#X connect 177 0 180 0;
#X connect 177 0 181 0;
#X connect 178 0 47 0;
#X connect 179 0 46 0;
#X connect 179 0 29 0;
#X connect 180 0 44 0;
#X connect 181 0 120 0;
#X connect 181 0 135 0;
#X connect 181 0 103 0;
#X connect 182 0 169 0;
#X connect 183 0 161 0;
#X connect 184 0 163 0;
#X connect 185 0 165 0;
#X connect 186 0 167 0;
#X connect 187 0 159 0;
#X connect 188 0 173 0;
#X connect 189 0 171 0;
#X connect 190 0 191 0;
#X connect 191 0 88 0;
#X connect 191 1 86 0;
#X coords 0 -1 1 1 200 286 1 0 0;
