#N canvas -4 -4 1366 684 10;
#X declare -lib mrpeach;
#X declare -lib cyclone;
#X declare -lib cyclone;
#X declare -lib cyclone;
#X declare -lib cyclone;
#X declare -lib cyclone;
#X declare -lib cyclone;
#X declare -lib cyclone;
#X declare -lib cyclone;
#X declare -lib cyclone;
#X declare -lib cyclone;
#X declare -lib cyclone;
#X declare -lib cyclone;
#X declare -lib cyclone;
#X declare -lib cyclone;
#X declare -lib cyclone;
#X declare -lib cyclone;
#X declare -lib cyclone;
#X declare -lib cyclone;
#X declare -lib cyclone;
#X declare -lib cyclone;
#X declare -lib cyclone;
#X declare -lib cyclone;
#X declare -lib cyclone;
#X declare -lib cyclone;
#X declare -lib cyclone;
#X declare -lib cyclone;
#X declare -lib cyclone;
#X declare -lib cyclone;
#X declare -lib cyclone;
#X declare -lib cyclone;
#X declare -lib cyclone;
#X declare -lib cyclone;
#X obj 100 101 cnv 15 220 370 empty empty empty 20 12 0 14 -83269 -66577
0;
#X obj 110 166 polywavesynth test 32 1;
#N canvas 263 106 854 434 polycontrol 0;
#X obj 591 135 notein;
#X obj 495 195 mtof;
#X obj 583 243 / 127;
#X obj 696 226 r \$0-OSC;
#X obj 442 192 s slope;
#X obj 412 210 r slide;
#X obj 461 213 mtof;
#X obj 495 218 spigot;
#X obj 539 218 r thru;
#X obj 583 194 r div;
#X obj 538 238 tgl 15 0 empty empty empty 17 7 0 10 -262144 -1 -1 -1
-1;
#X obj 429 286 outlet;
#X obj 504 288 outlet;
#X obj 606 297 outlet;
#X obj 496 142 r fakenote1;
#X obj 495 112 r fakevel1;
#X obj 489 47 r fakenoteoff1;
#X obj 295 237 r panicc;
#X obj 218 151 r trigsynthon;
#X obj 301 117 r trigsynthoff;
#X floatatom 270 83 5 0 0 0 - - -;
#X obj 327 82 makenote 127 500;
#X obj 425 60 r durr;
#X obj 363 23 inlet;
#X connect 0 0 1 0;
#X connect 0 1 2 0;
#X connect 1 0 7 0;
#X connect 2 0 12 0;
#X connect 3 0 13 0;
#X connect 5 0 6 0;
#X connect 6 0 11 0;
#X connect 7 0 11 0;
#X connect 8 0 10 0;
#X connect 9 0 2 0;
#X connect 10 0 7 1;
#X connect 14 0 1 0;
#X connect 15 0 2 0;
#X connect 16 0 1 0;
#X connect 17 0 11 0;
#X connect 17 0 12 0;
#X connect 18 0 1 0;
#X connect 19 0 2 0;
#X connect 21 0 11 0;
#X connect 21 1 2 0;
#X connect 22 0 21 2;
#X connect 23 0 21 0;
#X restore 184 137 pd polycontrol;
#X obj 128 137 r seqvol;
#N canvas 1366 728 1366 684 polyseqx 1;
#X obj -63 -1044 tgl 15 0 empty $_main_on_freq main_on_freq_+_amount
17 7 0 10 -262144 -1 -1 1 1;
#X floatatom 82 -1045 5 0 0 0 - #_amts -;
#X obj 112 -1001 f;
#X obj 136 -1002 + 1;
#X obj 112 -983 mod 16;
#X obj -9 -965 hradio 16 1 0 16 empty empty empty 0 -8 0 10 -262144
-1 -1 9;
#X obj -9 -948 select 0 1 2 3 4 5 6 7 8 9 10 11 12 13 14 15;
#X obj 250 -932 f;
#X obj 276 -932 f;
#X obj 303 -933 f;
#X obj 329 -933 f;
#X obj 355 -933 f;
#X obj 381 -933 f;
#X obj 406 -932 f;
#X obj 432 -932 f;
#X obj 460 -933 f;
#X obj 486 -933 f;
#X obj 513 -934 f;
#X obj 539 -934 f;
#X obj 565 -934 f;
#X obj 591 -934 f;
#X obj 616 -934 f;
#X obj 642 -933 f;
#X floatatom 162 -1032 5 0 0 0 - #_number_steps -;
#X obj -63 -929 metro 200;
#X obj 310 -901 makenote;
#X obj 377 -900 hsl 128 15 0 127 0 0 empty empty empty -2 -8 0 10 -262144
-1 -1 0 1;
#X obj 521 -900 hsl 128 15 0 127 0 0 empty empty empty -2 -8 0 10 -262144
-1 -1 0 1;
#X obj 395 -853 s fakenote1;
#X obj 393 -877 s fakevel1;
#X obj 465 -878 s fakelength;
#X obj 476 -855 s fakenoteoff1;
#X obj 184 -908 mtof;
#X obj 144 -755 f;
#X obj 170 -755 f;
#X obj 197 -755 f;
#X obj 224 -754 f;
#X obj 251 -755 f;
#X obj 280 -753 f;
#X obj 306 -755 f;
#X obj 331 -757 f;
#X obj 358 -756 f;
#X obj 385 -757 f;
#X obj 411 -759 f;
#X obj 437 -759 f;
#X obj 464 -761 f;
#X obj 490 -762 f;
#X obj 517 -761 f;
#X obj 543 -762 f;
#X obj 51 -1020 random 200;
#X obj 116 -1020 spigot;
#X obj 117 -1044 tgl 15 0 empty $_dust+number_steps dust+number_steps
17 7 0 10 -262144 -1 -1 0 1;
#X obj 627 -557 f;
#X obj 653 -557 f;
#X obj 680 -557 f;
#X obj 707 -556 f;
#X obj 734 -557 f;
#X obj 763 -555 f;
#X obj 789 -557 f;
#X obj 814 -559 f;
#X obj 841 -558 f;
#X obj 868 -559 f;
#X obj 894 -561 f;
#X obj 920 -561 f;
#X obj 947 -563 f;
#X obj 973 -564 f;
#X obj 1000 -564 f;
#X obj 1026 -564 f;
#X obj 688 -1031 tgl 15 0 empty $_seq_filt seq_filt 17 7 0 10 -262144
-1 -1 0 1;
#X floatatom 757 -1033 5 0 0 0 - #_amtseqfilt -;
#X obj 690 -989 f;
#X obj 725 -989 + 1;
#X obj 690 -971 mod 16;
#X obj 689 -952 hradio 16 1 0 16 empty empty empty 0 -8 0 10 -262144
-1 -1 10;
#X obj 685 -522 select 0 1 2 3 4 5 6 7 8 9 10 11 12 13 14 15;
#X floatatom 840 -1036 5 0 0 0 - #_stpnum -;
#X obj 688 -1007 metro 200;
#X obj 747 -1008 random 200;
#X obj 812 -1009 spigot;
#X obj 792 -1032 tgl 15 0 empty $_filtdust dusty 17 7 0 10 -262144
-1 -1 0 1;
#X obj 670 -920 spigot;
#X obj 880 -1035 tgl 15 0 empty $_sync-to sync-to-freq 17 7 0 10 -262144
-1 -1 0 1;
#X obj 801 -504 s seqfilt;
#X obj 803 -539 * 10000;
#X obj 200 -932 spigot;
#X obj 136 -1055 tgl 15 0 empty $_autofrq send_autofreq 17 7 0 10 -262144
-1 -1 0 1;
#X obj 906 -724 s seqvol;
#X obj 669 -739 spigot;
#X obj 974 -1036 tgl 15 0 empty $_seq_volumeson seq_volumeson 17 7
0 10 -262144 -1 -1 0 1;
#X text 197 -1088 frequencies;
#X text 575 -636 filt freq;
#X connect 0 0 24 0;
#X connect 1 0 24 1;
#X connect 1 0 49 1;
#X connect 2 0 3 0;
#X connect 2 0 4 0;
#X connect 3 0 2 1;
#X connect 4 0 5 0;
#X connect 5 0 6 0;
#X connect 6 0 7 0;
#X connect 6 0 33 0;
#X connect 6 1 8 0;
#X connect 6 1 34 0;
#X connect 6 2 9 0;
#X connect 6 2 35 0;
#X connect 6 3 10 0;
#X connect 6 3 36 0;
#X connect 6 4 11 0;
#X connect 6 4 37 0;
#X connect 6 5 12 0;
#X connect 6 5 38 0;
#X connect 6 6 13 0;
#X connect 6 6 39 0;
#X connect 6 7 14 0;
#X connect 6 7 40 0;
#X connect 6 8 15 0;
#X connect 6 8 41 0;
#X connect 6 9 16 0;
#X connect 6 9 42 0;
#X connect 6 10 17 0;
#X connect 6 10 43 0;
#X connect 6 11 18 0;
#X connect 6 11 44 0;
#X connect 6 12 19 0;
#X connect 6 12 45 0;
#X connect 6 13 20 0;
#X connect 6 13 46 0;
#X connect 6 14 21 0;
#X connect 6 14 47 0;
#X connect 6 15 22 0;
#X connect 6 15 48 0;
#X connect 7 0 25 0;
#X connect 7 0 32 0;
#X connect 8 0 25 0;
#X connect 8 0 32 0;
#X connect 9 0 25 0;
#X connect 9 0 32 0;
#X connect 10 0 25 0;
#X connect 10 0 32 0;
#X connect 11 0 25 0;
#X connect 11 0 32 0;
#X connect 12 0 25 0;
#X connect 12 0 32 0;
#X connect 13 0 25 0;
#X connect 13 0 32 0;
#X connect 14 0 25 0;
#X connect 14 0 32 0;
#X connect 15 0 25 0;
#X connect 15 0 32 0;
#X connect 16 0 25 0;
#X connect 16 0 32 0;
#X connect 17 0 25 0;
#X connect 17 0 32 0;
#X connect 18 0 25 0;
#X connect 18 0 32 0;
#X connect 19 0 25 0;
#X connect 19 0 32 0;
#X connect 20 0 25 0;
#X connect 20 0 32 0;
#X connect 21 0 25 0;
#X connect 21 0 32 0;
#X connect 22 0 25 0;
#X connect 22 0 32 0;
#X connect 23 0 4 1;
#X connect 24 0 2 0;
#X connect 24 0 49 0;
#X connect 24 0 80 0;
#X connect 26 0 25 1;
#X connect 26 0 29 0;
#X connect 27 0 25 2;
#X connect 27 0 30 0;
#X connect 32 0 84 0;
#X connect 33 0 87 0;
#X connect 34 0 87 0;
#X connect 35 0 87 0;
#X connect 36 0 87 0;
#X connect 37 0 87 0;
#X connect 38 0 87 0;
#X connect 39 0 87 0;
#X connect 40 0 87 0;
#X connect 41 0 87 0;
#X connect 42 0 87 0;
#X connect 43 0 87 0;
#X connect 44 0 87 0;
#X connect 45 0 87 0;
#X connect 46 0 87 0;
#X connect 47 0 87 0;
#X connect 48 0 87 0;
#X connect 49 0 50 0;
#X connect 50 0 24 1;
#X connect 51 0 50 1;
#X connect 52 0 83 0;
#X connect 53 0 83 0;
#X connect 54 0 83 0;
#X connect 55 0 83 0;
#X connect 56 0 83 0;
#X connect 57 0 83 0;
#X connect 58 0 83 0;
#X connect 59 0 83 0;
#X connect 60 0 83 0;
#X connect 61 0 83 0;
#X connect 62 0 83 0;
#X connect 63 0 83 0;
#X connect 64 0 83 0;
#X connect 65 0 83 0;
#X connect 66 0 83 0;
#X connect 67 0 83 0;
#X connect 68 0 76 0;
#X connect 69 0 76 1;
#X connect 69 0 77 1;
#X connect 70 0 71 0;
#X connect 70 0 72 0;
#X connect 71 0 70 1;
#X connect 72 0 73 0;
#X connect 73 0 74 0;
#X connect 74 0 52 0;
#X connect 74 1 53 0;
#X connect 74 2 54 0;
#X connect 74 3 55 0;
#X connect 74 4 56 0;
#X connect 74 5 57 0;
#X connect 74 6 58 0;
#X connect 74 7 59 0;
#X connect 74 8 60 0;
#X connect 74 9 61 0;
#X connect 74 10 62 0;
#X connect 74 11 63 0;
#X connect 74 12 64 0;
#X connect 74 13 65 0;
#X connect 74 14 66 0;
#X connect 74 15 67 0;
#X connect 75 0 72 1;
#X connect 76 0 70 0;
#X connect 76 0 77 0;
#X connect 77 0 78 0;
#X connect 78 0 76 1;
#X connect 79 0 78 1;
#X connect 80 0 70 0;
#X connect 81 0 80 1;
#X connect 83 0 82 0;
#X connect 85 0 84 1;
#X connect 87 0 86 0;
#X connect 88 0 87 1;
#X restore 130 110 pd polyseqx;
#X obj 108 133 tgl 20 0 \$69_sendmidi empty accept_midi_notes 0 -5
0 10 -258113 -1 -4160 0 1;
#N canvas 11 28 1366 684 filterstepdust 0;
#X obj 171 -58 s randfiltstep;
#X floatatom 288 -178 5 0 0 0 freak-range #_freakrange -;
#X obj 170 -88 random 9000;
#X obj -25 -173 tgl 15 0 empty $_on_speed on_speed 17 7 0 10 -258113
-1 -1 0 127;
#X floatatom 44 -175 5 0 0 0 - #_speedyrate -;
#X obj -25 -90 metro 200;
#X obj 88 -157 spigot;
#X obj 143 -177 tgl 15 0 empty $_dustie on_dust 17 7 0 10 -4160 -1
-4160 0 127;
#X obj 87 -141 random 400;
#X obj 138 91 s qtip;
#X floatatom 349 -39 5 0 0 0 Q-range #_qrange -;
#X obj 36 -34 tgl 15 0 empty $_qtip qtip 17 7 0 10 -258113 -1 -1 0
127;
#X floatatom 105 -36 5 0 0 0 - #_speedyq -;
#X obj 36 49 metro 200;
#X obj 149 -18 spigot;
#X obj 204 -38 tgl 15 0 empty $_dustietip dust_tip 17 7 0 10 -4160
-1 -4160 0 127;
#X obj 148 10 random 400;
#X floatatom 267 95 5 0 0 0 - - -;
#X obj 210 80 / 10;
#X obj 231 51 random 20;
#X floatatom 340 124 5 0 0 0 mod-range #_modamp -;
#X obj 27 129 tgl 15 0 empty $_randamp randamp 17 7 0 10 -258113 -1
-1 0 127;
#X floatatom 96 127 5 0 0 0 - #_speedyrandmod -;
#X obj 27 212 metro 200;
#X obj 140 145 spigot;
#X obj 195 125 tgl 15 0 empty $_dustmodamp dustmodamp 17 7 0 10 -4160
-1 -4160 0 127;
#X obj 139 173 random 400;
#X floatatom 258 258 5 0 0 0 - - -;
#X obj 201 243 / 10;
#X obj 135 253 s randmod;
#X obj 222 214 random 20;
#X floatatom 346 299 5 0 0 0 freq_mod-range #_modfreqrng -;
#X obj 33 304 tgl 15 0 empty $_randmod randmodfreq 17 7 0 10 -258113
-1 -1 0 127;
#X floatatom 102 302 5 0 0 0 - #_speedyrandfreq -;
#X obj 33 387 metro 200;
#X obj 146 320 spigot;
#X obj 201 299 tgl 15 0 empty $_dustampfreq dust_mod 17 7 0 10 -4160
-1 -4160 0 127;
#X obj 145 348 random 400;
#X floatatom 264 433 5 0 0 0 - - -;
#X obj 207 418 / 10;
#X obj 228 389 random 20;
#X obj 141 428 s randmodf;
#X obj 280 -89 ftom;
#X floatatom 314 -87 5 0 0 0 - - -;
#X obj 330 67 ftom;
#X floatatom 364 69 5 0 0 0 - - -;
#X obj 313 254 ftom;
#X floatatom 347 256 5 0 0 0 - - -;
#X obj 314 428 ftom;
#X floatatom 348 430 5 0 0 0 - - -;
#X obj 362 -91 s pollymidifreak;
#X connect 1 0 2 1;
#X connect 2 0 0 0;
#X connect 2 0 42 0;
#X connect 3 0 5 0;
#X connect 4 0 5 1;
#X connect 4 0 8 1;
#X connect 5 0 8 0;
#X connect 5 0 2 0;
#X connect 6 0 5 1;
#X connect 7 0 6 1;
#X connect 8 0 6 0;
#X connect 10 0 19 1;
#X connect 11 0 13 0;
#X connect 12 0 13 1;
#X connect 12 0 16 1;
#X connect 13 0 16 0;
#X connect 13 0 19 0;
#X connect 14 0 13 1;
#X connect 15 0 14 1;
#X connect 16 0 14 0;
#X connect 18 0 17 0;
#X connect 18 0 9 0;
#X connect 18 0 44 0;
#X connect 19 0 18 0;
#X connect 20 0 30 1;
#X connect 21 0 23 0;
#X connect 22 0 23 1;
#X connect 22 0 26 1;
#X connect 23 0 26 0;
#X connect 23 0 30 0;
#X connect 24 0 23 1;
#X connect 25 0 24 1;
#X connect 26 0 24 0;
#X connect 28 0 27 0;
#X connect 28 0 29 0;
#X connect 28 0 46 0;
#X connect 30 0 28 0;
#X connect 31 0 40 1;
#X connect 32 0 34 0;
#X connect 33 0 34 1;
#X connect 33 0 37 1;
#X connect 34 0 37 0;
#X connect 34 0 40 0;
#X connect 35 0 34 1;
#X connect 36 0 35 1;
#X connect 37 0 35 0;
#X connect 39 0 38 0;
#X connect 39 0 41 0;
#X connect 39 0 48 0;
#X connect 40 0 39 0;
#X connect 42 0 43 0;
#X connect 43 0 50 0;
#X connect 44 0 45 0;
#X connect 46 0 47 0;
#X connect 48 0 49 0;
#X restore 203 110 pd filterstepdust;
#X obj 106 105 tgl 20 0 $_lockset empty enable/lock_settings 17 7 0
10 -257985 -1 -1 1 1;
#X obj 106 66 r $_luckup;
#X obj 285 138 tgl 20 0 $_usekeyboat empty TYPE 0 10 0 10 -4160 -1
-1 0 1;
#X floatatom 277 113 5 0 0 0 midiDuration - durr;
#X text 231 138 CAPS!;
#X obj 192 67 inlet;
#X obj 101 452 outlet~;
#X obj 264 451 outlet~;
#X obj 279 49 knobroutin;
#N canvas -4 -4 1366 684 normalsequencer 0;
#X obj 5 -1019 tgl 15 0 empty empty empty 17 7 0 10 -262144 -1 -1 1
1;
#X floatatom 74 -1021 5 0 0 0 - #_amtseqfilt -;
#X obj 7 -977 f;
#X obj 42 -977 + 1;
#X obj 5 -936 hradio 16 1 0 6 empty empty empty 0 -8 0 10 -262144 -1
-1 3;
#X obj 5 -995 metro 200;
#X obj 7 -959 mod 6;
#X obj 5 -891 outlet;
#X text 12 -863 waveform;
#X text 218 -861 modulation wave form;
#X floatatom 164 -1026 5 0 0 0 - #_stpnum -;
#X obj 119 -975 spigot;
#X obj 116 -1022 tgl 15 0 empty empty empty 17 7 0 10 -262144 -1 -1
0 1;
#X obj 118 -996 random 7;
#X obj 218 -1018 tgl 15 0 empty empty empty 17 7 0 10 -262144 -1 -1
1 1;
#X floatatom 287 -1020 5 0 0 0 - #_amtseqfilt -;
#X obj 220 -976 f;
#X obj 255 -976 + 1;
#X obj 218 -935 hradio 16 1 0 6 empty empty empty 0 -8 0 10 -262144
-1 -1 0;
#X obj 218 -994 metro 200;
#X obj 220 -958 mod 6;
#X obj 218 -890 outlet;
#X floatatom 377 -1025 5 0 0 0 - #_stpnum -;
#X obj 332 -974 spigot;
#X obj 329 -1021 tgl 15 0 empty empty empty 17 7 0 10 -262144 -1 -1
0 1;
#X obj 331 -995 random 7;
#X obj 225 -789 f;
#X obj 260 -789 + 1;
#X obj 225 -749 hradio 16 1 0 10 empty empty empty 0 -8 0 10 -262144
-1 -1 0;
#X obj 225 -811 metro 200;
#X text 285 -626 modfreq;
#X obj 225 -771 mod 10;
#X obj 225 -727 / 10;
#X obj 225 -677 line 0 200;
#X obj 225 -704 list;
#X obj 283 -647 outlet;
#X obj 402 -790 f;
#X obj 437 -790 + 1;
#X obj 402 -750 hradio 16 1 0 10 empty empty empty 0 -8 0 10 -262144
-1 -1 7;
#X obj 402 -812 metro 200;
#X obj 402 -772 mod 10;
#X obj 402 -728 / 10;
#X obj 402 -678 line 0 200;
#X obj 402 -705 list;
#X obj 460 -648 outlet;
#X text 462 -628 modamp;
#X obj 604 -786 f;
#X obj 639 -786 + 1;
#X obj 604 -808 metro 200;
#X obj 604 -674 line 0 200;
#X obj 604 -701 list;
#X obj 662 -644 outlet;
#X obj 796 -787 f;
#X obj 831 -787 + 1;
#X obj 796 -747 hradio 16 1 1 3 empty empty empty 0 -8 0 10 -262144
-1 -1 1;
#X obj 796 -809 metro 200;
#X obj 797 -680 line 0 200;
#X obj 796 -702 list;
#X obj 854 -645 outlet;
#X text 675 -607 filterfrequency;
#X text 849 -613 filterQ;
#X floatatom 946 -679 5 0 0 0 - - -;
#X obj 796 -768 mod 3;
#X floatatom 617 -631 5 0 0 0 - - -;
#X obj 605 -753 mod 10000;
#X obj 223 -838 tgl 15 0 empty empty empty 17 7 0 10 -262144 -1 -1
0 1;
#X floatatom 273 -840 5 0 0 0 - - -;
#X obj 398 -836 tgl 15 0 empty empty empty 17 7 0 10 -262144 -1 -1
0 1;
#X floatatom 448 -838 5 0 0 0 - - -;
#X obj 603 -834 tgl 15 0 empty empty empty 17 7 0 10 -262144 -1 -1
0 1;
#X floatatom 653 -836 5 0 0 0 - - -;
#X obj 797 -830 tgl 15 0 empty empty empty 17 7 0 10 -262144 -1 -1
0 1;
#X floatatom 847 -832 5 0 0 0 - - -;
#X connect 0 0 5 0;
#X connect 1 0 5 1;
#X connect 2 0 3 0;
#X connect 2 0 6 0;
#X connect 3 0 2 1;
#X connect 4 0 7 0;
#X connect 5 0 2 0;
#X connect 5 0 13 0;
#X connect 6 0 4 0;
#X connect 11 0 7 0;
#X connect 12 0 11 1;
#X connect 13 0 11 0;
#X connect 14 0 19 0;
#X connect 15 0 19 1;
#X connect 16 0 17 0;
#X connect 16 0 20 0;
#X connect 17 0 16 1;
#X connect 18 0 21 0;
#X connect 19 0 16 0;
#X connect 19 0 25 0;
#X connect 20 0 18 0;
#X connect 23 0 21 0;
#X connect 24 0 23 1;
#X connect 25 0 23 0;
#X connect 26 0 27 0;
#X connect 26 0 31 0;
#X connect 27 0 26 1;
#X connect 28 0 32 0;
#X connect 29 0 26 0;
#X connect 31 0 28 0;
#X connect 32 0 34 0;
#X connect 33 0 35 0;
#X connect 34 0 33 0;
#X connect 36 0 37 0;
#X connect 36 0 40 0;
#X connect 37 0 36 1;
#X connect 38 0 41 0;
#X connect 39 0 36 0;
#X connect 40 0 38 0;
#X connect 41 0 43 0;
#X connect 42 0 44 0;
#X connect 43 0 42 0;
#X connect 46 0 47 0;
#X connect 46 0 64 0;
#X connect 47 0 46 1;
#X connect 48 0 46 0;
#X connect 49 0 51 0;
#X connect 49 0 63 0;
#X connect 50 0 49 0;
#X connect 52 0 53 0;
#X connect 52 0 62 0;
#X connect 53 0 52 1;
#X connect 54 0 57 0;
#X connect 55 0 52 0;
#X connect 56 0 58 0;
#X connect 56 0 61 0;
#X connect 57 0 56 0;
#X connect 62 0 54 0;
#X connect 64 0 50 0;
#X connect 65 0 29 0;
#X connect 66 0 29 1;
#X connect 66 0 34 1;
#X connect 67 0 39 0;
#X connect 68 0 39 1;
#X connect 68 0 43 1;
#X connect 69 0 48 0;
#X connect 70 0 48 1;
#X connect 70 0 50 1;
#X connect 71 0 55 0;
#X connect 72 0 57 1;
#X restore 194 -17 pd normalsequencer;
#X connect 1 0 13 0;
#X connect 1 1 14 0;
#X connect 2 0 1 0;
#X connect 2 1 1 1;
#X connect 2 2 1 3;
#X connect 3 0 1 1;
#X connect 8 0 7 0;
#X connect 12 0 2 0;
#X connect 15 0 1 4;
#X connect 15 1 1 5;
#X connect 15 2 1 6;
#X connect 15 3 1 7;
#X connect 15 4 1 8;
#X connect 15 5 1 9;
#X connect 15 6 1 10;
#X connect 15 7 1 11;
#X connect 16 0 1 5;
#X connect 16 1 1 6;
#X connect 16 2 1 12;
#X connect 16 3 1 13;
#X connect 16 4 1 14;
#X connect 16 5 1 15;
#X coords 0 -1 1 1 220 370 1 100 100;
