#N canvas 494 4 504 483 10;
#X declare -lib mrpeach;
#X obj 117 36 polywavesynth;
#X obj 164 385 dac~;
#X obj 115 -28 notein;
#X text 159 -28 MIDI in;
#X obj 115 -1 mtof;
#X obj 179 -1 / 127;
#X text 146 0 freq.;
#X text 215 0 amp.;
#X connect 0 0 1 0;
#X connect 0 1 1 1;
#X connect 2 0 4 0;
#X connect 2 1 5 0;
#X connect 4 0 0 0;
#X connect 5 0 0 1;
