#N canvas 315 50 1014 470 10;
#X obj 178 -11 noise~;
#X obj 204 118 *~;
#X obj 178 41 lop~;
#X obj 85 61 pink~;
#X obj 38 141 *~;
#X obj -46 75 line;
#X obj 106 122 bng 15 250 50 0 empty empty empty 17 7 0 10 -262144
-1 -1;
#X obj -30 125 / 100;
#X obj -22 -32 metro 1000;
#X obj -22 -55 tgl 15 0 empty empty empty 17 7 0 10 -262144 -1 -1 0
1;
#X msg -52 52 \$1 1500;
#X obj 14 -10 random 3500;
#X obj 471 72 line;
#X obj 142 122 bng 15 250 50 0 empty empty empty 17 7 0 10 -262144
-1 -1;
#X obj 487 122 / 100;
#X obj 495 -35 metro 1000;
#X obj 495 -58 tgl 15 0 empty empty empty 17 7 0 10 -262144 -1 -1 0
1;
#X msg 465 49 \$1 1500;
#X obj 531 -13 random 3500;
#X obj 313 54 line;
#X obj 124 122 bng 15 250 50 0 empty empty empty 17 7 0 10 -262144
-1 -1;
#X obj 337 -53 metro 1000;
#X obj 337 -76 tgl 15 0 empty empty empty 17 7 0 10 -262144 -1 -1 0
1;
#X msg 307 31 \$1 1500;
#X obj 373 -31 random 3500;
#X obj 329 105 / 10;
#X obj 702 40 line;
#X obj 161 122 bng 15 250 50 0 empty empty empty 17 7 0 10 -262144
-1 -1;
#X obj 718 90 / 100;
#X obj 726 -67 metro 1000;
#X obj 726 -90 tgl 15 0 empty empty empty 17 7 0 10 -262144 -1 -1 0
1;
#X msg 696 17 \$1 1500;
#X obj 762 -45 random 3500;
#X obj 629 170 *~;
#X obj 628 118 pink~;
#X obj 107 103 bng 15 250 50 0 empty empty wind_on 17 7 0 10 -262144
-1 -1;
#X obj 146 321 s~ pwindR;
#X obj 74 321 s~ pwindL;
#X obj 285 -21 cyclone/drunk 100 25;
#X obj 443 -3 cyclone/drunk 100 25;
#X obj 674 -35 cyclone/drunk 100 25;
#X obj -74 0 cyclone/drunk 100 25;
#X connect 0 0 2 0;
#X connect 1 0 37 0;
#X connect 1 0 36 0;
#X connect 2 0 1 0;
#X connect 3 0 4 0;
#X connect 4 0 37 0;
#X connect 5 0 7 0;
#X connect 6 0 41 0;
#X connect 7 0 4 1;
#X connect 8 0 6 0;
#X connect 8 0 11 0;
#X connect 9 0 8 0;
#X connect 10 0 5 0;
#X connect 11 0 8 1;
#X connect 12 0 14 0;
#X connect 13 0 39 0;
#X connect 14 0 1 1;
#X connect 15 0 13 0;
#X connect 15 0 18 0;
#X connect 16 0 15 0;
#X connect 17 0 12 0;
#X connect 18 0 15 1;
#X connect 19 0 25 0;
#X connect 20 0 38 0;
#X connect 21 0 20 0;
#X connect 21 0 24 0;
#X connect 22 0 21 0;
#X connect 23 0 19 0;
#X connect 24 0 21 1;
#X connect 25 0 2 1;
#X connect 26 0 28 0;
#X connect 27 0 40 0;
#X connect 28 0 33 1;
#X connect 29 0 27 0;
#X connect 29 0 32 0;
#X connect 30 0 29 0;
#X connect 31 0 26 0;
#X connect 32 0 29 1;
#X connect 33 0 36 0;
#X connect 34 0 33 0;
#X connect 35 0 9 0;
#X connect 35 0 22 0;
#X connect 35 0 16 0;
#X connect 35 0 30 0;
#X connect 38 0 23 0;
#X connect 39 0 17 0;
#X connect 40 0 31 0;
#X connect 41 0 10 0;
#X coords 0 -1 1 1 85 40 1 100 100;
