#N canvas 0 0 1366 684 10;
#X obj 99 100 cnv 15 200 300 empty empty empty 20 12 0 14 -13381 -66577
0;
#X obj -300 57 *~;
#X obj -273 58 *~;
#X obj -242 57 *~;
#X obj 156 292 tgl 15 0 empty empty empty 17 7 0 10 -262144 -1 -1 0
1;
#X obj 211 290 tgl 15 0 empty empty empty 17 7 0 10 -262144 -1 -1 0
1;
#X obj 186 276 tgl 15 0 empty empty empty 17 7 0 10 -262144 -1 -1 1
1;
#X text 158 272 1;
#X text 212 270 2;
#X text 185 260 3;
#X obj -299 22 inlet~;
#X obj 122 180 vsl 15 75 0 1 0 0 empty empty empty 0 -9 0 10 -262144
-1 -1 0 1;
#X obj 144 180 vsl 15 75 0 1 0 0 empty empty empty 0 -9 0 10 -262144
-1 -1 0 1;
#X obj -247 442 *~;
#X obj -184 442 *~;
#X obj -120 441 *~;
#X obj -85 378 loadbang;
#X msg -64 401 1;
#X obj 218 177 bng 15 250 50 0 empty empty empty 17 7 0 10 -262144
-1 -1;
#X obj 219 211 bng 15 250 50 0 empty empty empty 17 7 0 10 -262144
-1 -1;
#X text 216 224 0.5;
#X obj 219 240 bng 15 250 50 0 empty empty empty 17 7 0 10 -262144
-1 -1;
#X msg -27 406 0.5;
#X msg 8 405 0;
#X obj 123 120 tgl 15 0 empty empty empty 17 7 0 10 -262144 -1 -1 2
2;
#X floatatom 151 119 5 0 0 0 - - -;
#X obj 234 -352 random;
#X obj 206 -322 spigot;
#X obj 197 119 tgl 15 0 empty empty empty 17 7 0 10 -262144 -1 -1 0
1;
#X floatatom 226 119 5 0 0 0 - - -;
#X obj 141 -323 f;
#X obj 173 -323 + 1;
#X obj 141 -264 + 1;
#X floatatom 125 152 5 0 0 0 - - -;
#X msg 146 -15 1;
#X msg 375 77 0;
#X floatatom 202 151 5 0 0 0 - - -;
#X obj 319 -324 spigot;
#X obj 178 152 tgl 15 0 empty empty empty 17 7 0 10 -262144 -1 -1 2
2;
#X obj 282 120 bng 15 250 50 0 empty empty empty 17 7 0 10 -262144
-1 -1;
#X msg 489 -364 0;
#X obj 141 -354 metro 200;
#X msg 180 -14 1;
#X msg 438 75 0;
#X msg 221 -15 1;
#X msg 503 72 0;
#X obj 417 -15 spigot;
#X obj 263 151 tgl 15 0 empty empty empty 17 7 0 10 -262144 -1 -1 1
1;
#X obj 174 312 vradio 15 1 0 2 empty empty empty 0 -8 0 10 -262144
-1 -1 0;
#X obj 173 -72 + 1;
#X obj 198 312 vradio 15 1 0 2 empty empty empty 0 -8 0 10 -262144
-1 -1 1;
#X obj 201 -72 + 1;
#X obj 229 -72 + 1;
#X obj 317 -349 + 50;
#X obj 376 51 delay 200;
#X obj 438 50 delay 200;
#X obj 503 50 delay 200;
#X obj 114 56 inlet;
#X obj 220 74 inlet;
#X obj 281 76 inlet;
#X obj 327 80 inlet;
#X text 123 103 seq;
#X text 149 104 rate;
#X text 196 102 dust;
#X text 223 102 density;
#X text 122 135 channels;
#X text 201 135 decay;
#X text 277 102 rst;
#X text 253 136 sychVari;
#X obj -28 529 outlet~;
#X obj -227 532 outlet~;
#X obj 51 66 inlet;
#X obj 44 104 spigot;
#X obj 418 -37 inlet;
#X obj 166 348 tgl 50 0 empty $_globalsynch global_synch 17 7 0 10
-83269 -1 -1 0 1;
#X obj 4 -13 r glob_clock;
#X obj 182 178 vsl 15 75 0 1 0 0 empty empty empty 0 -9 0 10 -262144
-1 -1 7400 1;
#X obj 199 -247 select 1 2;
#X obj 540 -141 select 1 2;
#X obj 141 -290 mod 2;
#X msg -26 436 2;
#X obj -254 26 inlet~;
#X msg 21 470 1;
#X connect 1 0 13 0;
#X connect 2 0 14 0;
#X connect 3 0 15 0;
#X connect 4 0 1 1;
#X connect 5 0 2 1;
#X connect 6 0 3 1;
#X connect 10 0 1 0;
#X connect 10 0 3 0;
#X connect 11 0 13 1;
#X connect 12 0 14 1;
#X connect 13 0 70 0;
#X connect 14 0 69 0;
#X connect 15 0 70 0;
#X connect 15 0 69 0;
#X connect 16 0 17 0;
#X connect 16 0 80 0;
#X connect 16 0 82 0;
#X connect 17 0 11 0;
#X connect 17 0 12 0;
#X connect 17 0 76 0;
#X connect 18 0 17 0;
#X connect 19 0 22 0;
#X connect 21 0 23 0;
#X connect 22 0 12 0;
#X connect 22 0 11 0;
#X connect 22 0 76 0;
#X connect 23 0 12 0;
#X connect 23 0 11 0;
#X connect 23 0 76 0;
#X connect 24 0 38 0;
#X connect 24 0 41 0;
#X connect 25 0 41 1;
#X connect 25 0 53 0;
#X connect 26 0 27 0;
#X connect 27 0 25 0;
#X connect 28 0 27 1;
#X connect 29 0 26 1;
#X connect 30 0 31 0;
#X connect 30 0 79 0;
#X connect 31 0 30 1;
#X connect 32 0 77 0;
#X connect 33 0 79 1;
#X connect 34 0 4 0;
#X connect 35 0 4 0;
#X connect 36 0 54 1;
#X connect 36 0 55 1;
#X connect 36 0 56 1;
#X connect 37 0 54 1;
#X connect 37 0 55 1;
#X connect 37 0 56 1;
#X connect 37 0 36 0;
#X connect 38 0 37 1;
#X connect 39 0 40 0;
#X connect 40 0 38 0;
#X connect 40 0 28 0;
#X connect 40 0 24 0;
#X connect 40 0 47 0;
#X connect 41 0 26 0;
#X connect 41 0 30 0;
#X connect 42 0 5 0;
#X connect 43 0 5 0;
#X connect 44 0 6 0;
#X connect 45 0 6 0;
#X connect 46 0 25 0;
#X connect 47 0 46 1;
#X connect 47 0 72 1;
#X connect 48 0 49 0;
#X connect 49 0 78 0;
#X connect 50 0 51 0;
#X connect 51 0 78 0;
#X connect 52 0 78 0;
#X connect 53 0 37 0;
#X connect 54 0 35 0;
#X connect 55 0 43 0;
#X connect 56 0 45 0;
#X connect 57 0 25 0;
#X connect 58 0 29 0;
#X connect 59 0 33 0;
#X connect 60 0 36 0;
#X connect 71 0 72 0;
#X connect 72 0 24 0;
#X connect 73 0 46 0;
#X connect 74 0 47 0;
#X connect 75 0 25 0;
#X connect 76 0 15 1;
#X connect 77 0 48 0;
#X connect 77 1 50 0;
#X connect 78 0 34 0;
#X connect 78 0 54 0;
#X connect 78 1 42 0;
#X connect 78 1 55 0;
#X connect 78 2 44 0;
#X connect 78 2 56 0;
#X connect 79 0 32 0;
#X connect 80 0 33 0;
#X connect 80 0 50 0;
#X connect 81 0 2 0;
#X connect 81 0 3 0;
#X connect 82 0 47 0;
#X coords 0 -1 1 1 200 300 1 100 100;
