#N canvas 315 0 1250 702 10;
#X obj -300 52 *~;
#X obj -273 53 *~;
#X obj -242 52 *~;
#X obj -213 53 *~;
#X obj -183 53 *~;
#X obj 169 231 tgl 15 0 empty empty empty 17 7 0 10 -262144 -1 -1 0
1;
#X obj 208 233 tgl 15 0 empty empty empty 17 7 0 10 -262144 -1 -1 0
1;
#X obj 144 257 tgl 15 0 empty empty empty 17 7 0 10 -262144 -1 -1 0
1;
#X obj 230 261 tgl 15 0 empty empty empty 17 7 0 10 -262144 -1 -1 0
1;
#X obj 169 316 tgl 15 0 empty empty empty 17 7 0 10 -262144 -1 -1 0
1;
#X obj 204 317 tgl 15 0 empty empty empty 17 7 0 10 -262144 -1 -1 0
1;
#X obj 143 288 tgl 15 0 empty empty empty 17 7 0 10 -262144 -1 -1 0
1;
#X obj 229 290 tgl 15 0 empty empty empty 17 7 0 10 -262144 -1 -1 0
1;
#X text 171 212 1;
#X text 209 213 2;
#X text 144 242 3;
#X text 231 241 4;
#X text 171 300 6;
#X text 209 301 5;
#X text 230 274 8;
#X text 145 272 7;
#X obj -204 16 inlet~;
#X obj 119 135 vsl 15 75 0 1 0 0 empty empty empty 0 -9 0 10 -262144
-1 -1 7400 1;
#X obj 142 135 vsl 15 75 0 1 0 0 empty empty empty 0 -9 0 10 -262144
-1 -1 7400 1;
#X obj 165 135 vsl 15 75 0 1 0 0 empty empty empty 0 -9 0 10 -262144
-1 -1 7400 1;
#X obj 189 135 vsl 15 75 0 1 0 0 empty empty empty 0 -9 0 10 -262144
-1 -1 7400 1;
#X obj 212 135 vsl 15 75 0 1 0 0 empty empty empty 0 -9 0 10 -262144
-1 -1 7400 1;
#X obj -263 243 ctlin;
#X obj -263 265 / 127;
#X obj -222 243 ctlin;
#X obj -222 265 / 127;
#X obj -247 437 *~;
#X obj -183 242 ctlin;
#X obj -183 264 / 127;
#X obj -142 242 ctlin;
#X obj -142 264 / 127;
#X obj -102 241 ctlin;
#X obj -102 263 / 127;
#X obj -61 241 ctlin;
#X obj -61 263 / 127;
#X obj -22 241 ctlin;
#X obj -22 263 / 127;
#X obj 19 241 ctlin;
#X obj 19 263 / 127;
#X obj -184 437 *~;
#X obj -120 436 *~;
#X obj -59 437 *~;
#X obj 3 435 *~;
#X obj 24 351 loadbang;
#X msg 45 374 1;
#X obj 305 131 bng 15 250 50 0 empty empty empty 17 7 0 10 -262144
-1 -1;
#X obj 306 165 bng 15 250 50 0 empty empty empty 17 7 0 10 -262144
-1 -1;
#X text 303 178 0.5;
#X obj 306 194 bng 15 250 50 0 empty empty empty 17 7 0 10 -262144
-1 -1;
#X msg 82 379 0.5;
#X msg 117 378 0;
#X obj 119 114 tgl 15 0 empty empty empty 17 7 0 10 -262144 -1 -1 0
2;
#X floatatom 147 113 5 0 0 0 - - -;
#X obj 234 -357 random;
#X obj 206 -327 spigot;
#X obj 193 113 tgl 15 0 empty empty empty 17 7 0 10 -262144 -1 -1 0
1;
#X floatatom 221 113 5 0 0 0 - - -;
#X obj 141 -328 f;
#X obj 173 -328 + 1;
#X obj 141 -269 + 1;
#X floatatom 280 113 5 0 0 0 - - -;
#X msg 146 -20 1;
#X msg 375 72 0;
#X floatatom 358 113 5 0 0 0 - - -;
#X obj 319 -329 spigot;
#X obj 334 114 tgl 15 0 empty empty empty 17 7 0 10 -262144 -1 -1 0
2;
#X obj 467 115 bng 15 250 50 0 empty empty empty 17 7 0 10 -262144
-1 -1;
#X msg 489 -369 0;
#X obj 141 -359 metro 200;
#X msg 180 -19 1;
#X msg 438 70 0;
#X msg 224 -17 1;
#X msg 503 67 0;
#X msg 260 -18 1;
#X msg 566 68 0;
#X msg 302 -20 1;
#X msg 627 67 0;
#X obj 5 -380 r sncrate;
#X obj 5 -358 spigot;
#X obj 411 114 tgl 15 0 empty empty empty 17 7 0 10 -262144 -1 -1 0
1;
#X floatatom 99 -239 5 0 0 0 - - -;
#X obj 263 223 vradio 15 1 0 8 empty empty empty 0 -8 0 10 -262144
-1 -1 0;
#X obj 173 -77 + 1;
#X obj 291 223 vradio 15 1 0 8 empty empty empty 0 -8 0 10 -262144
-1 -1 0;
#X obj 201 -77 + 1;
#X obj 319 223 vradio 15 1 0 8 empty empty empty 0 -8 0 10 -262144
-1 -1 0;
#X obj 229 -77 + 1;
#X obj 347 223 vradio 15 1 0 8 empty empty empty 0 -8 0 10 -262144
-1 -1 0;
#X obj 257 -77 + 1;
#X obj 375 223 vradio 15 1 0 8 empty empty empty 0 -8 0 10 -262144
-1 -1 0;
#X obj 285 -77 + 1;
#X obj 319 -350 + 50;
#X obj 376 46 delay 200;
#X obj 438 45 delay 200;
#X obj 503 45 delay 200;
#X obj 565 44 delay 200;
#X obj 627 44 delay 200;
#X obj 91 48 inlet;
#X obj 227 69 inlet;
#X obj 281 71 inlet;
#X obj 327 75 inlet;
#X text 119 97 seq;
#X text 145 98 rate;
#X text 192 96 dust;
#X text 219 96 density;
#X text 278 97 channels;
#X text 357 97 decay;
#X text 469 98 rst;
#X text 409 98 sychVari;
#X obj 130 526 outlet~;
#X obj -227 527 outlet~;
#X obj 51 61 inlet;
#X obj 44 99 spigot;
#X obj -76 549 dac~ 1 2 3 4 5;
#X obj 199 -252 select 1 2 3 4 5;
#X obj 706 -321 select 1 2 3 4 5;
#X obj 141 -295 mod 6;
#X connect 0 0 31 0;
#X connect 1 0 44 0;
#X connect 2 0 45 0;
#X connect 3 0 46 0;
#X connect 4 0 47 0;
#X connect 5 0 0 1;
#X connect 6 0 1 1;
#X connect 7 0 2 1;
#X connect 8 0 3 1;
#X connect 10 0 4 1;
#X connect 21 0 0 0;
#X connect 21 0 1 0;
#X connect 21 0 2 0;
#X connect 21 0 3 0;
#X connect 21 0 4 0;
#X connect 22 0 31 1;
#X connect 23 0 44 1;
#X connect 24 0 45 1;
#X connect 25 0 46 1;
#X connect 26 0 47 1;
#X connect 27 0 28 0;
#X connect 28 0 22 0;
#X connect 29 0 30 0;
#X connect 30 0 23 0;
#X connect 31 0 115 0;
#X connect 31 0 118 0;
#X connect 32 0 33 0;
#X connect 33 0 24 0;
#X connect 34 0 35 0;
#X connect 35 0 25 0;
#X connect 36 0 37 0;
#X connect 37 0 26 0;
#X connect 38 0 39 0;
#X connect 40 0 41 0;
#X connect 42 0 43 0;
#X connect 44 0 114 0;
#X connect 44 0 118 1;
#X connect 45 0 115 0;
#X connect 45 0 118 2;
#X connect 46 0 114 0;
#X connect 46 0 118 3;
#X connect 47 0 114 0;
#X connect 47 0 118 4;
#X connect 48 0 49 0;
#X connect 49 0 22 0;
#X connect 49 0 23 0;
#X connect 49 0 24 0;
#X connect 49 0 25 0;
#X connect 49 0 26 0;
#X connect 50 0 49 0;
#X connect 51 0 54 0;
#X connect 53 0 55 0;
#X connect 54 0 26 0;
#X connect 54 0 25 0;
#X connect 54 0 24 0;
#X connect 54 0 23 0;
#X connect 54 0 22 0;
#X connect 55 0 26 0;
#X connect 55 0 25 0;
#X connect 55 0 24 0;
#X connect 55 0 23 0;
#X connect 55 0 22 0;
#X connect 56 0 70 0;
#X connect 56 0 73 0;
#X connect 57 0 73 1;
#X connect 57 0 96 0;
#X connect 58 0 59 0;
#X connect 59 0 57 0;
#X connect 60 0 59 1;
#X connect 61 0 58 1;
#X connect 62 0 63 0;
#X connect 62 0 121 0;
#X connect 63 0 62 1;
#X connect 64 0 85 0;
#X connect 64 0 119 0;
#X connect 65 0 121 1;
#X connect 66 0 5 0;
#X connect 67 0 5 0;
#X connect 68 0 97 1;
#X connect 68 0 98 1;
#X connect 68 0 99 1;
#X connect 68 0 100 1;
#X connect 68 0 101 1;
#X connect 69 0 97 1;
#X connect 69 0 98 1;
#X connect 69 0 99 1;
#X connect 69 0 100 1;
#X connect 69 0 101 1;
#X connect 70 0 69 1;
#X connect 71 0 72 0;
#X connect 72 0 70 0;
#X connect 72 0 60 0;
#X connect 72 0 56 0;
#X connect 72 0 84 0;
#X connect 73 0 58 0;
#X connect 73 0 62 0;
#X connect 74 0 6 0;
#X connect 75 0 6 0;
#X connect 76 0 7 0;
#X connect 77 0 7 0;
#X connect 78 0 8 0;
#X connect 79 0 8 0;
#X connect 80 0 10 0;
#X connect 81 0 10 0;
#X connect 82 0 83 0;
#X connect 83 0 57 0;
#X connect 84 0 83 1;
#X connect 84 0 117 1;
#X connect 86 0 87 0;
#X connect 87 0 120 0;
#X connect 88 0 89 0;
#X connect 89 0 120 0;
#X connect 90 0 91 0;
#X connect 91 0 120 0;
#X connect 92 0 93 0;
#X connect 93 0 120 0;
#X connect 94 0 95 0;
#X connect 95 0 120 0;
#X connect 96 0 69 0;
#X connect 97 0 67 0;
#X connect 98 0 75 0;
#X connect 99 0 77 0;
#X connect 100 0 79 0;
#X connect 101 0 81 0;
#X connect 102 0 57 0;
#X connect 103 0 61 0;
#X connect 104 0 65 0;
#X connect 105 0 68 0;
#X connect 116 0 117 0;
#X connect 117 0 56 0;
#X connect 119 0 86 0;
#X connect 119 1 88 0;
#X connect 119 2 90 0;
#X connect 119 3 92 0;
#X connect 119 4 94 0;
#X connect 120 0 66 0;
#X connect 120 0 97 0;
#X connect 120 1 74 0;
#X connect 120 1 98 0;
#X connect 120 2 76 0;
#X connect 120 2 99 0;
#X connect 120 3 78 0;
#X connect 120 3 100 0;
#X connect 120 4 80 0;
#X connect 120 4 101 0;
#X connect 121 0 64 0;
#X coords 0 -1 1 1 400 260 1 100 100;
