#N canvas -2 11 1370 629 10;
#X obj 108 106 tgl 15 0 empty empty Waveform 17 7 0 10 -262144 -1 -1
0 1;
#X floatatom 176 113 5 0 0 0 Speed - -;
#X obj 129 339 f;
#X obj 164 339 + 1;
#X obj 127 380 hradio 16 1 0 6 empty empty empty 0 -8 0 10 -262144
-1 -1 0;
#X obj 127 321 metro 200;
#X obj 129 357 mod 6;
#X obj 127 425 outlet;
#X text 134 453 waveform;
#X text 340 455 modulation wave form;
#X obj 241 341 spigot;
#X obj 128 126 tgl 15 0 empty empty random 17 7 0 10 -262144 -1 -1
0 1;
#X obj 240 320 random 7;
#X obj 227 111 tgl 15 0 empty empty mod 17 7 0 10 -262144 -1 -1 0 1
;
#X floatatom 278 119 5 0 0 0 speed - -;
#X obj 342 340 f;
#X obj 377 340 + 1;
#X obj 340 381 hradio 16 1 0 6 empty empty empty 0 -8 0 10 -262144
-1 -1 0;
#X obj 340 322 metro 200;
#X obj 342 358 mod 6;
#X obj 340 426 outlet;
#X obj 454 342 spigot;
#X obj 249 138 tgl 15 0 empty empty random 17 7 0 10 -262144 -1 -1
0 1;
#X obj 453 321 random 7;
#X text 407 690 modfreq;
#X obj 341 648 outlet;
#X obj 524 526 f;
#X obj 559 526 + 1;
#X obj 524 504 metro 200;
#X obj 524 567 / 10;
#X obj 582 668 outlet;
#X text 584 688 modamp;
#X obj 726 530 f;
#X obj 761 530 + 1;
#X obj 723 505 metro 200;
#X obj 784 672 outlet;
#X obj 918 529 f;
#X obj 953 529 + 1;
#X obj 918 507 metro 200;
#X obj 976 671 outlet;
#X text 797 709 filterfrequency;
#X text 971 703 filterQ;
#X obj 918 548 mod 3;
#X obj 726 554 mod 10000;
#X obj 108 153 tgl 15 0 empty empty fSweep 17 7 0 10 -262144 -1 -1
0 1;
#X floatatom 165 160 5 0 0 0 speed - -;
#X obj 224 157 tgl 15 0 empty empty modAmp 17 7 0 10 -262144 -1 -1
0 1;
#X floatatom 281 164 5 0 0 0 Speed - -;
#X obj 108 181 tgl 15 0 empty empty filterF 17 7 0 10 -262144 -1 -1
0 1;
#X floatatom 168 189 5 0 0 0 speed - -;
#X obj 226 186 tgl 15 0 empty empty FilterQ 17 7 0 10 -262144 -1 -1
0 1;
#X floatatom 287 196 5 0 0 0 Speed - -;
#X msg 341 551 \$1 \$2;
#X obj 341 529 list;
#X msg 583 619 \$1 \$2;
#X obj 583 647 line;
#X obj 583 589 list;
#X msg 988 601 \$1 \$2;
#X obj 988 629 line;
#X obj 988 571 list;
#X msg 781 618 \$1 \$2;
#X obj 781 646 line;
#X obj 781 588 list;
#X obj 524 544 mod 11;
#X obj 1049 469 delay;
#X obj 1000 170 metro;
#X floatatom 1041 132 5 0 0 0 - - -;
#X obj 1043 153 t f f;
#X obj 1000 132 tgl 15 0 empty empty empty 17 7 0 10 -262144 -1 -1
0 1;
#X obj 1049 424 bng 15 250 50 0 empty empty empty 17 7 0 10 -262144
-1 -1;
#X obj 1104 413 * 12;
#X obj 924 344 spigot;
#X obj 1049 495 alternate;
#X msg 1049 516 0;
#X msg 1100 517 1;
#X obj 913 235 bng 15 250 50 0 empty empty empty 17 7 0 10 -262144
-1 -1;
#X obj 1002 204 f;
#X obj 1037 204 + 1;
#X obj 1002 254 / 10;
#X floatatom 1002 278 5 0 0 0 - - -;
#X msg 1206 444 \$1 \$2;
#X obj 1206 472 line;
#X obj 1206 423 list;
#X floatatom 1209 495 5 0 0 0 - - -;
#X floatatom 962 226 5 0 0 0 - - -;
#X obj 1045 253 select 10;
#X obj 1002 303 spigot;
#X msg 1044 274 0;
#X floatatom 1096 276 5 0 0 0 - - -;
#X floatatom 1040 353 5 0 0 0 - - -;
#X msg 1230 354 1;
#X obj 1002 230 mod 21;
#X obj 1230 333 select 20;
#X obj 1156 263 - 1;
#X floatatom 798 141 5 0 0 0 - - -;
#X obj 341 506 unsig~;
#X obj 341 484 phasor~ 500;
#X msg 916 120 \$1 \$2;
#X obj 916 99 list;
#X floatatom 916 164 5 0 0 0 - - -;
#X obj 916 142 line 0 1;
#X obj 341 573 line 0 1;
#X obj 341 611 spigot;
#X connect 0 0 5 0;
#X connect 1 0 5 1;
#X connect 2 0 3 0;
#X connect 2 0 6 0;
#X connect 3 0 2 1;
#X connect 4 0 7 0;
#X connect 5 0 2 0;
#X connect 5 0 12 0;
#X connect 6 0 4 0;
#X connect 10 0 7 0;
#X connect 11 0 10 1;
#X connect 12 0 10 0;
#X connect 13 0 18 0;
#X connect 14 0 18 1;
#X connect 15 0 16 0;
#X connect 15 0 19 0;
#X connect 16 0 15 1;
#X connect 17 0 20 0;
#X connect 18 0 15 0;
#X connect 18 0 23 0;
#X connect 19 0 17 0;
#X connect 21 0 20 0;
#X connect 22 0 21 1;
#X connect 23 0 21 0;
#X connect 26 0 27 0;
#X connect 26 0 63 0;
#X connect 27 0 26 1;
#X connect 28 0 26 0;
#X connect 29 0 56 0;
#X connect 32 0 33 0;
#X connect 32 0 43 0;
#X connect 33 0 32 1;
#X connect 34 0 32 0;
#X connect 36 0 37 0;
#X connect 36 0 42 0;
#X connect 37 0 36 1;
#X connect 38 0 36 0;
#X connect 42 0 59 0;
#X connect 43 0 62 0;
#X connect 44 0 102 1;
#X connect 45 0 53 1;
#X connect 45 0 96 0;
#X connect 45 0 98 1;
#X connect 46 0 28 0;
#X connect 47 0 28 1;
#X connect 47 0 56 1;
#X connect 48 0 34 0;
#X connect 49 0 34 1;
#X connect 49 0 62 1;
#X connect 50 0 38 0;
#X connect 51 0 59 1;
#X connect 51 0 38 1;
#X connect 52 0 101 0;
#X connect 53 0 52 0;
#X connect 54 0 55 0;
#X connect 55 0 30 0;
#X connect 56 0 54 0;
#X connect 57 0 58 0;
#X connect 58 0 39 0;
#X connect 59 0 57 0;
#X connect 60 0 61 0;
#X connect 61 0 35 0;
#X connect 62 0 60 0;
#X connect 63 0 29 0;
#X connect 64 0 72 0;
#X connect 65 0 76 0;
#X connect 66 0 67 0;
#X connect 66 0 82 1;
#X connect 67 0 65 1;
#X connect 68 0 65 0;
#X connect 69 0 64 0;
#X connect 70 0 64 1;
#X connect 71 0 75 0;
#X connect 72 0 73 0;
#X connect 72 1 74 0;
#X connect 73 0 71 1;
#X connect 74 0 71 1;
#X connect 76 0 77 0;
#X connect 76 0 91 0;
#X connect 77 0 76 1;
#X connect 78 0 79 0;
#X connect 78 0 86 0;
#X connect 80 0 81 0;
#X connect 81 0 83 0;
#X connect 82 0 80 0;
#X connect 84 0 91 0;
#X connect 85 0 87 0;
#X connect 85 1 88 0;
#X connect 86 0 89 0;
#X connect 87 0 86 1;
#X connect 90 0 86 1;
#X connect 91 0 78 0;
#X connect 91 0 85 0;
#X connect 92 0 90 0;
#X connect 94 0 98 0;
#X connect 95 0 53 0;
#X connect 96 0 95 0;
#X connect 97 0 100 0;
#X connect 98 0 97 0;
#X connect 100 0 99 0;
#X connect 101 0 102 0;
#X connect 102 0 25 0;
#X coords 0 -1 1 1 230 140 1 100 100;
