#N canvas -4 -4 1366 684 10;
#X obj 108 106 tgl 15 0 empty empty Waveform 17 7 0 10 -262144 -1 -1
0 1;
#X floatatom 176 113 5 0 0 0 Speed - -;
#X obj 129 339 f;
#X obj 164 339 + 1;
#X obj 127 380 hradio 16 1 0 6 empty empty empty 0 -8 0 10 -262144
-1 -1 0;
#X obj 127 321 metro 200;
#X obj 129 357 mod 6;
#X obj 127 425 outlet;
#X text 134 453 waveform;
#X text 340 455 modulation wave form;
#X obj 241 341 spigot;
#X obj 128 126 tgl 15 0 empty empty random 17 7 0 10 -262144 -1 -1
0 1;
#X obj 240 320 random 7;
#X obj 227 111 tgl 15 0 empty empty mod 17 7 0 10 -262144 -1 -1 0 1
;
#X floatatom 278 119 5 0 0 0 speed - -;
#X obj 342 340 f;
#X obj 377 340 + 1;
#X obj 340 381 hradio 16 1 0 6 empty empty empty 0 -8 0 10 -262144
-1 -1 1;
#X obj 340 322 metro 200;
#X obj 342 358 mod 6;
#X obj 340 426 outlet;
#X obj 454 342 spigot;
#X obj 249 138 tgl 15 0 empty empty random 17 7 0 10 -262144 -1 -1
0 1;
#X obj 453 321 random 7;
#X obj 347 510 f;
#X obj 382 510 + 1;
#X obj 347 488 metro 200;
#X text 407 690 modfreq;
#X obj 332 554 / 10;
#X obj 49 651 line 0 200;
#X obj 49 624 list;
#X obj 405 669 outlet;
#X obj 524 526 f;
#X obj 559 526 + 1;
#X obj 524 504 metro 200;
#X obj 524 567 / 10;
#X obj 485 770 line 0 200;
#X obj 484 748 list;
#X obj 582 668 outlet;
#X text 584 688 modamp;
#X obj 726 530 f;
#X obj 761 530 + 1;
#X obj 723 505 metro 200;
#X obj 692 766 line 0 200;
#X obj 685 717 list;
#X obj 784 672 outlet;
#X obj 918 529 f;
#X obj 953 529 + 1;
#X obj 918 507 metro 200;
#X obj 912 777 line 0 200;
#X obj 906 751 list;
#X obj 976 671 outlet;
#X text 797 709 filterfrequency;
#X text 971 703 filterQ;
#X floatatom 1061 778 5 0 0 0 - - -;
#X obj 918 548 mod 3;
#X floatatom 733 739 5 0 0 0 - - -;
#X obj 726 554 mod 10000;
#X obj 108 153 tgl 15 0 empty empty fSweep 17 7 0 10 -262144 -1 -1
1 1;
#X floatatom 165 160 5 0 0 0 speed - -;
#X obj 224 157 tgl 15 0 empty empty modAmp 17 7 0 10 -262144 -1 -1
0 1;
#X floatatom 281 164 5 0 0 0 Speed - -;
#X obj 108 181 tgl 15 0 empty empty filterF 17 7 0 10 -262144 -1 -1
0 1;
#X floatatom 168 189 5 0 0 0 speed - -;
#X obj 226 186 tgl 15 0 empty empty FilterQ 17 7 0 10 -262144 -1 -1
0 1;
#X floatatom 287 196 5 0 0 0 Speed - -;
#X msg 258 617 \$1 \$2;
#X obj 258 645 line;
#X obj 258 596 list;
#X msg 583 619 \$1 \$2;
#X obj 583 647 line;
#X obj 583 589 list;
#X msg 988 601 \$1 \$2;
#X obj 988 629 line;
#X obj 988 571 list;
#X msg 781 618 \$1 \$2;
#X obj 781 646 line;
#X obj 781 588 list;
#X obj 347 528 mod 11;
#X obj 524 544 mod 11;
#X floatatom 239 693 5 0 0 0 - - -;
#X obj 403 603 alternate;
#X msg 454 625 1;
#X msg 403 625 0;
#X obj 326 594 spigot;
#X msg 65 744 0;
#X obj 388 568 select 10;
#X obj 101 686 * 10;
#X obj 107 713 f;
#X obj 47 705 delay;
#X obj 343 629 t b b b b;
#X obj 22 735 f;
#X obj 1000 264 delay;
#X obj 1000 170 metro;
#X floatatom 1041 132 5 0 0 0 - - -;
#X obj 1043 153 t f f;
#X obj 1000 132 tgl 15 0 empty empty empty 17 7 0 10 -262144 -1 -1
1 1;
#X obj 1000 219 bng 15 250 50 0 empty empty empty 17 7 0 10 -262144
-1 -1;
#X obj 1055 208 * 12;
#X obj 924 344 spigot;
#X obj 1000 290 alternate;
#X msg 1000 311 0;
#X msg 1051 312 1;
#X obj 913 235 bng 15 250 50 0 empty empty empty 17 7 0 10 -262144
-1 -1;
#X obj 834 178 f;
#X obj 869 178 + 1;
#X obj 819 222 / 10;
#X obj 834 196 mod 11;
#X floatatom 836 252 5 0 0 0 - - -;
#X obj 845 277 select 1;
#X msg 1118 364 \$1 \$2;
#X obj 1118 392 line;
#X obj 1118 343 list;
#X floatatom 1121 415 5 0 0 0 - - -;
#X connect 0 0 5 0;
#X connect 1 0 5 1;
#X connect 2 0 3 0;
#X connect 2 0 6 0;
#X connect 3 0 2 1;
#X connect 4 0 7 0;
#X connect 5 0 2 0;
#X connect 5 0 12 0;
#X connect 6 0 4 0;
#X connect 10 0 7 0;
#X connect 11 0 10 1;
#X connect 12 0 10 0;
#X connect 13 0 18 0;
#X connect 14 0 18 1;
#X connect 15 0 16 0;
#X connect 15 0 19 0;
#X connect 16 0 15 1;
#X connect 17 0 20 0;
#X connect 18 0 15 0;
#X connect 18 0 23 0;
#X connect 19 0 17 0;
#X connect 21 0 20 0;
#X connect 22 0 21 1;
#X connect 23 0 21 0;
#X connect 24 0 25 0;
#X connect 24 0 78 0;
#X connect 25 0 24 1;
#X connect 26 0 24 0;
#X connect 28 0 84 0;
#X connect 30 0 29 0;
#X connect 32 0 33 0;
#X connect 32 0 79 0;
#X connect 33 0 32 1;
#X connect 34 0 32 0;
#X connect 35 0 71 0;
#X connect 37 0 36 0;
#X connect 40 0 41 0;
#X connect 40 0 57 0;
#X connect 41 0 40 1;
#X connect 42 0 40 0;
#X connect 43 0 56 0;
#X connect 44 0 43 0;
#X connect 46 0 47 0;
#X connect 46 0 55 0;
#X connect 47 0 46 1;
#X connect 48 0 46 0;
#X connect 49 0 54 0;
#X connect 50 0 49 0;
#X connect 55 0 74 0;
#X connect 57 0 77 0;
#X connect 58 0 26 0;
#X connect 59 0 26 1;
#X connect 59 0 30 1;
#X connect 59 0 68 1;
#X connect 59 0 87 0;
#X connect 59 0 91 1;
#X connect 60 0 34 0;
#X connect 61 0 34 1;
#X connect 61 0 37 1;
#X connect 61 0 71 1;
#X connect 62 0 42 0;
#X connect 63 0 42 1;
#X connect 63 0 44 1;
#X connect 63 0 77 1;
#X connect 64 0 48 0;
#X connect 65 0 50 1;
#X connect 65 0 74 1;
#X connect 65 0 48 1;
#X connect 66 0 67 0;
#X connect 67 0 31 0;
#X connect 67 0 80 0;
#X connect 68 0 66 0;
#X connect 69 0 70 0;
#X connect 70 0 38 0;
#X connect 71 0 69 0;
#X connect 72 0 73 0;
#X connect 73 0 51 0;
#X connect 74 0 72 0;
#X connect 75 0 76 0;
#X connect 76 0 45 0;
#X connect 77 0 75 0;
#X connect 78 0 28 0;
#X connect 78 0 86 0;
#X connect 79 0 35 0;
#X connect 81 0 83 0;
#X connect 81 1 82 0;
#X connect 82 0 84 1;
#X connect 83 0 84 1;
#X connect 84 0 68 0;
#X connect 85 0 68 0;
#X connect 86 0 90 0;
#X connect 87 0 88 1;
#X connect 87 0 89 1;
#X connect 88 0 68 1;
#X connect 89 0 91 0;
#X connect 90 0 81 0;
#X connect 90 1 88 0;
#X connect 90 2 85 0;
#X connect 90 3 89 0;
#X connect 91 0 68 1;
#X connect 92 0 100 0;
#X connect 93 0 99 0;
#X connect 94 0 95 0;
#X connect 94 0 112 1;
#X connect 95 0 93 1;
#X connect 95 1 98 0;
#X connect 96 0 93 0;
#X connect 97 0 92 0;
#X connect 98 0 92 1;
#X connect 99 0 103 0;
#X connect 100 0 101 0;
#X connect 100 1 102 0;
#X connect 101 0 99 1;
#X connect 102 0 99 1;
#X connect 103 0 104 0;
#X connect 104 0 105 0;
#X connect 104 0 107 0;
#X connect 105 0 104 1;
#X connect 106 0 108 0;
#X connect 107 0 106 0;
#X connect 108 0 109 0;
#X connect 109 0 97 0;
#X connect 110 0 111 0;
#X connect 111 0 113 0;
#X connect 112 0 110 0;
#X coords 0 -1 1 1 230 140 1 100 100;
