#N canvas 0 50 1370 629 10;
#X obj 108 106 tgl 15 0 empty empty Waveform 17 7 0 10 -262144 -1 -1
0 1;
#X floatatom 176 113 5 0 0 0 Speed - -, f 5;
#X obj 129 339 f;
#X obj 164 339 + 1;
#X obj 127 380 hradio 16 1 0 6 empty empty empty 0 -8 0 10 -262144
-1 -1 1;
#X obj 127 321 metro 200;
#X obj 129 357 mod 6;
#X obj 127 425 outlet;
#X text 134 453 waveform;
#X text 340 455 modulation wave form;
#X obj 241 341 spigot;
#X obj 128 126 tgl 15 0 empty empty random 17 7 0 10 -262144 -1 -1
0 1;
#X obj 240 320 random 7;
#X obj 227 111 tgl 15 0 empty empty mod 17 7 0 10 -262144 -1 -1 0 1
;
#X floatatom 278 119 5 0 0 0 speed - -, f 5;
#X obj 342 340 f;
#X obj 377 340 + 1;
#X obj 340 381 hradio 16 1 0 6 empty empty empty 0 -8 0 10 -262144
-1 -1 0;
#X obj 340 322 metro 200;
#X obj 342 358 mod 6;
#X obj 340 426 outlet;
#X obj 454 342 spigot;
#X obj 249 138 tgl 15 0 empty empty random 17 7 0 10 -262144 -1 -1
0 1;
#X obj 453 321 random 7;
#X text 407 690 modfreq;
#X obj 373 622 outlet;
#X obj 524 504 metro 200;
#X obj 582 668 outlet;
#X text 584 688 modamp;
#X obj 723 505 metro 200;
#X obj 784 672 outlet;
#X obj 918 507 metro 200;
#X obj 976 671 outlet;
#X text 797 709 filterfrequency;
#X text 971 703 filterQ;
#X obj 108 153 tgl 15 0 empty empty fSweep 17 7 0 10 -262144 -1 -1
0 1;
#X floatatom 171 163 5 0 0 0 speed - -, f 5;
#X obj 224 157 tgl 15 0 empty empty modAmp 17 7 0 10 -262144 -1 -1
0 1;
#X floatatom 281 164 5 0 0 0 Speed - -, f 5;
#X obj 108 181 tgl 15 0 empty empty filterF 17 7 0 10 -262144 -1 -1
0 1;
#X floatatom 168 190 5 0 0 0 speed - -, f 5;
#X obj 226 186 tgl 15 0 empty empty FilterQ 17 7 0 10 -262144 -1 -1
0 1;
#X floatatom 287 196 5 0 0 0 Speed - -, f 5;
#X msg 369 572 \$1 \$2;
#X obj 369 542 list;
#X msg 405 526 1;
#X msg 337 530 0;
#X obj 338 485 metro 500;
#X obj 369 600 line 0 1;
#X msg 556 591 \$1 \$2;
#X obj 556 561 list;
#X msg 592 545 1;
#X msg 524 549 0;
#X obj 556 619 line 0 1;
#X msg 952 594 \$1 \$2;
#X obj 952 564 list;
#X msg 920 552 0;
#X obj 952 622 line 0 1;
#X msg 988 548 2;
#X msg 754 593 \$1 \$2;
#X obj 754 563 list;
#X msg 722 551 0;
#X obj 754 621 line 0 1;
#X msg 790 547 10000;
#X obj 92 62 inlet;
#X obj 136 61 inlet;
#X obj 178 64 inlet;
#X obj 222 61 inlet;
#X obj 261 64 inlet;
#X obj 1150 69 inlet;
#X floatatom 286 216 5 0 0 0 Q_Glob #_qglobsnd -, f 5;
#X obj 300 62 inlet;
#X obj 586 224 / 10;
#X obj 1163 689 outlet;
#X obj 12 31 r $_wvonglobal;
#X obj -1 92 r $_rndwv;
#X obj -4 170 r $_wvspd;
#X obj 9 218 r $_fswspd;
#X obj -8 266 r $_fswssppdd;
#X obj 2 296 r $_ffspd;
#X obj 21 326 r $_ffssppdd;
#X obj 488 90 r $_mdssppdd;
#X obj 357 150 r $_rndmod;
#X obj 444 167 r $_modsp;
#X obj 538 149 r $_mmmssppdd;
#X obj 343 59 inlet;
#X obj 387 58 inlet;
#X obj 429 61 inlet;
#X obj 473 58 inlet;
#X obj 512 61 inlet;
#X obj 551 59 inlet;
#X obj 365 125 r $_moddppeed;
#X obj 338 506 markex/alternate;
#X obj 526 525 markex/alternate;
#X obj 724 527 markex/alternate;
#X obj 921 528 markex/alternate;
#X connect 0 0 5 0;
#X connect 1 0 5 1;
#X connect 2 0 3 0;
#X connect 2 0 6 0;
#X connect 3 0 2 1;
#X connect 4 0 7 0;
#X connect 5 0 2 0;
#X connect 5 0 12 0;
#X connect 6 0 4 0;
#X connect 10 0 7 0;
#X connect 11 0 10 1;
#X connect 12 0 10 0;
#X connect 13 0 18 0;
#X connect 14 0 18 1;
#X connect 15 0 16 0;
#X connect 15 0 19 0;
#X connect 16 0 15 1;
#X connect 17 0 20 0;
#X connect 18 0 15 0;
#X connect 18 0 23 0;
#X connect 19 0 17 0;
#X connect 21 0 20 0;
#X connect 22 0 21 1;
#X connect 23 0 21 0;
#X connect 26 0 93 0;
#X connect 29 0 94 0;
#X connect 31 0 95 0;
#X connect 35 0 47 0;
#X connect 36 0 47 1;
#X connect 36 0 44 1;
#X connect 37 0 26 0;
#X connect 38 0 26 1;
#X connect 38 0 50 1;
#X connect 39 0 29 0;
#X connect 40 0 29 1;
#X connect 40 0 60 1;
#X connect 41 0 31 0;
#X connect 42 0 31 1;
#X connect 42 0 55 1;
#X connect 43 0 48 0;
#X connect 44 0 43 0;
#X connect 45 0 44 0;
#X connect 46 0 44 0;
#X connect 47 0 92 0;
#X connect 48 0 25 0;
#X connect 49 0 53 0;
#X connect 50 0 49 0;
#X connect 51 0 50 0;
#X connect 52 0 50 0;
#X connect 53 0 27 0;
#X connect 54 0 57 0;
#X connect 55 0 54 0;
#X connect 56 0 55 0;
#X connect 57 0 32 0;
#X connect 58 0 55 0;
#X connect 59 0 62 0;
#X connect 60 0 59 0;
#X connect 61 0 60 0;
#X connect 62 0 30 0;
#X connect 63 0 60 0;
#X connect 64 0 0 0;
#X connect 65 0 1 0;
#X connect 66 0 11 0;
#X connect 67 0 13 0;
#X connect 68 0 14 0;
#X connect 69 0 42 0;
#X connect 70 0 72 0;
#X connect 71 0 22 0;
#X connect 72 0 73 0;
#X connect 74 0 0 0;
#X connect 75 0 11 0;
#X connect 76 0 1 0;
#X connect 77 0 35 0;
#X connect 78 0 36 0;
#X connect 79 0 39 0;
#X connect 80 0 40 0;
#X connect 81 0 14 0;
#X connect 82 0 22 0;
#X connect 83 0 37 0;
#X connect 84 0 38 0;
#X connect 85 0 35 0;
#X connect 86 0 36 0;
#X connect 87 0 37 0;
#X connect 88 0 38 0;
#X connect 89 0 39 0;
#X connect 90 0 40 0;
#X connect 91 0 13 0;
#X connect 92 0 46 0;
#X connect 92 1 45 0;
#X connect 93 0 52 0;
#X connect 93 1 51 0;
#X connect 94 0 61 0;
#X connect 94 1 63 0;
#X connect 95 0 56 0;
#X connect 95 1 58 0;
#X coords 0 -1 1 1 230 140 1 100 100;
