#N canvas 0 0 1366 684 10;
#X obj 405 157 vradio 15 1 0 12 empty empty empty 0 -8 0 10 -262144
-1 -1 0;
#X obj 404 365 vradio 15 1 0 9 empty empty empty 0 -8 0 10 -262144
-1 -1 4;
#X obj 403 527 vradio 15 1 0 9 empty empty empty 0 -8 0 10 -262144
-1 -1 5;
#X obj 404 675 vradio 15 1 0 3 empty empty empty 0 -8 0 10 -262144
-1 -1 1;
#X obj 404 744 vradio 15 1 0 3 empty empty empty 0 -8 0 10 -262144
-1 -1 1;
#X obj 424 157 vradio 15 1 0 12 empty empty empty 0 -8 0 10 -262144
-1 -1 1;
#X obj 423 366 vradio 15 1 0 9 empty empty empty 0 -8 0 10 -262144
-1 -1 4;
#X obj 424 528 vradio 15 1 0 9 empty empty empty 0 -8 0 10 -262144
-1 -1 5;
#X obj 423 675 vradio 15 1 0 3 empty empty empty 0 -8 0 10 -262144
-1 -1 1;
#X obj 423 744 vradio 15 1 0 3 empty empty empty 0 -8 0 10 -262144
-1 -1 1;
#X obj 443 157 vradio 15 1 0 12 empty empty empty 0 -8 0 10 -262144
-1 -1 10;
#X obj 442 365 vradio 15 1 0 9 empty empty empty 0 -8 0 10 -262144
-1 -1 4;
#X obj 443 527 vradio 15 1 0 9 empty empty empty 0 -8 0 10 -262144
-1 -1 4;
#X obj 442 675 vradio 15 1 0 3 empty empty empty 0 -8 0 10 -262144
-1 -1 1;
#X obj 442 744 vradio 15 1 0 3 empty empty empty 0 -8 0 10 -262144
-1 -1 1;
#X obj 462 157 vradio 15 1 0 12 empty empty empty 0 -8 0 10 -262144
-1 -1 3;
#X obj 461 365 vradio 15 1 0 9 empty empty empty 0 -8 0 10 -262144
-1 -1 4;
#X obj 463 527 vradio 15 1 0 9 empty empty empty 0 -8 0 10 -262144
-1 -1 5;
#X obj 461 675 vradio 15 1 0 3 empty empty empty 0 -8 0 10 -262144
-1 -1 1;
#X obj 461 744 vradio 15 1 0 3 empty empty empty 0 -8 0 10 -262144
-1 -1 1;
#X obj 482 157 vradio 15 1 0 12 empty empty empty 0 -8 0 10 -262144
-1 -1 5;
#X obj 481 365 vradio 15 1 0 9 empty empty empty 0 -8 0 10 -262144
-1 -1 4;
#X obj 482 526 vradio 15 1 0 9 empty empty empty 0 -8 0 10 -262144
-1 -1 4;
#X obj 481 675 vradio 15 1 0 3 empty empty empty 0 -8 0 10 -262144
-1 -1 1;
#X obj 481 744 vradio 15 1 0 3 empty empty empty 0 -8 0 10 -262144
-1 -1 1;
#X obj 501 157 vradio 15 1 0 12 empty empty empty 0 -8 0 10 -262144
-1 -1 5;
#X obj 500 365 vradio 15 1 0 9 empty empty empty 0 -8 0 10 -262144
-1 -1 4;
#X obj 502 526 vradio 15 1 0 9 empty empty empty 0 -8 0 10 -262144
-1 -1 5;
#X obj 500 675 vradio 15 1 0 3 empty empty empty 0 -8 0 10 -262144
-1 -1 1;
#X obj 500 744 vradio 15 1 0 3 empty empty empty 0 -8 0 10 -262144
-1 -1 1;
#X obj 520 157 vradio 15 1 0 12 empty empty empty 0 -8 0 10 -262144
-1 -1 7;
#X obj 519 365 vradio 15 1 0 9 empty empty empty 0 -8 0 10 -262144
-1 -1 4;
#X obj 520 526 vradio 15 1 0 9 empty empty empty 0 -8 0 10 -262144
-1 -1 5;
#X obj 519 675 vradio 15 1 0 3 empty empty empty 0 -8 0 10 -262144
-1 -1 1;
#X obj 519 744 vradio 15 1 0 3 empty empty empty 0 -8 0 10 -262144
-1 -1 1;
#X obj 539 157 vradio 15 1 0 12 empty empty empty 0 -8 0 10 -262144
-1 -1 8;
#X obj 538 365 vradio 15 1 0 9 empty empty empty 0 -8 0 10 -262144
-1 -1 4;
#X obj 539 526 vradio 15 1 0 9 empty empty empty 0 -8 0 10 -262144
-1 -1 5;
#X obj 538 675 vradio 15 1 0 3 empty empty empty 0 -8 0 10 -262144
-1 -1 1;
#X obj 538 744 vradio 15 1 0 3 empty empty empty 0 -8 0 10 -262144
-1 -1 1;
#X obj 558 157 vradio 15 1 0 12 empty empty empty 0 -8 0 10 -262144
-1 -1 0;
#X obj 557 365 vradio 15 1 0 9 empty empty empty 0 -8 0 10 -262144
-1 -1 4;
#X obj 558 526 vradio 15 1 0 9 empty empty empty 0 -8 0 10 -262144
-1 -1 5;
#X obj 557 675 vradio 15 1 0 3 empty empty empty 0 -8 0 10 -262144
-1 -1 1;
#X obj 557 744 vradio 15 1 0 3 empty empty empty 0 -8 0 10 -262144
-1 -1 1;
#X obj 578 157 vradio 15 1 0 12 empty empty empty 0 -8 0 10 -262144
-1 -1 5;
#X obj 577 365 vradio 15 1 0 9 empty empty empty 0 -8 0 10 -262144
-1 -1 4;
#X obj 577 527 vradio 15 1 0 9 empty empty empty 0 -8 0 10 -262144
-1 -1 4;
#X obj 577 675 vradio 15 1 0 3 empty empty empty 0 -8 0 10 -262144
-1 -1 1;
#X obj 577 744 vradio 15 1 0 3 empty empty empty 0 -8 0 10 -262144
-1 -1 1;
#X obj 598 157 vradio 15 1 0 12 empty empty empty 0 -8 0 10 -262144
-1 -1 11;
#X obj 597 365 vradio 15 1 0 9 empty empty empty 0 -8 0 10 -262144
-1 -1 4;
#X obj 597 527 vradio 15 1 0 9 empty empty empty 0 -8 0 10 -262144
-1 -1 4;
#X obj 597 675 vradio 15 1 0 3 empty empty empty 0 -8 0 10 -262144
-1 -1 1;
#X obj 597 744 vradio 15 1 0 3 empty empty empty 0 -8 0 10 -262144
-1 -1 1;
#X obj 618 157 vradio 15 1 0 12 empty empty empty 0 -8 0 10 -262144
-1 -1 11;
#X obj 617 365 vradio 15 1 0 9 empty empty empty 0 -8 0 10 -262144
-1 -1 4;
#X obj 617 527 vradio 15 1 0 9 empty empty empty 0 -8 0 10 -262144
-1 -1 4;
#X obj 617 675 vradio 15 1 0 3 empty empty empty 0 -8 0 10 -262144
-1 -1 1;
#X obj 617 744 vradio 15 1 0 3 empty empty empty 0 -8 0 10 -262144
-1 -1 1;
#X obj -56 -262 seqclock;
#X obj 104 160 tgl 15 0 empty empty empty 17 7 0 10 -262144 -1 -1 0
1;
#X floatatom 103 184 5 0 0 0 - - -;
#X floatatom 106 297 5 0 0 0 - - -;
#X obj 882 149 f;
#X obj 886 192 f;
#X obj 889 240 f;
#X obj 893 278 f;
#X obj 900 324 f;
#X obj 902 358 f;
#X obj 909 393 f;
#X obj 911 442 f;
#X obj 907 485 f;
#X obj 908 530 f;
#X obj 916 574 f;
#X obj 900 602 f;
#X obj 681 284 sequencerpitch;
#X obj 700 322 sequencerpitch;
#X obj 701 374 sequencerpitch;
#X obj 698 414 sequencerpitch;
#X obj 703 437 sequencerpitch;
#X obj 704 498 sequencerpitch;
#X obj 706 465 sequencerpitch;
#X obj 680 534 sequencerpitch;
#X obj 688 572 sequencerpitch;
#X obj 711 615 sequencerpitch;
#X obj 706 646 sequencerpitch;
#X obj 715 678 sequencerpitch;
#X floatatom 116 443 5 0 0 0 - - -;
#X obj 1262 194 f;
#X obj 1266 237 f;
#X obj 1269 285 f;
#X obj 1273 323 f;
#X obj 1280 369 f;
#X obj 1282 403 f;
#X obj 1289 438 f;
#X obj 1291 487 f;
#X obj 1287 530 f;
#X obj 1288 575 f;
#X obj 1296 619 f;
#X obj 1289 677 f;
#X obj 1005 516 sequencervolume;
#X obj 996 486 sequencervolume;
#X obj 1000 454 sequencervolume;
#X obj 978 411 sequencervolume;
#X obj 970 375 sequencervolume;
#X obj 994 337 sequencervolume;
#X obj 996 304 sequencervolume;
#X obj 989 272 sequencervolume;
#X obj 993 237 sequencervolume;
#X obj 1007 191 sequencervolume;
#X obj 990 161 sequencervolume;
#X obj 971 123 sequencervolume;
#X obj 1086 850 f;
#X obj 1090 893 f;
#X obj 1093 941 f;
#X obj 1097 979 f;
#X obj 1104 1025 f;
#X obj 1106 1059 f;
#X obj 1113 1094 f;
#X obj 1115 1143 f;
#X obj 1111 1186 f;
#X obj 1112 1231 f;
#X obj 1120 1275 f;
#X obj 993 793 f;
#X floatatom 115 687 5 0 0 0 - - -;
#X obj 894 1508 f;
#X obj 898 1551 f;
#X obj 901 1599 f;
#X obj 905 1637 f;
#X obj 912 1683 f;
#X obj 914 1717 f;
#X obj 921 1752 f;
#X obj 923 1801 f;
#X obj 919 1844 f;
#X obj 920 1889 f;
#X obj 928 1933 f;
#X obj 921 1991 f;
#X obj 603 1437 sequencerfurther;
#X obj 622 1475 sequencerfurther;
#X obj 639 1506 sequencerfurther;
#X obj 625 1551 sequencerfurther;
#X obj 621 1586 sequencerfurther;
#X obj 629 1618 sequencerfurther;
#X obj 627 1651 sequencerfurther;
#X obj 602 1689 sequencerfurther;
#X obj 610 1725 sequencerfurther;
#X obj 633 1767 sequencerfurther;
#X obj 628 1800 sequencerfurther;
#X obj 637 1829 sequencerfurther;
#X floatatom 125 777 5 0 0 0 - - -;
#X obj -13 930 f;
#X obj -12 965 f;
#X obj -9 1013 f;
#X obj -5 1051 f;
#X obj 2 1097 f;
#X obj 4 1131 f;
#X obj 11 1166 f;
#X obj 13 1215 f;
#X obj 9 1258 f;
#X obj 10 1303 f;
#X obj 18 1347 f;
#X obj 11 1405 f;
#X floatatom 105 274 5 0 0 0 - - -;
#X obj 766 957 sequencerregister;
#X obj 733 795 sequencerregister;
#X obj 771 840 sequencerregister;
#X obj 770 870 sequencerregister;
#X obj 757 909 sequencerregister;
#X obj 779 993 sequencerregister;
#X obj 809 1008 sequencerregister;
#X obj 787 1039 sequencerregister;
#X obj 804 1081 sequencerregister;
#X obj 824 1135 sequencerregister;
#X obj 818 1164 sequencerregister;
#X obj 830 1203 sequencerregister;
#X obj 1567 51 r allstep-\$0;
#X obj 1033 -110 r allstep-\$0;
#X obj 997 728 r allstep-\$0;
#X obj -99 759 r allstep-\$0;
#X obj 686 187 s allstep-\$0;
#X obj -607 -40 inlet;
#X obj -547 -48 inlet;
#X obj -508 -67 inlet;
#X obj 1465 2 send ratz-\$0;
#X obj 1366 673 send catz-\$0;
#X obj 915 724 r ratz-\$0;
#X obj 1221 1214 send carson-\$0;
#X obj 1030 1828 send billingsly-\$0;
#X obj 710 1393 r carson-\$0;
#X obj 131 1093 send final-\$0;
#X obj -200 807 r billingsly-\$0;
#X obj -695 313 r final-\$0;
#X obj -621 254 r catz-\$0;
#X floatatom 117 620 5 0 0 0 - - -;
#X text 110 142 on speed;
#X text 102 251 global step;
#X text 109 327 step;
#X obj 840 53 random 13;
#X obj 194 88 - 1;
#X obj 105 206 bng 15 250 50 0 empty empty empty 17 7 0 10 -262144
-1 -1;
#X text 95 223 random pitch;
#X obj 903 53 random 13;
#X obj 257 88 - 1;
#X obj 966 53 random 13;
#X obj 320 88 - 1;
#X obj 1029 52 random 13;
#X obj 1029 73 - 1;
#X obj 1095 51 random 13;
#X obj 1095 72 - 1;
#X obj 1012 2 random 13;
#X obj 1012 23 - 1;
#X obj 1076 3 random 13;
#X obj 1076 24 - 1;
#X obj 1140 3 random 13;
#X obj 1140 24 - 1;
#X obj 1204 1 random 13;
#X obj 1204 22 - 1;
#X obj 1265 0 random 13;
#X obj 1265 21 - 1;
#X obj 1330 0 random 13;
#X obj 1330 20 - 1;
#X obj 1394 0 random 13;
#X obj 1394 21 - 1;
#X obj -708 164 - 1;
#X obj 135 390 bng 15 250 50 0 empty empty empty 17 7 0 10 -262144
-1 -1;
#X obj -652 163 - 1;
#X obj -589 163 - 1;
#X obj -526 162 - 1;
#X obj -460 161 - 1;
#X obj -395 161 - 1;
#X obj -331 162 - 1;
#X obj -267 162 - 1;
#X obj -203 160 - 1;
#X obj -142 159 - 1;
#X obj -77 158 - 1;
#X obj -13 159 - 1;
#X text 101 409 random amp;
#X obj -13 138 random 9;
#X obj -77 138 random 9;
#X obj -142 139 random 9;
#X obj -203 139 random 9;
#X obj -267 141 random 9;
#X obj -331 141 random 9;
#X obj -395 140 random 9;
#X obj -460 140 random 9;
#X obj -526 141 random 9;
#X obj -589 142 random 9;
#X obj -652 142 random 9;
#X obj -715 142 random 9;
#X obj -458 -67 inlet;
#X text 467 103 global step;
#X text 603 106 random;
#X obj -161 22 loadbang;
#X obj 330 121 bng 15 250 50 0 empty empty empty 17 7 0 10 -262144
-1 -1;
#X text 344 118 reset;
#X msg 25 386 4;
#X msg -115 621 1;
#X msg 530 -277 8;
#X text 156 151 B;
#X text 151 165 A#;
#X text 150 182 A;
#X text 149 197 G#;
#X text 150 212 G;
#X text 150 232 F#;
#X text 152 243 F;
#X text 151 260 E;
#X text 150 272 D#;
#X text 153 286 D;
#X text 148 301 C#;
#X text 154 317 C;
#X obj 383 156 vradio 15 1 0 12 empty empty empty 0 -8 0 10 -262144
-1 -1 1;
#X obj 382 365 vradio 15 1 0 9 empty empty empty 0 -8 0 10 -262144
-1 -1 4;
#X obj 383 526 vradio 15 1 0 9 empty empty empty 0 -8 0 10 -262144
-1 -1 4;
#X obj 383 675 vradio 15 1 0 3 empty empty empty 0 -8 0 10 -262144
-1 -1 1;
#X obj 383 744 vradio 15 1 0 3 empty empty empty 0 -8 0 10 -262144
-1 -1 1;
#X obj 363 156 vradio 15 1 0 12 empty empty empty 0 -8 0 10 -262144
-1 -1 10;
#X obj 362 366 vradio 15 1 0 9 empty empty empty 0 -8 0 10 -262144
-1 -1 4;
#X obj 363 526 vradio 15 1 0 9 empty empty empty 0 -8 0 10 -262144
-1 -1 4;
#X obj 360 674 vradio 15 1 0 3 empty empty empty 0 -8 0 10 -262144
-1 -1 1;
#X obj 364 742 vradio 15 1 0 3 empty empty empty 0 -8 0 10 -262144
-1 -1 1;
#X obj 343 156 vradio 15 1 0 12 empty empty empty 0 -8 0 10 -262144
-1 -1 3;
#X obj 342 365 vradio 15 1 0 9 empty empty empty 0 -8 0 10 -262144
-1 -1 4;
#X obj 341 527 vradio 15 1 0 9 empty empty empty 0 -8 0 10 -262144
-1 -1 4;
#X obj 340 674 vradio 15 1 0 3 empty empty empty 0 -8 0 10 -262144
-1 -1 1;
#X obj 340 743 vradio 15 1 0 3 empty empty empty 0 -8 0 10 -262144
-1 -1 1;
#X obj 323 156 vradio 15 1 0 12 empty empty empty 0 -8 0 10 -262144
-1 -1 8;
#X obj 321 365 vradio 15 1 0 9 empty empty empty 0 -8 0 10 -262144
-1 -1 4;
#X obj 319 527 vradio 15 1 0 9 empty empty empty 0 -8 0 10 -262144
-1 -1 4;
#X obj 319 673 vradio 15 1 0 3 empty empty empty 0 -8 0 10 -262144
-1 -1 1;
#X obj 319 742 vradio 15 1 0 3 empty empty empty 0 -8 0 10 -262144
-1 -1 1;
#X obj 303 156 vradio 15 1 0 12 empty empty empty 0 -8 0 10 -262144
-1 -1 5;
#X obj 301 365 vradio 15 1 0 9 empty empty empty 0 -8 0 10 -262144
-1 -1 4;
#X obj 299 527 vradio 15 1 0 9 empty empty empty 0 -8 0 10 -262144
-1 -1 4;
#X obj 299 673 vradio 15 1 0 3 empty empty empty 0 -8 0 10 -262144
-1 -1 1;
#X obj 299 742 vradio 15 1 0 3 empty empty empty 0 -8 0 10 -262144
-1 -1 1;
#X obj 283 156 vradio 15 1 0 12 empty empty empty 0 -8 0 10 -262144
-1 -1 7;
#X obj 281 364 vradio 15 1 0 9 empty empty empty 0 -8 0 10 -262144
-1 -1 4;
#X obj 279 528 vradio 15 1 0 9 empty empty empty 0 -8 0 10 -262144
-1 -1 4;
#X obj 279 672 vradio 15 1 0 3 empty empty empty 0 -8 0 10 -262144
-1 -1 1;
#X obj 279 741 vradio 15 1 0 3 empty empty empty 0 -8 0 10 -262144
-1 -1 1;
#X obj 263 155 vradio 15 1 0 12 empty empty empty 0 -8 0 10 -262144
-1 -1 0;
#X obj 261 364 vradio 15 1 0 9 empty empty empty 0 -8 0 10 -262144
-1 -1 4;
#X obj 259 527 vradio 15 1 0 9 empty empty empty 0 -8 0 10 -262144
-1 -1 5;
#X obj 259 672 vradio 15 1 0 3 empty empty empty 0 -8 0 10 -262144
-1 -1 1;
#X obj 259 741 vradio 15 1 0 3 empty empty empty 0 -8 0 10 -262144
-1 -1 1;
#X obj 243 155 vradio 15 1 0 12 empty empty empty 0 -8 0 10 -262144
-1 -1 10;
#X obj 241 364 vradio 15 1 0 9 empty empty empty 0 -8 0 10 -262144
-1 -1 4;
#X obj 238 527 vradio 15 1 0 9 empty empty empty 0 -8 0 10 -262144
-1 -1 4;
#X obj 237 671 vradio 15 1 0 3 empty empty empty 0 -8 0 10 -262144
-1 -1 1;
#X obj 237 740 vradio 15 1 0 3 empty empty empty 0 -8 0 10 -262144
-1 -1 1;
#X obj 224 155 vradio 15 1 0 12 empty empty empty 0 -8 0 10 -262144
-1 -1 5;
#X obj 223 364 vradio 15 1 0 9 empty empty empty 0 -8 0 10 -262144
-1 -1 4;
#X obj 219 526 vradio 15 1 0 9 empty empty empty 0 -8 0 10 -262144
-1 -1 4;
#X obj 218 671 vradio 15 1 0 3 empty empty empty 0 -8 0 10 -262144
-1 -1 1;
#X obj 218 740 vradio 15 1 0 3 empty empty empty 0 -8 0 10 -262144
-1 -1 1;
#X obj 205 155 vradio 15 1 0 12 empty empty empty 0 -8 0 10 -262144
-1 -1 8;
#X obj 205 364 vradio 15 1 0 9 empty empty empty 0 -8 0 10 -262144
-1 -1 4;
#X obj 201 526 vradio 15 1 0 9 empty empty empty 0 -8 0 10 -262144
-1 -1 4;
#X obj 199 670 vradio 15 1 0 3 empty empty empty 0 -8 0 10 -262144
-1 -1 1;
#X obj 199 739 vradio 15 1 0 3 empty empty empty 0 -8 0 10 -262144
-1 -1 1;
#X obj 185 155 vradio 15 1 0 12 empty empty empty 0 -8 0 10 -262144
-1 -1 7;
#X obj 187 364 vradio 15 1 0 9 empty empty empty 0 -8 0 10 -262144
-1 -1 4;
#X obj 183 526 vradio 15 1 0 9 empty empty empty 0 -8 0 10 -262144
-1 -1 4;
#X obj 180 668 vradio 15 1 0 3 empty empty empty 0 -8 0 10 -262144
-1 -1 1;
#X obj 180 737 vradio 15 1 0 3 empty empty empty 0 -8 0 10 -262144
-1 -1 1;
#X obj 165 154 vradio 15 1 0 12 empty empty empty 0 -8 0 10 -262144
-1 -1 3;
#X obj 167 364 vradio 15 1 0 9 empty empty empty 0 -8 0 10 -262144
-1 -1 4;
#X obj 163 525 vradio 15 1 0 9 empty empty empty 0 -8 0 10 -262144
-1 -1 4;
#X obj 160 668 vradio 15 1 0 3 empty empty empty 0 -8 0 10 -262144
-1 -1 1;
#X obj 160 737 vradio 15 1 0 3 empty empty empty 0 -8 0 10 -262144
-1 -1 1;
#X obj 782 -238 f;
#X obj 820 -236 f;
#X obj 864 -231 f;
#X obj 909 -227 f;
#X obj 942 -227 f;
#X obj 977 -220 f;
#X obj 1015 -219 f;
#X obj 1358 -227 f;
#X obj 1402 -226 f;
#X obj 1460 -229 f;
#X obj 1511 -233 f;
#X obj 659 -439 sequencerpitch;
#X obj 1174 -456 sequencerpitch;
#X obj 1172 -428 sequencerpitch;
#X obj 1169 -388 sequencerpitch;
#X obj 1174 -365 sequencerpitch;
#X obj 1175 -304 sequencerpitch;
#X obj 1177 -337 sequencerpitch;
#X obj 1182 -259 sequencerpitch;
#X obj 1176 -218 sequencerpitch;
#X obj 1186 -184 sequencerpitch;
#X obj 1200 -156 sequencerpitch;
#X obj 1192 -127 sequencerpitch;
#X obj 1571 939 f;
#X obj 1575 982 f;
#X obj 1578 1030 f;
#X obj 1582 1068 f;
#X obj 1589 1114 f;
#X obj 1591 1148 f;
#X obj 1598 1183 f;
#X obj 1600 1232 f;
#X obj 1596 1275 f;
#X obj 1597 1320 f;
#X obj 1605 1364 f;
#X obj 1598 1422 f;
#X obj 1382 1473 f;
#X obj 1386 1516 f;
#X obj 1389 1564 f;
#X obj 1393 1602 f;
#X obj 1400 1648 f;
#X obj 1402 1682 f;
#X obj 1409 1717 f;
#X obj 1411 1766 f;
#X obj 1407 1809 f;
#X obj 1408 1854 f;
#X obj 1416 1898 f;
#X obj 1410 1935 f;
#X obj 1157 1519 sequencerfurther;
#X obj 1176 1557 sequencerfurther;
#X obj 1193 1588 sequencerfurther;
#X obj 1179 1633 sequencerfurther;
#X obj 1175 1668 sequencerfurther;
#X obj 1183 1700 sequencerfurther;
#X obj 1181 1733 sequencerfurther;
#X obj 1156 1771 sequencerfurther;
#X obj 1164 1807 sequencerfurther;
#X obj 1187 1849 sequencerfurther;
#X obj 1182 1882 sequencerfurther;
#X obj 1191 1911 sequencerfurther;
#X obj -489 781 f;
#X obj -485 824 f;
#X obj -482 872 f;
#X obj -478 910 f;
#X obj -471 956 f;
#X obj -469 990 f;
#X obj -462 1025 f;
#X obj -460 1074 f;
#X obj -464 1117 f;
#X obj -463 1162 f;
#X obj -455 1206 f;
#X obj -462 1264 f;
#X obj 1251 1046 sequencerregister;
#X obj 1218 884 sequencerregister;
#X obj 1256 929 sequencerregister;
#X obj 1255 959 sequencerregister;
#X obj 1242 998 sequencerregister;
#X obj 1264 1082 sequencerregister;
#X obj 1294 1097 sequencerregister;
#X obj 1272 1128 sequencerregister;
#X obj 1289 1170 sequencerregister;
#X obj 1309 1224 sequencerregister;
#X obj 1303 1253 sequencerregister;
#X obj 1315 1292 sequencerregister;
#X obj 1400 813 r ratz-\$0;
#X obj 1264 1475 r carson-\$0;
#X obj -603 833 r billingsly-\$0;
#X obj 308 2056 random 13;
#X obj 308 2077 - 1;
#X obj 125 206 bng 15 250 50 0 empty empty empty 17 7 0 10 -262144
-1 -1;
#X obj 371 2056 random 13;
#X obj 371 2077 - 1;
#X obj 434 2056 random 13;
#X obj 434 2077 - 1;
#X obj 497 2055 random 13;
#X obj 497 2076 - 1;
#X obj 563 2054 random 13;
#X obj 563 2075 - 1;
#X obj 628 2054 random 13;
#X obj 628 2075 - 1;
#X obj 692 2055 random 13;
#X obj 692 2076 - 1;
#X obj 756 2055 random 13;
#X obj 756 2076 - 1;
#X obj 820 2053 random 13;
#X obj 820 2074 - 1;
#X obj 881 2052 random 13;
#X obj 881 2073 - 1;
#X obj 946 2052 random 13;
#X obj 946 2072 - 1;
#X obj 1010 2052 random 13;
#X obj 1010 2073 - 1;
#X obj -524 1650 - 1;
#X obj 109 391 bng 15 250 50 0 empty empty empty 17 7 0 10 -262144
-1 -1;
#X obj -468 1649 - 1;
#X obj -405 1649 - 1;
#X obj -342 1648 - 1;
#X obj -276 1647 - 1;
#X obj -211 1647 - 1;
#X obj -147 1648 - 1;
#X obj -83 1648 - 1;
#X obj -19 1646 - 1;
#X obj 42 1645 - 1;
#X obj 107 1644 - 1;
#X obj 171 1645 - 1;
#X obj 171 1624 random 9;
#X obj 107 1624 random 9;
#X obj 42 1625 random 9;
#X obj -19 1625 random 9;
#X obj -83 1627 random 9;
#X obj -147 1627 random 9;
#X obj -211 1626 random 9;
#X obj -276 1626 random 9;
#X obj -342 1627 random 9;
#X obj -405 1628 random 9;
#X obj -468 1628 random 9;
#X obj -531 1628 random 9;
#X obj 23 1508 loadbang;
#X obj 314 121 bng 15 250 50 0 empty empty empty 17 7 0 10 -262144
-1 -1;
#X msg 317 1517 11;
#X msg 214 1889 4;
#X msg 17 477 1;
#X msg 232 1654 8;
#X obj 829 -54 sequencerspacecountspacetwentyspaceoddspaceandspacefourspace
;
#X obj 736 -236 f;
#X obj 1573 187 f;
#X obj 1577 230 f;
#X obj 1580 278 f;
#X obj 1584 316 f;
#X obj 1591 362 f;
#X obj 1593 396 f;
#X obj 1600 431 f;
#X obj 1602 480 f;
#X obj 1577 520 f;
#X obj 1599 568 f;
#X obj 1607 612 f;
#X obj 1600 670 f;
#X obj 1467 601 sequencervolume;
#X obj 1458 571 sequencervolume;
#X obj 1463 538 sequencervolume;
#X obj 1440 496 sequencervolume;
#X obj 1432 460 sequencervolume;
#X obj 1456 422 sequencervolume;
#X obj 1458 389 sequencervolume;
#X obj 1451 357 sequencervolume;
#X obj 1455 322 sequencervolume;
#X obj 1469 276 sequencervolume;
#X obj 1452 246 sequencervolume;
#X obj 1433 208 sequencervolume;
#X obj 142 123 bng 15 250 50 0 empty empty empty 17 7 0 10 -262144
-1 -1;
#X text 176 119 presets!;
#X msg -49 64 7;
#X msg -5 48 8;
#X msg 772 -153 3;
#X msg 820 -148 0;
#X msg 877 -123 5;
#X msg 1554 -1;
#X msg 619 -132 9;
#X msg 753 -56 1;
#X msg 715 30 10;
#X msg 779 17 11;
#X msg 450 -149 4;
#X msg 605 -175 5;
#X obj -405 -72 inlet;
#X text -368 -63 on all presets;
#X obj -336 -52 inlet;
#X text -306 -45 pvrs5ch inlet;
#X msg -179 475 4;
#X msg -78 415 5;
#X obj -144 -50 inlet;
#X obj -194 -68 inlet;
#X text -157 -64 on off;
#X text -105 -48 metro sp;
#X obj -99 -69 inlet;
#X text -58 -65 globstep;
#X obj 6 -66 inlet;
#X obj -38 -45 inlet;
#X obj 41 -42 inlet;
#X obj 87 -64 inlet;
#X obj 128 -39 inlet;
#X text 80 -40 rstep;
#X text 130 -65 5 step;
#X text 169 -36 chstep;
#X obj -265 -66 inlet;
#X text -259 -83 resetto0;
#X obj 173 -67 inlet;
#X obj 218 -39 inlet;
#X text 218 -64 randomp;
#X text 265 -37 random v;
#X obj 268 -66 inlet;
#X text 276 -87 triggerdiag;
#X obj -231 387 outlet;
#X obj 320 -39 inlet;
#X text 360 -39 r val1;
#X msg -508 490 0;
#X msg -479 490 1;
#X msg -449 489 2;
#X msg -417 489 4;
#X msg -384 483 8;
#X obj 381 -62 inlet;
#X obj 433 -35 inlet;
#X msg -506 294 1;
#X text 423 -62 reset5;
#X text 472 -34 resetch;
#X msg 866 633 1;
#X msg -535 448 0;
#X msg -476 447 2;
#X msg -411 441 8;
#X msg -508 550 0;
#X msg -479 550 1;
#X msg -449 549 2;
#X msg -417 549 4;
#X msg -503 447 1;
#X obj 490 -57 inlet;
#X obj 542 -30 inlet;
#X text 535 -65 onlydiag5;
#X text 583 -43 onlydiagch;
#X obj 598 -60 inlet;
#X text 637 -74 regpre;
#X msg -684 577 4;
#X msg -638 601 5;
#X msg -614 605 3;
#X msg -585 610 6;
#X msg -553 611 2;
#X msg -522 611 7;
#X msg -493 611 1;
#X msg -462 612 8;
#X msg -435 614 0;
#X msg -341 633 15;
#X msg -34 445 1;
#X text -3 -40 p rst;
#X text 42 -65 v rst;
#X obj 638 -27 inlet;
#X text 676 -27 regdefault;
#X obj 688 -51 inlet;
#X text 735 -65 volume;
#X obj 786 -45 inlet;
#X text 794 -12 HOWLclock;
#X obj -710 877 sequencerchrome;
#X obj -691 915 sequencerchrome;
#X obj -674 946 sequencerchrome;
#X obj -688 990 sequencerchrome;
#X obj -692 1026 sequencerchrome;
#X obj -684 1058 sequencerchrome;
#X obj -686 1091 sequencerchrome;
#X obj -711 1129 sequencerchrome;
#X obj -703 1165 sequencerchrome;
#X obj -680 1207 sequencerchrome;
#X obj -685 1240 sequencerchrome;
#X obj -676 1269 sequencerchrome;
#X obj -289 862 sequencerchrome;
#X obj -288 889 sequencerchrome;
#X obj -271 920 sequencerchrome;
#X obj -285 965 sequencerchrome;
#X obj -289 1000 sequencerchrome;
#X obj -281 1032 sequencerchrome;
#X obj -283 1065 sequencerchrome;
#X obj -308 1103 sequencerchrome;
#X obj -300 1139 sequencerchrome;
#X obj -277 1181 sequencerchrome;
#X obj -282 1214 sequencerchrome;
#X obj -273 1243 sequencerchrome;
#X obj -680 353 seqout;
#X floatatom -624 294 5 0 0 0 - - -;
#X obj -725 377 outlet;
#X obj -655 380 outlet;
#X obj 1772 -14 sequencerspacecountspacetwentyspaceoddspaceandspacefourspace
;
#X obj 1027 763 sequencerspacecountspacetwentyspaceoddspaceandspacefourspace
;
#X obj 871 1334 sequencerspacecountspacetwentyspaceoddspaceandspacefourspace
;
#X obj -568 677 sequencerspacecountspacetwentyspaceoddspaceandspacefourspace
;
#X obj 868 1262 r allstep-\$0;
#X connect 0 0 76 0;
#X connect 1 0 112 0;
#X connect 2 0 165 0;
#X connect 3 0 138 0;
#X connect 4 0 600 0;
#X connect 5 0 77 0;
#X connect 6 0 111 0;
#X connect 7 0 166 0;
#X connect 8 0 139 0;
#X connect 9 0 601 0;
#X connect 10 0 78 0;
#X connect 11 0 110 0;
#X connect 12 0 167 0;
#X connect 13 0 140 0;
#X connect 14 0 602 0;
#X connect 15 0 79 0;
#X connect 16 0 109 0;
#X connect 17 0 168 0;
#X connect 18 0 141 0;
#X connect 19 0 603 0;
#X connect 20 0 80 0;
#X connect 21 0 108 0;
#X connect 22 0 164 0;
#X connect 23 0 142 0;
#X connect 24 0 604 0;
#X connect 25 0 82 0;
#X connect 26 0 107 0;
#X connect 27 0 169 0;
#X connect 28 0 143 0;
#X connect 29 0 605 0;
#X connect 30 0 81 0;
#X connect 31 0 106 0;
#X connect 32 0 170 0;
#X connect 33 0 144 0;
#X connect 34 0 606 0;
#X connect 35 0 83 0;
#X connect 36 0 105 0;
#X connect 37 0 171 0;
#X connect 38 0 145 0;
#X connect 39 0 607 0;
#X connect 40 0 84 0;
#X connect 41 0 104 0;
#X connect 42 0 172 0;
#X connect 43 0 146 0;
#X connect 44 0 608 0;
#X connect 45 0 85 0;
#X connect 46 0 103 0;
#X connect 47 0 173 0;
#X connect 48 0 147 0;
#X connect 49 0 609 0;
#X connect 50 0 86 0;
#X connect 51 0 102 0;
#X connect 52 0 174 0;
#X connect 53 0 148 0;
#X connect 54 0 610 0;
#X connect 55 0 87 0;
#X connect 56 0 101 0;
#X connect 57 0 175 0;
#X connect 58 0 149 0;
#X connect 59 0 611 0;
#X connect 60 0 473 1;
#X connect 60 0 616 1;
#X connect 60 0 617 1;
#X connect 60 0 618 1;
#X connect 60 0 619 1;
#X connect 61 0 60 0;
#X connect 62 0 60 1;
#X connect 62 0 541 0;
#X connect 62 0 612 2;
#X connect 63 0 473 0;
#X connect 64 0 184 0;
#X connect 65 0 184 0;
#X connect 66 0 184 0;
#X connect 67 0 184 0;
#X connect 68 0 184 0;
#X connect 69 0 184 0;
#X connect 70 0 184 0;
#X connect 71 0 184 0;
#X connect 72 0 184 0;
#X connect 73 0 184 0;
#X connect 74 0 184 0;
#X connect 75 0 184 0;
#X connect 76 0 64 1;
#X connect 77 0 65 1;
#X connect 78 0 66 1;
#X connect 79 0 67 1;
#X connect 80 0 68 1;
#X connect 81 0 70 1;
#X connect 82 0 69 1;
#X connect 83 0 71 1;
#X connect 84 0 72 1;
#X connect 85 0 73 1;
#X connect 86 0 74 1;
#X connect 87 0 75 1;
#X connect 88 0 616 0;
#X connect 89 0 185 0;
#X connect 90 0 185 0;
#X connect 91 0 185 0;
#X connect 92 0 185 0;
#X connect 93 0 185 0;
#X connect 94 0 185 0;
#X connect 95 0 185 0;
#X connect 96 0 185 0;
#X connect 97 0 185 0;
#X connect 98 0 185 0;
#X connect 99 0 185 0;
#X connect 100 0 185 0;
#X connect 101 0 100 1;
#X connect 102 0 99 1;
#X connect 103 0 98 1;
#X connect 104 0 97 1;
#X connect 105 0 96 1;
#X connect 106 0 95 1;
#X connect 107 0 94 1;
#X connect 108 0 93 1;
#X connect 109 0 92 1;
#X connect 110 0 91 1;
#X connect 111 0 90 1;
#X connect 112 0 89 1;
#X connect 113 0 187 0;
#X connect 114 0 187 0;
#X connect 115 0 187 0;
#X connect 116 0 187 0;
#X connect 117 0 187 0;
#X connect 118 0 187 0;
#X connect 119 0 187 0;
#X connect 120 0 187 0;
#X connect 121 0 187 0;
#X connect 122 0 187 0;
#X connect 123 0 187 0;
#X connect 124 0 187 0;
#X connect 125 0 618 0;
#X connect 126 0 188 0;
#X connect 127 0 188 0;
#X connect 128 0 188 0;
#X connect 129 0 188 0;
#X connect 130 0 188 0;
#X connect 131 0 188 0;
#X connect 132 0 188 0;
#X connect 133 0 188 0;
#X connect 134 0 188 0;
#X connect 135 0 188 0;
#X connect 136 0 188 0;
#X connect 137 0 188 0;
#X connect 138 0 126 1;
#X connect 139 0 127 1;
#X connect 140 0 128 1;
#X connect 141 0 129 1;
#X connect 142 0 130 1;
#X connect 143 0 131 1;
#X connect 144 0 132 1;
#X connect 145 0 133 1;
#X connect 146 0 134 1;
#X connect 147 0 135 1;
#X connect 148 0 136 1;
#X connect 149 0 137 1;
#X connect 150 0 619 0;
#X connect 151 0 190 0;
#X connect 152 0 190 0;
#X connect 153 0 190 0;
#X connect 154 0 190 0;
#X connect 155 0 190 0;
#X connect 156 0 190 0;
#X connect 157 0 190 0;
#X connect 158 0 190 0;
#X connect 159 0 190 0;
#X connect 160 0 190 0;
#X connect 161 0 190 0;
#X connect 162 0 190 0;
#X connect 163 0 180 0;
#X connect 164 0 117 1;
#X connect 165 0 113 1;
#X connect 166 0 114 1;
#X connect 167 0 115 1;
#X connect 168 0 116 1;
#X connect 169 0 118 1;
#X connect 170 0 119 1;
#X connect 171 0 120 1;
#X connect 172 0 121 1;
#X connect 173 0 122 1;
#X connect 174 0 123 1;
#X connect 175 0 124 1;
#X connect 176 0 616 0;
#X connect 177 0 473 0;
#X connect 178 0 617 0;
#X connect 179 0 619 0;
#X connect 181 0 61 0;
#X connect 182 0 62 0;
#X connect 183 0 163 0;
#X connect 186 0 164 1;
#X connect 186 0 165 1;
#X connect 186 0 166 1;
#X connect 186 0 167 1;
#X connect 186 0 168 1;
#X connect 186 0 169 1;
#X connect 186 0 170 1;
#X connect 186 0 171 1;
#X connect 186 0 172 1;
#X connect 186 0 173 1;
#X connect 186 0 174 1;
#X connect 186 0 175 1;
#X connect 189 0 138 1;
#X connect 189 0 139 1;
#X connect 189 0 140 1;
#X connect 189 0 141 1;
#X connect 189 0 142 1;
#X connect 189 0 143 1;
#X connect 189 0 144 1;
#X connect 189 0 145 1;
#X connect 189 0 146 1;
#X connect 189 0 147 1;
#X connect 189 0 148 1;
#X connect 189 0 149 1;
#X connect 191 0 600 1;
#X connect 191 0 601 1;
#X connect 191 0 602 1;
#X connect 191 0 603 1;
#X connect 191 0 604 1;
#X connect 191 0 605 1;
#X connect 191 0 606 1;
#X connect 191 0 607 1;
#X connect 191 0 608 1;
#X connect 191 0 609 1;
#X connect 191 0 610 1;
#X connect 191 0 611 1;
#X connect 192 0 612 0;
#X connect 193 0 612 1;
#X connect 193 0 613 0;
#X connect 194 0 617 0;
#X connect 198 0 199 0;
#X connect 199 0 0 0;
#X connect 200 0 198 0;
#X connect 200 0 202 0;
#X connect 200 0 204 0;
#X connect 200 0 206 0;
#X connect 200 0 208 0;
#X connect 200 0 210 0;
#X connect 200 0 212 0;
#X connect 200 0 214 0;
#X connect 200 0 216 0;
#X connect 200 0 218 0;
#X connect 200 0 220 0;
#X connect 200 0 222 0;
#X connect 202 0 203 0;
#X connect 203 0 5 0;
#X connect 204 0 205 0;
#X connect 205 0 10 0;
#X connect 206 0 207 0;
#X connect 207 0 15 0;
#X connect 208 0 209 0;
#X connect 209 0 20 0;
#X connect 210 0 211 0;
#X connect 211 0 25 0;
#X connect 212 0 213 0;
#X connect 213 0 30 0;
#X connect 214 0 215 0;
#X connect 215 0 35 0;
#X connect 216 0 217 0;
#X connect 217 0 40 0;
#X connect 218 0 219 0;
#X connect 219 0 45 0;
#X connect 220 0 221 0;
#X connect 221 0 50 0;
#X connect 222 0 223 0;
#X connect 223 0 55 0;
#X connect 224 0 1 0;
#X connect 225 0 238 0;
#X connect 225 0 239 0;
#X connect 225 0 240 0;
#X connect 225 0 241 0;
#X connect 225 0 242 0;
#X connect 225 0 243 0;
#X connect 225 0 244 0;
#X connect 225 0 245 0;
#X connect 225 0 246 0;
#X connect 225 0 247 0;
#X connect 225 0 248 0;
#X connect 225 0 249 0;
#X connect 226 0 6 0;
#X connect 227 0 11 0;
#X connect 228 0 16 0;
#X connect 229 0 21 0;
#X connect 230 0 26 0;
#X connect 231 0 31 0;
#X connect 232 0 36 0;
#X connect 233 0 41 0;
#X connect 234 0 46 0;
#X connect 235 0 51 0;
#X connect 236 0 56 0;
#X connect 238 0 236 0;
#X connect 239 0 235 0;
#X connect 240 0 234 0;
#X connect 241 0 233 0;
#X connect 242 0 232 0;
#X connect 243 0 231 0;
#X connect 244 0 230 0;
#X connect 245 0 229 0;
#X connect 246 0 228 0;
#X connect 247 0 227 0;
#X connect 248 0 226 0;
#X connect 249 0 224 0;
#X connect 250 0 200 0;
#X connect 250 0 225 0;
#X connect 253 0 510 0;
#X connect 253 0 256 0;
#X connect 253 0 257 0;
#X connect 253 0 258 0;
#X connect 253 0 612 3;
#X connect 254 0 510 0;
#X connect 254 0 256 0;
#X connect 254 0 258 0;
#X connect 254 0 257 0;
#X connect 256 0 2 0;
#X connect 256 0 7 0;
#X connect 256 0 12 0;
#X connect 256 0 17 0;
#X connect 256 0 22 0;
#X connect 256 0 27 0;
#X connect 256 0 32 0;
#X connect 256 0 37 0;
#X connect 256 0 42 0;
#X connect 256 0 47 0;
#X connect 256 0 52 0;
#X connect 256 0 57 0;
#X connect 257 0 3 0;
#X connect 257 0 4 0;
#X connect 257 0 8 0;
#X connect 257 0 13 0;
#X connect 257 0 18 0;
#X connect 257 0 23 0;
#X connect 257 0 28 0;
#X connect 257 0 33 0;
#X connect 257 0 38 0;
#X connect 257 0 43 0;
#X connect 257 0 48 0;
#X connect 257 0 53 0;
#X connect 257 0 58 0;
#X connect 257 0 9 0;
#X connect 257 0 14 0;
#X connect 257 0 19 0;
#X connect 257 0 29 0;
#X connect 257 0 34 0;
#X connect 257 0 39 0;
#X connect 257 0 44 0;
#X connect 257 0 49 0;
#X connect 257 0 54 0;
#X connect 257 0 59 0;
#X connect 257 0 24 0;
#X connect 258 0 1 0;
#X connect 258 0 6 0;
#X connect 258 0 11 0;
#X connect 258 0 16 0;
#X connect 258 0 21 0;
#X connect 258 0 26 0;
#X connect 258 0 31 0;
#X connect 258 0 36 0;
#X connect 258 0 41 0;
#X connect 258 0 46 0;
#X connect 258 0 51 0;
#X connect 258 0 56 0;
#X connect 271 0 342 0;
#X connect 272 0 498 0;
#X connect 273 0 403 0;
#X connect 274 0 378 0;
#X connect 275 0 588 0;
#X connect 276 0 343 0;
#X connect 277 0 497 0;
#X connect 278 0 404 0;
#X connect 279 0 379 0;
#X connect 280 0 589 0;
#X connect 281 0 344 0;
#X connect 282 0 496 0;
#X connect 283 0 405 0;
#X connect 284 0 380 0;
#X connect 285 0 590 0;
#X connect 286 0 345 0;
#X connect 287 0 495 0;
#X connect 288 0 406 0;
#X connect 289 0 381 0;
#X connect 290 0 591 0;
#X connect 291 0 346 0;
#X connect 292 0 494 0;
#X connect 293 0 402 0;
#X connect 294 0 382 0;
#X connect 295 0 592 0;
#X connect 296 0 348 0;
#X connect 297 0 493 0;
#X connect 298 0 407 0;
#X connect 299 0 383 0;
#X connect 300 0 593 0;
#X connect 301 0 347 0;
#X connect 302 0 492 0;
#X connect 303 0 408 0;
#X connect 304 0 384 0;
#X connect 305 0 594 0;
#X connect 306 0 349 0;
#X connect 307 0 491 0;
#X connect 308 0 409 0;
#X connect 309 0 385 0;
#X connect 310 0 595 0;
#X connect 311 0 350 0;
#X connect 312 0 490 0;
#X connect 313 0 410 0;
#X connect 314 0 386 0;
#X connect 315 0 596 0;
#X connect 316 0 351 0;
#X connect 317 0 489 0;
#X connect 318 0 411 0;
#X connect 319 0 387 0;
#X connect 320 0 597 0;
#X connect 321 0 352 0;
#X connect 322 0 488 0;
#X connect 323 0 412 0;
#X connect 324 0 388 0;
#X connect 325 0 598 0;
#X connect 326 0 353 0;
#X connect 327 0 487 0;
#X connect 328 0 413 0;
#X connect 329 0 389 0;
#X connect 330 0 599 0;
#X connect 331 0 184 0;
#X connect 332 0 184 0;
#X connect 333 0 184 0;
#X connect 334 0 184 0;
#X connect 335 0 184 0;
#X connect 336 0 184 0;
#X connect 337 0 184 0;
#X connect 338 0 184 0;
#X connect 339 0 184 0;
#X connect 340 0 184 0;
#X connect 341 0 184 0;
#X connect 342 0 474 1;
#X connect 343 0 331 1;
#X connect 344 0 332 1;
#X connect 345 0 333 1;
#X connect 346 0 334 1;
#X connect 347 0 336 1;
#X connect 348 0 335 1;
#X connect 349 0 337 1;
#X connect 350 0 338 1;
#X connect 351 0 339 1;
#X connect 352 0 340 1;
#X connect 353 0 341 1;
#X connect 354 0 187 0;
#X connect 355 0 187 0;
#X connect 356 0 187 0;
#X connect 357 0 187 0;
#X connect 358 0 187 0;
#X connect 359 0 187 0;
#X connect 360 0 187 0;
#X connect 361 0 187 0;
#X connect 362 0 187 0;
#X connect 363 0 187 0;
#X connect 364 0 187 0;
#X connect 365 0 187 0;
#X connect 366 0 188 0;
#X connect 367 0 188 0;
#X connect 368 0 188 0;
#X connect 369 0 188 0;
#X connect 370 0 188 0;
#X connect 371 0 188 0;
#X connect 372 0 188 0;
#X connect 373 0 188 0;
#X connect 374 0 188 0;
#X connect 375 0 188 0;
#X connect 376 0 188 0;
#X connect 377 0 188 0;
#X connect 378 0 366 1;
#X connect 379 0 367 1;
#X connect 380 0 368 1;
#X connect 381 0 369 1;
#X connect 382 0 370 1;
#X connect 383 0 371 1;
#X connect 384 0 372 1;
#X connect 385 0 373 1;
#X connect 386 0 374 1;
#X connect 387 0 375 1;
#X connect 388 0 376 1;
#X connect 389 0 377 1;
#X connect 390 0 190 0;
#X connect 391 0 190 0;
#X connect 392 0 190 0;
#X connect 393 0 190 0;
#X connect 394 0 190 0;
#X connect 395 0 190 0;
#X connect 396 0 190 0;
#X connect 397 0 190 0;
#X connect 398 0 190 0;
#X connect 399 0 190 0;
#X connect 400 0 190 0;
#X connect 401 0 190 0;
#X connect 402 0 358 1;
#X connect 403 0 354 1;
#X connect 404 0 355 1;
#X connect 405 0 356 1;
#X connect 406 0 357 1;
#X connect 407 0 359 1;
#X connect 408 0 360 1;
#X connect 409 0 361 1;
#X connect 410 0 362 1;
#X connect 411 0 363 1;
#X connect 412 0 364 1;
#X connect 413 0 365 1;
#X connect 414 0 402 1;
#X connect 414 0 403 1;
#X connect 414 0 404 1;
#X connect 414 0 405 1;
#X connect 414 0 406 1;
#X connect 414 0 407 1;
#X connect 414 0 408 1;
#X connect 414 0 409 1;
#X connect 414 0 410 1;
#X connect 414 0 411 1;
#X connect 414 0 412 1;
#X connect 414 0 413 1;
#X connect 415 0 378 1;
#X connect 415 0 379 1;
#X connect 415 0 380 1;
#X connect 415 0 381 1;
#X connect 415 0 382 1;
#X connect 415 0 383 1;
#X connect 415 0 384 1;
#X connect 415 0 385 1;
#X connect 415 0 386 1;
#X connect 415 0 387 1;
#X connect 415 0 388 1;
#X connect 415 0 389 1;
#X connect 416 0 588 1;
#X connect 416 0 589 1;
#X connect 416 0 590 1;
#X connect 416 0 591 1;
#X connect 416 0 592 1;
#X connect 416 0 593 1;
#X connect 416 0 594 1;
#X connect 416 0 595 1;
#X connect 416 0 596 1;
#X connect 416 0 597 1;
#X connect 416 0 598 1;
#X connect 416 0 599 1;
#X connect 417 0 418 0;
#X connect 418 0 271 0;
#X connect 419 0 417 0;
#X connect 419 0 420 0;
#X connect 419 0 422 0;
#X connect 419 0 424 0;
#X connect 419 0 426 0;
#X connect 419 0 428 0;
#X connect 419 0 430 0;
#X connect 419 0 432 0;
#X connect 419 0 434 0;
#X connect 419 0 436 0;
#X connect 419 0 438 0;
#X connect 419 0 440 0;
#X connect 420 0 421 0;
#X connect 421 0 276 0;
#X connect 422 0 423 0;
#X connect 423 0 281 0;
#X connect 424 0 425 0;
#X connect 425 0 286 0;
#X connect 426 0 427 0;
#X connect 427 0 291 0;
#X connect 428 0 429 0;
#X connect 429 0 296 0;
#X connect 430 0 431 0;
#X connect 431 0 301 0;
#X connect 432 0 433 0;
#X connect 433 0 306 0;
#X connect 434 0 435 0;
#X connect 435 0 311 0;
#X connect 436 0 437 0;
#X connect 437 0 316 0;
#X connect 438 0 439 0;
#X connect 439 0 321 0;
#X connect 440 0 441 0;
#X connect 441 0 326 0;
#X connect 442 0 272 0;
#X connect 443 0 455 0;
#X connect 443 0 456 0;
#X connect 443 0 457 0;
#X connect 443 0 458 0;
#X connect 443 0 459 0;
#X connect 443 0 460 0;
#X connect 443 0 461 0;
#X connect 443 0 462 0;
#X connect 443 0 463 0;
#X connect 443 0 464 0;
#X connect 443 0 465 0;
#X connect 443 0 466 0;
#X connect 444 0 277 0;
#X connect 445 0 282 0;
#X connect 446 0 287 0;
#X connect 447 0 292 0;
#X connect 448 0 297 0;
#X connect 449 0 302 0;
#X connect 450 0 307 0;
#X connect 451 0 312 0;
#X connect 452 0 317 0;
#X connect 453 0 322 0;
#X connect 454 0 327 0;
#X connect 455 0 454 0;
#X connect 456 0 453 0;
#X connect 457 0 452 0;
#X connect 458 0 451 0;
#X connect 459 0 450 0;
#X connect 460 0 449 0;
#X connect 461 0 448 0;
#X connect 462 0 447 0;
#X connect 463 0 446 0;
#X connect 464 0 445 0;
#X connect 465 0 444 0;
#X connect 466 0 442 0;
#X connect 467 0 469 0;
#X connect 467 0 470 0;
#X connect 467 0 471 0;
#X connect 467 0 472 0;
#X connect 468 0 469 0;
#X connect 468 0 470 0;
#X connect 468 0 472 0;
#X connect 468 0 471 0;
#X connect 469 0 271 0;
#X connect 469 0 276 0;
#X connect 469 0 281 0;
#X connect 469 0 286 0;
#X connect 469 0 291 0;
#X connect 469 0 296 0;
#X connect 469 0 301 0;
#X connect 469 0 306 0;
#X connect 469 0 311 0;
#X connect 469 0 316 0;
#X connect 469 0 321 0;
#X connect 469 0 326 0;
#X connect 470 0 273 0;
#X connect 470 0 278 0;
#X connect 470 0 283 0;
#X connect 470 0 288 0;
#X connect 470 0 293 0;
#X connect 470 0 298 0;
#X connect 470 0 303 0;
#X connect 470 0 308 0;
#X connect 470 0 313 0;
#X connect 470 0 318 0;
#X connect 470 0 323 0;
#X connect 470 0 328 0;
#X connect 471 0 274 0;
#X connect 471 0 275 0;
#X connect 471 0 279 0;
#X connect 471 0 284 0;
#X connect 471 0 289 0;
#X connect 471 0 294 0;
#X connect 471 0 299 0;
#X connect 471 0 304 0;
#X connect 471 0 309 0;
#X connect 471 0 314 0;
#X connect 471 0 319 0;
#X connect 471 0 324 0;
#X connect 471 0 329 0;
#X connect 471 0 280 0;
#X connect 471 0 285 0;
#X connect 471 0 290 0;
#X connect 471 0 300 0;
#X connect 471 0 305 0;
#X connect 471 0 310 0;
#X connect 471 0 315 0;
#X connect 471 0 320 0;
#X connect 471 0 325 0;
#X connect 471 0 330 0;
#X connect 471 0 295 0;
#X connect 472 0 272 0;
#X connect 472 0 277 0;
#X connect 472 0 282 0;
#X connect 472 0 287 0;
#X connect 472 0 292 0;
#X connect 472 0 297 0;
#X connect 472 0 302 0;
#X connect 472 0 307 0;
#X connect 472 0 312 0;
#X connect 472 0 317 0;
#X connect 472 0 322 0;
#X connect 472 0 327 0;
#X connect 473 0 75 0;
#X connect 473 1 74 0;
#X connect 473 2 73 0;
#X connect 473 3 72 0;
#X connect 473 4 71 0;
#X connect 473 5 70 0;
#X connect 473 6 69 0;
#X connect 473 7 68 0;
#X connect 473 8 67 0;
#X connect 473 9 66 0;
#X connect 473 10 65 0;
#X connect 473 11 64 0;
#X connect 473 12 474 0;
#X connect 473 13 331 0;
#X connect 473 14 332 0;
#X connect 473 15 333 0;
#X connect 473 16 334 0;
#X connect 473 17 335 0;
#X connect 473 18 336 0;
#X connect 473 19 337 0;
#X connect 473 20 338 0;
#X connect 473 21 339 0;
#X connect 473 22 340 0;
#X connect 473 23 341 0;
#X connect 474 0 184 0;
#X connect 475 0 185 0;
#X connect 476 0 185 0;
#X connect 477 0 185 0;
#X connect 478 0 185 0;
#X connect 479 0 185 0;
#X connect 480 0 185 0;
#X connect 481 0 185 0;
#X connect 482 0 185 0;
#X connect 483 0 185 0;
#X connect 484 0 185 0;
#X connect 485 0 185 0;
#X connect 486 0 185 0;
#X connect 487 0 486 1;
#X connect 488 0 485 1;
#X connect 489 0 484 1;
#X connect 490 0 483 1;
#X connect 491 0 482 1;
#X connect 492 0 481 1;
#X connect 493 0 480 1;
#X connect 494 0 479 1;
#X connect 495 0 478 1;
#X connect 496 0 477 1;
#X connect 497 0 476 1;
#X connect 498 0 475 1;
#X connect 499 0 511 0;
#X connect 499 0 503 0;
#X connect 499 0 501 0;
#X connect 499 0 502 0;
#X connect 499 0 504 0;
#X connect 499 0 505 0;
#X connect 499 0 507 0;
#X connect 499 0 508 0;
#X connect 499 0 509 0;
#X connect 499 0 512 0;
#X connect 499 0 518 0;
#X connect 499 0 517 0;
#X connect 499 0 579 0;
#X connect 501 0 321 0;
#X connect 501 0 296 0;
#X connect 501 0 30 0;
#X connect 502 0 316 0;
#X connect 502 0 286 0;
#X connect 502 0 35 0;
#X connect 503 0 326 0;
#X connect 503 0 281 0;
#X connect 503 0 15 0;
#X connect 504 0 40 0;
#X connect 504 0 0 0;
#X connect 504 0 301 0;
#X connect 505 0 311 0;
#X connect 505 0 20 0;
#X connect 505 0 25 0;
#X connect 505 0 291 0;
#X connect 505 0 45 0;
#X connect 508 0 271 0;
#X connect 508 0 5 0;
#X connect 509 0 306 0;
#X connect 509 0 276 0;
#X connect 509 0 10 0;
#X connect 510 0 0 0;
#X connect 510 0 5 0;
#X connect 510 0 10 0;
#X connect 510 0 15 0;
#X connect 510 0 20 0;
#X connect 510 0 25 0;
#X connect 510 0 30 0;
#X connect 510 0 35 0;
#X connect 510 0 40 0;
#X connect 510 0 45 0;
#X connect 510 0 50 0;
#X connect 510 0 55 0;
#X connect 511 0 327 0;
#X connect 511 0 322 0;
#X connect 511 0 317 0;
#X connect 511 0 312 0;
#X connect 511 0 302 0;
#X connect 511 0 297 0;
#X connect 511 0 292 0;
#X connect 511 0 287 0;
#X connect 511 0 307 0;
#X connect 511 0 282 0;
#X connect 511 0 277 0;
#X connect 511 0 272 0;
#X connect 511 0 6 0;
#X connect 511 0 11 0;
#X connect 511 0 1 0;
#X connect 511 0 16 0;
#X connect 511 0 21 0;
#X connect 511 0 26 0;
#X connect 511 0 31 0;
#X connect 511 0 36 0;
#X connect 511 0 41 0;
#X connect 511 0 46 0;
#X connect 511 0 51 0;
#X connect 511 0 56 0;
#X connect 511 0 303 0;
#X connect 511 0 12 0;
#X connect 511 0 22 0;
#X connect 512 0 303 0;
#X connect 512 0 2 0;
#X connect 512 0 7 0;
#X connect 512 0 17 0;
#X connect 512 0 42 0;
#X connect 512 0 37 0;
#X connect 512 0 32 0;
#X connect 512 0 27 0;
#X connect 513 0 61 0;
#X connect 513 0 499 0;
#X connect 515 0 499 0;
#X connect 517 0 328 0;
#X connect 517 0 323 0;
#X connect 517 0 318 0;
#X connect 517 0 313 0;
#X connect 517 0 308 0;
#X connect 517 0 298 0;
#X connect 517 0 293 0;
#X connect 517 0 288 0;
#X connect 517 0 283 0;
#X connect 517 0 278 0;
#X connect 517 0 273 0;
#X connect 517 0 12 0;
#X connect 517 0 22 0;
#X connect 517 0 47 0;
#X connect 517 0 52 0;
#X connect 517 0 57 0;
#X connect 518 0 303 0;
#X connect 518 0 2 0;
#X connect 518 0 7 0;
#X connect 518 0 17 0;
#X connect 518 0 27 0;
#X connect 518 0 32 0;
#X connect 518 0 37 0;
#X connect 518 0 42 0;
#X connect 519 0 62 0;
#X connect 520 0 61 0;
#X connect 523 0 163 0;
#X connect 525 0 511 0;
#X connect 526 0 499 0;
#X connect 527 0 194 0;
#X connect 528 0 125 0;
#X connect 529 0 150 0;
#X connect 533 0 468 0;
#X connect 533 0 254 0;
#X connect 535 0 200 0;
#X connect 535 0 419 0;
#X connect 536 0 443 0;
#X connect 536 0 225 0;
#X connect 539 0 544 0;
#X connect 539 0 545 0;
#X connect 539 0 546 0;
#X connect 539 0 547 0;
#X connect 539 0 548 0;
#X connect 542 0 328 0;
#X connect 544 0 330 0;
#X connect 544 0 314 0;
#X connect 544 0 309 0;
#X connect 545 0 325 0;
#X connect 545 0 324 0;
#X connect 545 0 319 0;
#X connect 545 0 304 0;
#X connect 545 0 299 0;
#X connect 546 0 320 0;
#X connect 546 0 329 0;
#X connect 546 0 294 0;
#X connect 547 0 150 0;
#X connect 548 0 125 0;
#X connect 549 0 551 0;
#X connect 550 0 554 0;
#X connect 551 0 329 0;
#X connect 551 0 324 0;
#X connect 551 0 319 0;
#X connect 551 0 314 0;
#X connect 551 0 309 0;
#X connect 551 0 299 0;
#X connect 551 0 294 0;
#X connect 551 0 289 0;
#X connect 551 0 304 0;
#X connect 551 0 279 0;
#X connect 551 0 274 0;
#X connect 551 0 3 0;
#X connect 551 0 8 0;
#X connect 551 0 13 0;
#X connect 551 0 23 0;
#X connect 551 0 33 0;
#X connect 551 0 38 0;
#X connect 551 0 43 0;
#X connect 551 0 48 0;
#X connect 551 0 53 0;
#X connect 551 0 58 0;
#X connect 551 0 284 0;
#X connect 551 0 18 0;
#X connect 551 0 28 0;
#X connect 554 0 330 0;
#X connect 554 0 325 0;
#X connect 554 0 320 0;
#X connect 554 0 315 0;
#X connect 554 0 310 0;
#X connect 554 0 305 0;
#X connect 554 0 300 0;
#X connect 554 0 295 0;
#X connect 554 0 290 0;
#X connect 554 0 285 0;
#X connect 554 0 275 0;
#X connect 554 0 280 0;
#X connect 554 0 4 0;
#X connect 554 0 14 0;
#X connect 554 0 59 0;
#X connect 554 0 54 0;
#X connect 554 0 49 0;
#X connect 554 0 39 0;
#X connect 554 0 34 0;
#X connect 554 0 29 0;
#X connect 554 0 24 0;
#X connect 554 0 19 0;
#X connect 554 0 9 0;
#X connect 554 0 44 0;
#X connect 555 0 314 0;
#X connect 555 0 309 0;
#X connect 556 0 329 0;
#X connect 556 0 294 0;
#X connect 557 0 125 0;
#X connect 558 0 330 0;
#X connect 559 0 325 0;
#X connect 560 0 320 0;
#X connect 561 0 150 0;
#X connect 562 0 324 0;
#X connect 562 0 319 0;
#X connect 562 0 304 0;
#X connect 562 0 299 0;
#X connect 563 0 555 0;
#X connect 563 0 562 0;
#X connect 563 0 556 0;
#X connect 563 0 557 0;
#X connect 564 0 558 0;
#X connect 564 0 559 0;
#X connect 564 0 560 0;
#X connect 564 0 561 0;
#X connect 567 0 577 0;
#X connect 567 0 576 0;
#X connect 567 0 575 0;
#X connect 567 0 574 0;
#X connect 567 0 573 0;
#X connect 567 0 572 0;
#X connect 567 0 571 0;
#X connect 567 0 570 0;
#X connect 567 0 569 0;
#X connect 567 0 578 0;
#X connect 569 0 328 0;
#X connect 569 0 12 0;
#X connect 570 0 323 0;
#X connect 570 0 7 0;
#X connect 571 0 318 0;
#X connect 571 0 12 0;
#X connect 572 0 313 0;
#X connect 572 0 273 0;
#X connect 573 0 308 0;
#X connect 573 0 2 0;
#X connect 574 0 303 0;
#X connect 574 0 283 0;
#X connect 575 0 298 0;
#X connect 575 0 278 0;
#X connect 576 0 293 0;
#X connect 577 0 288 0;
#X connect 578 0 194 0;
#X connect 579 0 329 0;
#X connect 579 0 324 0;
#X connect 579 0 314 0;
#X connect 579 0 319 0;
#X connect 579 0 309 0;
#X connect 579 0 304 0;
#X connect 579 0 299 0;
#X connect 579 0 294 0;
#X connect 579 0 325 0;
#X connect 579 0 330 0;
#X connect 579 0 320 0;
#X connect 582 0 518 0;
#X connect 582 0 517 0;
#X connect 584 0 56 0;
#X connect 584 0 51 0;
#X connect 584 0 46 0;
#X connect 584 0 41 0;
#X connect 584 0 36 0;
#X connect 584 0 31 0;
#X connect 584 0 26 0;
#X connect 584 0 21 0;
#X connect 584 0 16 0;
#X connect 584 0 11 0;
#X connect 584 0 6 0;
#X connect 584 0 1 0;
#X connect 584 0 272 0;
#X connect 584 0 277 0;
#X connect 584 0 282 0;
#X connect 584 0 287 0;
#X connect 584 0 292 0;
#X connect 584 0 297 0;
#X connect 584 0 302 0;
#X connect 584 0 307 0;
#X connect 584 0 312 0;
#X connect 584 0 317 0;
#X connect 584 0 322 0;
#X connect 584 0 327 0;
#X connect 586 0 473 1;
#X connect 586 0 616 1;
#X connect 586 0 617 1;
#X connect 586 0 618 1;
#X connect 586 0 619 1;
#X connect 588 0 390 1;
#X connect 589 0 391 1;
#X connect 590 0 392 1;
#X connect 591 0 393 1;
#X connect 592 0 394 1;
#X connect 593 0 395 1;
#X connect 594 0 396 1;
#X connect 595 0 397 1;
#X connect 596 0 398 1;
#X connect 597 0 399 1;
#X connect 598 0 400 1;
#X connect 599 0 401 1;
#X connect 600 0 151 1;
#X connect 601 0 152 1;
#X connect 602 0 153 1;
#X connect 603 0 154 1;
#X connect 604 0 155 1;
#X connect 605 0 156 1;
#X connect 606 0 157 1;
#X connect 607 0 158 1;
#X connect 608 0 159 1;
#X connect 609 0 160 1;
#X connect 610 0 161 1;
#X connect 611 0 162 1;
#X connect 612 0 614 0;
#X connect 612 1 615 0;
#X connect 616 0 100 0;
#X connect 616 1 99 0;
#X connect 616 2 98 0;
#X connect 616 3 97 0;
#X connect 616 4 96 0;
#X connect 616 5 95 0;
#X connect 616 6 94 0;
#X connect 616 7 93 0;
#X connect 616 8 92 0;
#X connect 616 9 91 0;
#X connect 616 10 90 0;
#X connect 616 11 89 0;
#X connect 616 12 475 0;
#X connect 616 13 476 0;
#X connect 616 14 477 0;
#X connect 616 15 478 0;
#X connect 616 16 479 0;
#X connect 616 17 480 0;
#X connect 616 18 481 0;
#X connect 616 19 482 0;
#X connect 616 20 483 0;
#X connect 616 21 484 0;
#X connect 616 22 485 0;
#X connect 616 23 486 0;
#X connect 617 0 124 0;
#X connect 617 1 123 0;
#X connect 617 2 122 0;
#X connect 617 3 121 0;
#X connect 617 4 120 0;
#X connect 617 5 119 0;
#X connect 617 6 118 0;
#X connect 617 7 117 0;
#X connect 617 8 116 0;
#X connect 617 9 115 0;
#X connect 617 10 114 0;
#X connect 617 11 113 0;
#X connect 617 12 354 0;
#X connect 617 13 355 0;
#X connect 617 14 356 0;
#X connect 617 15 357 0;
#X connect 617 16 358 0;
#X connect 617 17 359 0;
#X connect 617 18 360 0;
#X connect 617 19 361 0;
#X connect 617 20 362 0;
#X connect 617 21 363 0;
#X connect 617 22 364 0;
#X connect 617 23 365 0;
#X connect 618 0 137 0;
#X connect 618 1 136 0;
#X connect 618 2 135 0;
#X connect 618 3 134 0;
#X connect 618 4 133 0;
#X connect 618 5 132 0;
#X connect 618 6 131 0;
#X connect 618 7 130 0;
#X connect 618 8 129 0;
#X connect 618 9 128 0;
#X connect 618 10 127 0;
#X connect 618 11 126 0;
#X connect 618 12 366 0;
#X connect 618 13 367 0;
#X connect 618 14 368 0;
#X connect 618 15 369 0;
#X connect 618 16 370 0;
#X connect 618 17 371 0;
#X connect 618 18 372 0;
#X connect 618 19 373 0;
#X connect 618 20 374 0;
#X connect 618 21 375 0;
#X connect 618 22 376 0;
#X connect 618 23 377 0;
#X connect 619 0 162 0;
#X connect 619 1 161 0;
#X connect 619 2 160 0;
#X connect 619 3 159 0;
#X connect 619 4 158 0;
#X connect 619 5 157 0;
#X connect 619 6 156 0;
#X connect 619 7 155 0;
#X connect 619 8 154 0;
#X connect 619 9 153 0;
#X connect 619 10 152 0;
#X connect 619 11 151 0;
#X connect 619 12 390 0;
#X connect 619 13 391 0;
#X connect 619 14 392 0;
#X connect 619 15 393 0;
#X connect 619 16 394 0;
#X connect 619 17 395 0;
#X connect 619 18 396 0;
#X connect 619 19 397 0;
#X connect 619 20 398 0;
#X connect 619 21 399 0;
#X connect 619 22 400 0;
#X connect 619 23 401 0;
#X connect 620 0 618 0;
#X coords 0 -1 1 1 550 700 1 100 100;
