#N canvas 532 8 450 300 10;
#X msg 164 164 \$1 \$2;
#X obj 164 134 list;
#X obj 164 192 line 0 1;
#X obj 140 16 inlet;
#X obj 291 64 inlet;
#X obj 131 230 outlet;
#X obj 166 81 select 0 1;
#X msg 164 107 1;
#X msg 197 107 10000;
#X connect 0 0 2 0;
#X connect 1 0 0 0;
#X connect 2 0 5 0;
#X connect 3 0 6 0;
#X connect 4 0 1 1;
#X connect 6 0 7 0;
#X connect 6 1 8 0;
#X connect 6 2 1 0;
#X connect 7 0 1 0;
#X connect 8 0 1 0;
