#N canvas 317 67 450 300 10;
#X obj 14 8 r ding;
#X obj 7 103 delay;
#X obj 33 84 + 1000;
#X obj 57 156 delay;
#X obj 83 137 + 1000;
#X obj 14 27 t b b b b b b b;
#X obj 166 123 delay;
#X obj 193 103 random 40000;
#X obj 199 157 random 3;
#X obj 199 178 select 2;
#X obj 7 272 outlet;
#X obj 57 272 outlet;
#X obj 166 237 spigot;
#X obj 199 218 tgl 15 0 empty empty empty 17 7 0 10 -262144 -1 -1 0
1;
#X msg 199 198 1;
#X obj 166 273 outlet;
#X msg 57 240 1;
#X msg 7 218 1;
#X obj 83 117 random 12000;
#X obj 33 64 random 12000;
#X connect 0 0 5 0;
#X connect 1 0 17 0;
#X connect 2 0 1 1;
#X connect 3 0 16 0;
#X connect 4 0 3 1;
#X connect 5 0 6 0;
#X connect 5 1 3 0;
#X connect 5 2 1 0;
#X connect 5 3 8 0;
#X connect 5 4 7 0;
#X connect 5 5 18 0;
#X connect 5 6 19 0;
#X connect 6 0 12 0;
#X connect 7 0 6 1;
#X connect 8 0 9 0;
#X connect 9 0 14 0;
#X connect 12 0 15 0;
#X connect 13 0 12 1;
#X connect 14 0 13 0;
#X connect 16 0 11 0;
#X connect 17 0 10 0;
#X connect 18 0 4 0;
#X connect 19 0 2 0;
