#N canvas 1214 790 556 373 10;
#X obj 65 34 tgl 15 0 empty empty empty 17 7 0 10 -262144 -1 -1 0 1
;
#X floatatom 93 33 5 0 0 0 - - -;
#X obj 159 64 random;
#X obj 131 94 spigot;
#X obj 139 33 tgl 15 0 empty empty empty 17 7 0 10 -262144 -1 -1 0
1;
#X floatatom 167 33 5 0 0 0 - - -;
#X obj 66 93 f;
#X obj 98 93 + 1;
#X obj 66 126 mod 9;
#X floatatom 66 178 5 0 0 0 - - -;
#X obj 66 152 + 1;
#X floatatom 226 33 5 0 0 0 - - -;
#X obj 124 169 select 1 2 3 4 5 6 7 8;
#X msg 12 206 1;
#X msg 12 248 0;
#X text 64 17 seq;
#X text 91 18 rate;
#X text 138 16 dust;
#X text 165 16 density;
#X text 224 17 channels;
#X text 303 17 decay;
#X floatatom 303 34 5 0 0 0 - - -;
#X obj 247 55 spigot;
#X obj 280 34 tgl 15 0 empty empty empty 17 7 0 10 -262144 -1 -1 0
1;
#X text 282 17 X;
#X obj 346 35 bng 15 250 50 0 empty empty empty 17 7 0 10 -262144 -1
-1;
#X text 347 18 rst;
#X msg 346 55 0;
#X obj 66 62 metro 200;
#X obj 12 226 delay 200;
#X msg 74 205 1;
#X msg 74 247 0;
#X obj 74 225 delay 200;
#X msg 138 205 1;
#X msg 138 247 0;
#X obj 138 225 delay 200;
#X msg 201 204 1;
#X msg 201 246 0;
#X obj 201 224 delay 200;
#X msg 263 204 1;
#X msg 263 246 0;
#X obj 263 224 delay 200;
#X msg 325 203 1;
#X msg 325 245 0;
#X obj 325 223 delay 200;
#X msg 389 203 1;
#X msg 389 245 0;
#X obj 389 223 delay 200;
#X msg 452 202 1;
#X msg 452 244 0;
#X obj 452 222 delay 200;
#X connect 0 0 23 0;
#X connect 0 0 28 0;
#X connect 1 0 22 0;
#X connect 1 0 28 1;
#X connect 2 0 3 0;
#X connect 3 0 1 0;
#X connect 4 0 3 1;
#X connect 5 0 2 1;
#X connect 6 0 7 0;
#X connect 6 0 8 0;
#X connect 7 0 6 1;
#X connect 8 0 10 0;
#X connect 10 0 9 0;
#X connect 10 0 12 0;
#X connect 11 0 8 1;
#X connect 12 0 13 0;
#X connect 12 1 30 0;
#X connect 12 2 33 0;
#X connect 12 3 36 0;
#X connect 12 4 39 0;
#X connect 12 5 42 0;
#X connect 12 6 45 0;
#X connect 12 7 48 0;
#X connect 13 0 29 0;
#X connect 21 0 29 1;
#X connect 21 0 50 1;
#X connect 21 0 47 1;
#X connect 21 0 44 1;
#X connect 21 0 41 1;
#X connect 21 0 38 1;
#X connect 21 0 35 1;
#X connect 21 0 32 1;
#X connect 22 0 29 1;
#X connect 22 0 32 1;
#X connect 22 0 35 1;
#X connect 22 0 38 1;
#X connect 22 0 41 1;
#X connect 22 0 44 1;
#X connect 22 0 47 1;
#X connect 22 0 50 1;
#X connect 23 0 22 1;
#X connect 25 0 27 0;
#X connect 27 0 23 0;
#X connect 27 0 4 0;
#X connect 27 0 0 0;
#X connect 28 0 2 0;
#X connect 28 0 6 0;
#X connect 29 0 14 0;
#X connect 30 0 32 0;
#X connect 32 0 31 0;
#X connect 33 0 35 0;
#X connect 35 0 34 0;
#X connect 36 0 38 0;
#X connect 38 0 37 0;
#X connect 39 0 41 0;
#X connect 41 0 40 0;
#X connect 42 0 44 0;
#X connect 44 0 43 0;
#X connect 45 0 47 0;
#X connect 47 0 46 0;
#X connect 48 0 50 0;
#X connect 50 0 49 0;
