#N canvas 121 63 730 502 10;
#X obj 325 364 *~;
#X msg 346 303 \$1 \$2;
#X obj 346 273 list;
#X floatatom 166 130 5 0 0 0 - - -, f 5;
#X msg 380 255 1;
#X msg 314 261 0;
#X obj 315 216 metro 500;
#X obj 315 193 tgl 15 0 empty empty empty 17 7 0 10 -262144 -1 -1 0
1;
#X msg 74 291 1;
#X msg 8 297 0;
#X obj 9 252 metro 500;
#X obj 9 229 tgl 15 0 empty empty empty 17 7 0 10 -262144 -1 -1 1 1
;
#X obj 17 355 *~;
#X msg 112 201 1;
#X msg 152 215 0;
#X msg 188 204 1;
#X msg 239 205 0;
#X obj 17 405 *~;
#X obj 325 391 *~;
#X obj 17 452 outlet~;
#X obj -64 128 inlet~;
#X obj 117 131 hradio 15 1 0 3 empty empty bypass-square-tri 0 -8 0
10 -262144 -1 -1 1;
#X obj 77 352 *~;
#X obj 77 402 *~;
#X obj 77 449 outlet~;
#X obj 380 365 *~;
#X obj 380 387 *~;
#X obj -16 128 inlet~;
#X obj -103 378 *~;
#X obj -48 379 *~;
#X text 273 288 comment;
#X obj 156 93 loadbang;
#X text 198 133 rate;
#X msg 249 88 0;
#X obj 117 162 select 1 2 0;
#X msg -76 305 1;
#X obj 346 331 line 0 1;
#X obj 177 58 inlet;
#X obj 47 104 r loct;
#X obj 97 69 r $_globt;
#X obj 90 34 r $_tremtype;
#X obj 315 237 markex/alternate;
#X obj 9 273 markex/alternate;
#X connect 0 0 18 0;
#X connect 1 0 36 0;
#X connect 2 0 1 0;
#X connect 3 0 2 1;
#X connect 3 0 6 1;
#X connect 3 0 10 1;
#X connect 4 0 2 0;
#X connect 5 0 2 0;
#X connect 6 0 41 0;
#X connect 7 0 6 0;
#X connect 8 0 12 1;
#X connect 8 0 22 1;
#X connect 9 0 12 1;
#X connect 9 0 22 1;
#X connect 10 0 42 0;
#X connect 11 0 10 0;
#X connect 12 0 17 0;
#X connect 13 0 11 0;
#X connect 13 0 17 1;
#X connect 13 0 23 1;
#X connect 14 0 11 0;
#X connect 14 0 17 1;
#X connect 14 0 23 1;
#X connect 14 0 29 1;
#X connect 14 0 28 1;
#X connect 15 0 7 0;
#X connect 15 0 18 1;
#X connect 15 0 26 1;
#X connect 16 0 7 0;
#X connect 16 0 18 1;
#X connect 16 0 26 1;
#X connect 16 0 29 1;
#X connect 16 0 28 1;
#X connect 17 0 19 0;
#X connect 18 0 19 0;
#X connect 20 0 12 0;
#X connect 20 0 0 0;
#X connect 20 0 28 0;
#X connect 21 0 34 0;
#X connect 22 0 23 0;
#X connect 23 0 24 0;
#X connect 25 0 26 0;
#X connect 26 0 24 0;
#X connect 27 0 22 0;
#X connect 27 0 25 0;
#X connect 27 0 29 0;
#X connect 28 0 19 0;
#X connect 29 0 24 0;
#X connect 31 0 33 0;
#X connect 33 0 21 0;
#X connect 34 0 13 0;
#X connect 34 0 16 0;
#X connect 34 1 14 0;
#X connect 34 1 15 0;
#X connect 34 2 14 0;
#X connect 34 2 16 0;
#X connect 34 2 35 0;
#X connect 35 0 28 1;
#X connect 35 0 29 1;
#X connect 36 0 0 1;
#X connect 36 0 25 1;
#X connect 37 0 3 0;
#X connect 38 0 3 0;
#X connect 39 0 3 0;
#X connect 40 0 21 0;
#X connect 41 0 5 0;
#X connect 41 1 4 0;
#X connect 42 0 9 0;
#X connect 42 1 8 0;
#X coords 0 -1 1 1 135 60 1 100 100;
